<?xml version="1.0" encoding="UTF-8" standalone="no"?>
<!DOCTYPE svg PUBLIC "-//W3C//DTD SVG 1.1//EN"
 "http://www.w3.org/Graphics/SVG/1.1/DTD/svg11.dtd">
<!-- Generated by graphviz version 2.26.3 (20100126.1600)
 -->
<!-- Title: Diagram Pages: 1 -->
<svg width="1037pt" height="2081pt"
 viewBox="0.00 0.00 1037.00 2081.00" xmlns="http://www.w3.org/2000/svg" xmlns:xlink="http://www.w3.org/1999/xlink">
<g id="graph1" class="graph" transform="scale(1 1) rotate(0) translate(4 2077)">
<title>Diagram</title>
<polygon fill="white" stroke="white" points="-4,5 -4,-2077 1034,-2077 1034,5 -4,5"/>
<g id="graph2" class="cluster"><title>clusterMain</title>
<polygon fill="none" stroke="black" points="8,-8 8,-2065 677,-2065 677,-8 8,-8"/>
<text text-anchor="middle" x="342.5" y="-2048.4" font-family="Times Roman,serif" font-size="14.00">Connecting Wireless&#45;LAN Access Point</text>
</g>
<g id="graph3" class="cluster"><title>clusterFail</title>
<polygon fill="none" stroke="black" points="388,-86 388,-277 669,-277 669,-86 388,-86"/>
<text text-anchor="middle" x="528.5" y="-260.4" font-family="Times Roman,serif" font-size="14.00">Connecting Wireless&#45;LAN Access Point</text>
</g>
<g id="graph4" class="cluster"><title>clusterOPN</title>
<polygon fill="none" stroke="black" points="137,-1195 137,-1272 283,-1272 283,-1195 137,-1195"/>
<text text-anchor="middle" x="210" y="-1255.4" font-family="Times Roman,serif" font-size="14.00">OPN</text>
</g>
<g id="graph7" class="cluster"><title>clusterWEP</title>
<polygon fill="none" stroke="black" points="26,-620 26,-1165 257,-1165 257,-620 26,-620"/>
<text text-anchor="middle" x="141.5" y="-1148.4" font-family="Times Roman,serif" font-size="14.00">WEP</text>
</g>
<g id="graph11" class="cluster"><title>clusterWPA</title>
<polygon fill="none" stroke="black" points="267,-463 267,-1165 646,-1165 646,-463 267,-463"/>
<text text-anchor="middle" x="456.5" y="-1148.4" font-family="Times Roman,serif" font-size="14.00">WPA</text>
</g>
<g id="graph14" class="cluster"><title>clusterPSK</title>
<polygon fill="none" stroke="black" points="447,-471 447,-974 638,-974 638,-471 447,-471"/>
<text text-anchor="middle" x="542.5" y="-957.4" font-family="Times Roman,serif" font-size="14.00">PSK</text>
</g>
<g id="graph18" class="cluster"><title>clusterEAP</title>
<polygon fill="none" stroke="black" points="275,-620 275,-974 439,-974 439,-620 275,-620"/>
<text text-anchor="middle" x="357" y="-957.4" font-family="Times Roman,serif" font-size="14.00">EAP</text>
</g>
<!-- Impossible -->
<g id="node3" class="node"><title>Impossible</title>
<ellipse fill="none" stroke="black" cx="528" cy="-169" rx="69.8843" ry="70.3565"/>
<ellipse fill="none" stroke="black" cx="528" cy="-169" rx="73.8575" ry="74.3565"/>
<text text-anchor="middle" x="528" y="-166" font-family="Times Roman,serif" font-size="10.00">BluteForceAttack? :D</text>
</g>
<!-- End -->
<g id="node70" class="node"><title>End</title>
<polygon fill="none" stroke="black" points="284,-56 241.906,-26 326.094,-26 284,-56"/>
<text text-anchor="middle" x="284" y="-33" font-family="Times Roman,serif" font-size="10.00">End</text>
</g>
<!-- Impossible&#45;&gt;End -->
<g id="edge73" class="edge"><title>Impossible&#45;&gt;End</title>
<path fill="none" stroke="black" d="M481.216,-111.061C471.654,-101.717 461.095,-92.8716 450,-86 408.607,-60.3643 353.243,-47.1622 318.093,-40.9163"/>
<polygon fill="black" stroke="black" points="318.314,-37.4042 307.871,-39.1952 317.151,-44.3071 318.314,-37.4042"/>
</g>
<!-- NothingToDo -->
<g id="node6" class="node"><title>NothingToDo</title>
<polygon fill="none" stroke="black" points="210,-1239 145.018,-1221 210,-1203 274.982,-1221 210,-1239"/>
<text text-anchor="middle" x="210" y="-1218" font-family="Times Roman,serif" font-size="10.00">NothingToDo</text>
</g>
<!-- HasWebAuthentication -->
<g id="node86" class="node"><title>HasWebAuthentication</title>
<a xlink:href="http://www.slideshare.net/support_cyberoam/hotspot-authentication" xlink:title="HasWebAuthentication">
<polygon fill="none" stroke="black" points="266,-435 160.197,-417 266,-399 371.803,-417 266,-435"/>
<text text-anchor="middle" x="266" y="-414" font-family="Times Roman,serif" font-size="10.00">HasWebAuthentication</text>
</a>
</g>
<!-- NothingToDo&#45;&gt;HasWebAuthentication -->
<g id="edge111" class="edge"><title>NothingToDo&#45;&gt;HasWebAuthentication</title>
<path fill="none" stroke="black" d="M169.859,-1213.98C121.394,-1204.67 44.0025,-1186.83 25,-1165 9.93635,-1147.69 17,-1136.94 17,-1114 17,-1114 17,-1114 17,-497 17,-459.597 120.128,-437.203 193.646,-425.99"/>
<polygon fill="black" stroke="black" points="194.431,-429.412 203.809,-424.482 193.404,-422.488 194.431,-429.412"/>
</g>
<!-- ARPReplay -->
<g id="node10" class="node"><title>ARPReplay</title>
<polygon fill="none" stroke="black" points="249,-749 107,-749 107,-713 249,-713 249,-749"/>
<text text-anchor="middle" x="178" y="-728" font-family="Times Roman,serif" font-size="10.00">Perform ARP replay Attack</text>
</g>
<!-- CrackCredential_WEP -->
<g id="node14" class="node"><title>CrackCredential_WEP</title>
<polygon fill="none" stroke="black" points="224,-664 132,-664 132,-628 224,-628 224,-664"/>
<text text-anchor="middle" x="178" y="-643" font-family="Times Roman,serif" font-size="10.00">CrackCredential</text>
</g>
<!-- ARPReplay&#45;&gt;CrackCredential_WEP -->
<g id="edge25" class="edge"><title>ARPReplay&#45;&gt;CrackCredential_WEP</title>
<path fill="none" stroke="black" d="M178,-712.974C178,-701.704 178,-686.952 178,-674.163"/>
<polygon fill="black" stroke="black" points="181.5,-674 178,-664 174.5,-674 181.5,-674"/>
</g>
<!-- CaptureSomeDataPacket -->
<g id="node11" class="node"><title>CaptureSomeDataPacket</title>
<polygon fill="none" stroke="black" points="213,-1048 89,-1048 89,-1012 213,-1012 213,-1048"/>
<text text-anchor="middle" x="151" y="-1027" font-family="Times Roman,serif" font-size="10.00">Capture #Data Packet</text>
</g>
<!-- CouldGenerateXOR -->
<g id="node17" class="node"><title>CouldGenerateXOR</title>
<polygon fill="none" stroke="black" points="125,-941 34.0051,-923 125,-905 215.995,-923 125,-941"/>
<text text-anchor="middle" x="125" y="-920" font-family="Times Roman,serif" font-size="10.00">CouldGenerateXOR</text>
</g>
<!-- CaptureSomeDataPacket&#45;&gt;CouldGenerateXOR -->
<g id="edge15" class="edge"><title>CaptureSomeDataPacket&#45;&gt;CouldGenerateXOR</title>
<path fill="none" stroke="black" d="M146.589,-1011.85C142.463,-994.867 136.247,-969.285 131.543,-949.926"/>
<polygon fill="black" stroke="black" points="134.936,-949.067 129.174,-940.177 128.134,-950.72 134.936,-949.067"/>
</g>
<!-- ForgeARP -->
<g id="node12" class="node"><title>ForgeARP</title>
<polygon fill="none" stroke="black" points="237,-857 137,-857 137,-821 237,-821 237,-857"/>
<text text-anchor="middle" x="187" y="-836" font-family="Times Roman,serif" font-size="10.00">Forge ARP Packet</text>
</g>
<!-- ForgeARP&#45;&gt;ARPReplay -->
<g id="edge23" class="edge"><title>ForgeARP&#45;&gt;ARPReplay</title>
<path fill="none" stroke="black" d="M220.059,-820.739C226.088,-815.811 231.553,-809.895 235,-803 242.155,-788.689 242.723,-781.013 235,-767 232.652,-762.74 229.564,-758.914 226.038,-755.494"/>
<polygon fill="black" stroke="black" points="228.206,-752.744 218.282,-749.034 223.726,-758.123 228.206,-752.744"/>
</g>
<!-- BluteforceCRC -->
<g id="node13" class="node"><title>BluteforceCRC</title>
<polygon fill="none" stroke="black" points="234,-803 34,-803 34,-767 234,-767 234,-803"/>
<text text-anchor="middle" x="134" y="-782" font-family="Times Roman,serif" font-size="10.00">BluteForce Against a WEP Data Packet</text>
</g>
<!-- BluteforceCRC&#45;&gt;CrackCredential_WEP -->
<g id="edge21" class="edge"><title>BluteforceCRC&#45;&gt;CrackCredential_WEP</title>
<path fill="none" stroke="black" d="M114.721,-766.786C110.356,-761.511 106.326,-755.426 104,-749 98.5532,-733.956 97.5124,-727.626 104,-713 111.578,-695.917 125.902,-681.337 139.944,-670.183"/>
<polygon fill="black" stroke="black" points="142.246,-672.832 148.127,-664.019 138.034,-667.241 142.246,-672.832"/>
</g>
<!-- CrackCredential_WEP&#45;&gt;HasWebAuthentication -->
<g id="edge119" class="edge"><title>CrackCredential_WEP&#45;&gt;HasWebAuthentication</title>
<path fill="none" stroke="black" d="M185.053,-627.647C200.556,-587.304 237.655,-490.762 255.739,-443.701"/>
<polygon fill="black" stroke="black" points="259.077,-444.773 259.397,-434.183 252.543,-442.262 259.077,-444.773"/>
</g>
<!-- HasClient_WEP -->
<g id="node16" class="node"><title>HasClient_WEP</title>
<polygon fill="none" stroke="black" points="197,-1132 144.776,-1114 197,-1096 249.224,-1114 197,-1132"/>
<text text-anchor="middle" x="197" y="-1111" font-family="Times Roman,serif" font-size="10.00">HasClient</text>
</g>
<!-- HasClient_WEP&#45;&gt;ARPReplay -->
<g id="edge11" class="edge"><title>HasClient_WEP&#45;&gt;ARPReplay</title>
<path fill="none" stroke="black" d="M202.482,-1097.63C206.731,-1084.38 212.472,-1065.17 216,-1048 228.614,-986.611 271.269,-821.314 240,-767 237.53,-762.709 234.33,-758.882 230.687,-755.479"/>
<polygon fill="black" stroke="black" points="232.675,-752.587 222.679,-749.075 228.303,-758.054 232.675,-752.587"/>
<text text-anchor="middle" x="254.5" y="-920.4" font-family="Times Roman,serif" font-size="9.00">Yes.</text>
</g>
<!-- HasClient_WEP&#45;&gt;CaptureSomeDataPacket -->
<g id="edge13" class="edge"><title>HasClient_WEP&#45;&gt;CaptureSomeDataPacket</title>
<path fill="none" stroke="black" d="M188.563,-1098.59C182.241,-1087.05 173.425,-1070.95 165.922,-1057.25"/>
<polygon fill="black" stroke="black" points="168.858,-1055.32 160.985,-1048.23 162.718,-1058.69 168.858,-1055.32"/>
<text text-anchor="middle" x="185" y="-1069.4" font-family="Times Roman,serif" font-size="9.00">No.</text>
</g>
<!-- CouldGenerateXOR&#45;&gt;ForgeARP -->
<g id="edge17" class="edge"><title>CouldGenerateXOR&#45;&gt;ForgeARP</title>
<path fill="none" stroke="black" d="M136.662,-907.2C145.376,-895.393 157.486,-878.987 167.644,-865.225"/>
<polygon fill="black" stroke="black" points="170.546,-867.186 173.669,-857.062 164.914,-863.029 170.546,-867.186"/>
<text text-anchor="middle" x="169.5" y="-878.4" font-family="Times Roman,serif" font-size="9.00">Yes.</text>
</g>
<!-- CouldGenerateXOR&#45;&gt;BluteforceCRC -->
<g id="edge19" class="edge"><title>CouldGenerateXOR&#45;&gt;BluteforceCRC</title>
<path fill="none" stroke="black" d="M126.177,-904.959C127.699,-881.611 130.369,-840.674 132.161,-813.201"/>
<polygon fill="black" stroke="black" points="135.665,-813.252 132.823,-803.046 128.68,-812.797 135.665,-813.252"/>
<text text-anchor="middle" x="136" y="-878.4" font-family="Times Roman,serif" font-size="9.00">No.</text>
</g>
<!-- IsTKIP -->
<g id="node29" class="node"><title>IsTKIP</title>
<polygon fill="none" stroke="black" points="449,-1132 412.08,-1114 449,-1096 485.92,-1114 449,-1132"/>
<text text-anchor="middle" x="449" y="-1111" font-family="Times Roman,serif" font-size="10.00">IsTKIP</text>
</g>
<!-- IsPSK -->
<g id="node30" class="node"><title>IsPSK</title>
<polygon fill="none" stroke="black" points="511,-1048 474.933,-1030 511,-1012 547.067,-1030 511,-1048"/>
<text text-anchor="middle" x="511" y="-1027" font-family="Times Roman,serif" font-size="10.00">IsPSK</text>
</g>
<!-- IsTKIP&#45;&gt;IsPSK -->
<g id="edge32" class="edge"><title>IsTKIP&#45;&gt;IsPSK</title>
<path fill="none" stroke="black" d="M458.961,-1100.5C468.69,-1087.32 483.654,-1067.05 495.042,-1051.62"/>
<polygon fill="black" stroke="black" points="498.145,-1053.31 501.268,-1043.19 492.513,-1049.15 498.145,-1053.31"/>
<text text-anchor="middle" x="492" y="-1069.4" font-family="Times Roman,serif" font-size="9.00">No.</text>
</g>
<!-- HasWPS_PSK -->
<g id="node31" class="node"><title>HasWPS_PSK</title>
<a xlink:href="http://code.google.com/p/reaver-wps/source/browse/trunk/docs/README.WASH?r=87" xlink:title="HasWPS">
<polygon fill="none" stroke="black" points="512,-941 464.878,-923 512,-905 559.122,-923 512,-941"/>
<text text-anchor="middle" x="512" y="-920" font-family="Times Roman,serif" font-size="10.00">HasWPS</text>
</a>
</g>
<!-- IsTKIP&#45;&gt;HasWPS_PSK -->
<g id="edge30" class="edge"><title>IsTKIP&#45;&gt;HasWPS_PSK</title>
<path fill="none" stroke="black" d="M445.797,-1097.26C441.648,-1071.29 436.822,-1020.29 454,-982 461.283,-965.767 475.096,-951.43 487.416,-940.955"/>
<polygon fill="black" stroke="black" points="489.64,-943.658 495.213,-934.647 485.237,-938.216 489.64,-943.658"/>
<text text-anchor="middle" x="454.5" y="-1027.4" font-family="Times Roman,serif" font-size="9.00">Yes.</text>
</g>
<!-- IsPSK&#45;&gt;HasWPS_PSK -->
<g id="edge34" class="edge"><title>IsPSK&#45;&gt;HasWPS_PSK</title>
<path fill="none" stroke="black" d="M511.17,-1011.85C511.324,-995.324 511.555,-970.656 511.734,-951.502"/>
<polygon fill="black" stroke="black" points="515.236,-951.272 511.83,-941.24 508.236,-951.207 515.236,-951.272"/>
<text text-anchor="middle" x="521.5" y="-985.4" font-family="Times Roman,serif" font-size="9.00">Yes.</text>
</g>
<!-- HasClient_EAP -->
<g id="node32" class="node"><title>HasClient_EAP</title>
<polygon fill="none" stroke="black" points="379,-941 326.776,-923 379,-905 431.224,-923 379,-941"/>
<text text-anchor="middle" x="379" y="-920" font-family="Times Roman,serif" font-size="10.00">HasClient</text>
</g>
<!-- IsPSK&#45;&gt;HasClient_EAP -->
<g id="edge36" class="edge"><title>IsPSK&#45;&gt;HasClient_EAP</title>
<path fill="none" stroke="black" d="M496.874,-1018.55C474.331,-1000.28 429.979,-964.324 402.571,-942.107"/>
<polygon fill="black" stroke="black" points="404.625,-939.266 394.652,-935.688 400.217,-944.704 404.625,-939.266"/>
<text text-anchor="middle" x="473.5" y="-985.4" font-family="Times Roman,serif" font-size="9.00">NO.</text>
</g>
<!-- HasClient_PSK -->
<g id="node40" class="node"><title>HasClient_PSK</title>
<polygon fill="none" stroke="black" points="578,-749 525.776,-731 578,-713 630.224,-731 578,-749"/>
<text text-anchor="middle" x="578" y="-728" font-family="Times Roman,serif" font-size="10.00">HasClient</text>
</g>
<!-- HasWPS_PSK&#45;&gt;HasClient_PSK -->
<g id="edge48" class="edge"><title>HasWPS_PSK&#45;&gt;HasClient_PSK</title>
<path fill="none" stroke="black" d="M529.006,-911.409C544.507,-899.728 566.405,-880.149 576,-857 589.253,-825.027 586.89,-784.452 583.15,-758.117"/>
<polygon fill="black" stroke="black" points="586.585,-757.432 581.563,-748.103 579.671,-758.527 586.585,-757.432"/>
<text text-anchor="middle" x="593" y="-836.4" font-family="Times Roman,serif" font-size="9.00">No.</text>
</g>
<!-- IsWeakWPS -->
<g id="node41" class="node"><title>IsWeakWPS</title>
<a xlink:href="https://scotthelme.co.uk/wifi-insecurity-wps/" xlink:title="IsWeakWPS">
<polygon fill="none" stroke="black" points="514,-857 454.971,-839 514,-821 573.029,-839 514,-857"/>
<text text-anchor="middle" x="514" y="-836" font-family="Times Roman,serif" font-size="10.00">IsWeakWPS</text>
</a>
</g>
<!-- HasWPS_PSK&#45;&gt;IsWeakWPS -->
<g id="edge42" class="edge"><title>HasWPS_PSK&#45;&gt;IsWeakWPS</title>
<path fill="none" stroke="black" d="M512.434,-904.773C512.695,-893.801 513.033,-879.602 513.328,-867.205"/>
<polygon fill="black" stroke="black" points="516.835,-866.983 513.574,-856.903 509.837,-866.816 516.835,-866.983"/>
<text text-anchor="middle" x="523.5" y="-878.4" font-family="Times Roman,serif" font-size="9.00">Yes.</text>
</g>
<!-- HasClient_EAP&#45;&gt;Impossible -->
<g id="edge64" class="edge"><title>HasClient_EAP&#45;&gt;Impossible</title>
<path fill="none" stroke="black" d="M406.796,-914.4C418.756,-910.995 432.96,-907.342 446,-905 488.396,-897.385 605.779,-914.419 639,-887 656.139,-872.855 653,-861.222 653,-839 653,-839 653,-839 653,-333 653,-289.436 624.756,-250.232 595.12,-221.086"/>
<polygon fill="black" stroke="black" points="597.226,-218.259 587.571,-213.896 592.398,-223.328 597.226,-218.259"/>
<text text-anchor="middle" x="661" y="-568.4" font-family="Times Roman,serif" font-size="9.00">No.</text>
</g>
<!-- SetupRougeAP -->
<g id="node59" class="node"><title>SetupRougeAP</title>
<polygon fill="none" stroke="black" points="408,-857 322,-857 322,-821 408,-821 408,-857"/>
<text text-anchor="middle" x="365" y="-836" font-family="Times Roman,serif" font-size="10.00">SetupRougeAP</text>
</g>
<!-- HasClient_EAP&#45;&gt;SetupRougeAP -->
<g id="edge62" class="edge"><title>HasClient_EAP&#45;&gt;SetupRougeAP</title>
<path fill="none" stroke="black" d="M376.099,-905.595C374.26,-894.558 371.837,-880.021 369.724,-867.346"/>
<polygon fill="black" stroke="black" points="373.139,-866.543 368.042,-857.254 366.234,-867.694 373.139,-866.543"/>
<text text-anchor="middle" x="382.5" y="-878.4" font-family="Times Roman,serif" font-size="9.00">Yes.</text>
</g>
<!-- HasClient_PSK&#45;&gt;Impossible -->
<g id="edge52" class="edge"><title>HasClient_PSK&#45;&gt;Impossible</title>
<path fill="none" stroke="black" d="M592.206,-717.744C607.297,-702.155 629,-674.74 629,-646 629,-646 629,-646 629,-333 629,-311.551 632.304,-304.776 624,-285 615.486,-264.726 602.203,-245.251 588.203,-228.239"/>
<polygon fill="black" stroke="black" points="590.869,-225.971 581.735,-220.602 585.527,-230.495 590.869,-225.971"/>
<text text-anchor="middle" x="637" y="-494.4" font-family="Times Roman,serif" font-size="9.00">No.</text>
</g>
<!-- SetupRougeAccessPointOrDeauthClient -->
<g id="node43" class="node"><title>SetupRougeAccessPointOrDeauthClient</title>
<polygon fill="none" stroke="black" points="455,-628 455,-664 621,-664 621,-628 455,-628"/>
<text text-anchor="middle" x="498.5" y="-643" font-family="Times Roman,serif" font-size="10.00">SetupRougeAP</text>
<polyline fill="none" stroke="black" points="542,-628 542,-664 "/>
<text text-anchor="middle" x="581.5" y="-643" font-family="Times Roman,serif" font-size="10.00">DeauthClient</text>
</g>
<!-- HasClient_PSK&#45;&gt;SetupRougeAccessPointOrDeauthClient -->
<g id="edge50" class="edge"><title>HasClient_PSK&#45;&gt;SetupRougeAccessPointOrDeauthClient</title>
<path fill="none" stroke="black" d="M570.663,-715.41C565.129,-703.65 557.397,-687.22 550.846,-673.297"/>
<polygon fill="black" stroke="black" points="553.964,-671.705 546.54,-664.147 547.631,-674.685 553.964,-671.705"/>
<text text-anchor="middle" x="570.5" y="-686.4" font-family="Times Roman,serif" font-size="9.00">Yes.</text>
</g>
<!-- IsWeakWPS&#45;&gt;HasClient_PSK -->
<g id="edge46" class="edge"><title>IsWeakWPS&#45;&gt;HasClient_PSK</title>
<path fill="none" stroke="black" d="M523.17,-823.526C533.828,-805.54 551.537,-775.657 563.937,-754.731"/>
<polygon fill="black" stroke="black" points="566.967,-756.484 569.054,-746.097 560.945,-752.915 566.967,-756.484"/>
<text text-anchor="middle" x="564" y="-782.4" font-family="Times Roman,serif" font-size="9.00">No.</text>
</g>
<!-- CrackWPS -->
<g id="node46" class="node"><title>CrackWPS</title>
<a xlink:href="http://lifehacker.com/5873407/how-to-crack-a-wi-fi-networks-wpa-password-with-reaver" xlink:title="CrackWPS">
<polygon fill="none" stroke="black" points="519,-749 455,-749 455,-713 519,-713 519,-749"/>
<text text-anchor="middle" x="487" y="-728" font-family="Times Roman,serif" font-size="10.00">CrackWPS</text>
</a>
</g>
<!-- IsWeakWPS&#45;&gt;CrackWPS -->
<g id="edge44" class="edge"><title>IsWeakWPS&#45;&gt;CrackWPS</title>
<path fill="none" stroke="black" d="M509.781,-822.125C505.563,-805.251 499.001,-779.004 494.001,-759.005"/>
<polygon fill="black" stroke="black" points="497.371,-758.051 491.55,-749.199 490.58,-759.749 497.371,-758.051"/>
<text text-anchor="middle" x="514.5" y="-782.4" font-family="Times Roman,serif" font-size="9.00">Yes.</text>
</g>
<!-- StealHandShake -->
<g id="node44" class="node"><title>StealHandShake</title>
<polygon fill="none" stroke="black" points="567,-589 471,-589 471,-553 567,-553 567,-589"/>
<text text-anchor="middle" x="519" y="-568" font-family="Times Roman,serif" font-size="10.00">StealHandShake</text>
</g>
<!-- SetupRougeAccessPointOrDeauthClient&#45;&gt;StealHandShake -->
<g id="edge54" class="edge"><title>SetupRougeAccessPointOrDeauthClient&#45;&gt;StealHandShake</title>
<path fill="none" stroke="black" d="M535.263,-627.629C534.14,-621.075 532.7,-613.666 531,-607 530.321,-604.339 529.546,-601.59 528.722,-598.852"/>
<polygon fill="black" stroke="black" points="532.003,-597.619 525.621,-589.163 525.336,-599.754 532.003,-597.619"/>
</g>
<!-- CrackCredential_PSK -->
<g id="node45" class="node"><title>CrackCredential_PSK</title>
<polygon fill="none" stroke="black" points="550,-515 458,-515 458,-479 550,-479 550,-515"/>
<text text-anchor="middle" x="504" y="-494" font-family="Times Roman,serif" font-size="10.00">CrackCredential</text>
</g>
<!-- StealHandShake&#45;&gt;CrackCredential_PSK -->
<g id="edge56" class="edge"><title>StealHandShake&#45;&gt;CrackCredential_PSK</title>
<path fill="none" stroke="black" d="M515.292,-552.708C513.603,-544.374 511.565,-534.322 509.689,-525.063"/>
<polygon fill="black" stroke="black" points="513.082,-524.187 507.665,-515.082 506.222,-525.578 513.082,-524.187"/>
</g>
<!-- CrackCredential_PSK&#45;&gt;HasWebAuthentication -->
<g id="edge115" class="edge"><title>CrackCredential_PSK&#45;&gt;HasWebAuthentication</title>
<path fill="none" stroke="black" d="M481.113,-478.911C472.93,-473.144 463.399,-467.181 454,-463 415.554,-445.897 369.736,-434.519 332.957,-427.358"/>
<polygon fill="black" stroke="black" points="333.313,-423.864 322.837,-425.449 332.015,-430.742 333.313,-423.864"/>
</g>
<!-- CrackWPS&#45;&gt;HasWebAuthentication -->
<g id="edge113" class="edge"><title>CrackWPS&#45;&gt;HasWebAuthentication</title>
<path fill="none" stroke="black" d="M454.767,-718.245C449.845,-716.417 444.805,-714.612 440,-713 361.433,-686.648 266,-728.868 266,-646 266,-646 266,-646 266,-497 266,-479.9 266,-460.745 266,-445.466"/>
<polygon fill="black" stroke="black" points="269.5,-445.11 266,-435.11 262.5,-445.11 269.5,-445.11"/>
</g>
<!-- CaptureChallangeResponse -->
<g id="node60" class="node"><title>CaptureChallangeResponse</title>
<polygon fill="none" stroke="black" points="431,-749 283,-749 283,-713 431,-713 431,-749"/>
<text text-anchor="middle" x="357" y="-728" font-family="Times Roman,serif" font-size="10.00">CaptureChallangeResponse</text>
</g>
<!-- SetupRougeAP&#45;&gt;CaptureChallangeResponse -->
<g id="edge66" class="edge"><title>SetupRougeAP&#45;&gt;CaptureChallangeResponse</title>
<path fill="none" stroke="black" d="M363.643,-820.679C362.394,-803.821 360.523,-778.565 359.085,-759.147"/>
<polygon fill="black" stroke="black" points="362.566,-758.764 358.337,-749.05 355.585,-759.281 362.566,-758.764"/>
</g>
<!-- CrackCredential_EAP -->
<g id="node61" class="node"><title>CrackCredential_EAP</title>
<polygon fill="none" stroke="black" points="382,-664 290,-664 290,-628 382,-628 382,-664"/>
<text text-anchor="middle" x="336" y="-643" font-family="Times Roman,serif" font-size="10.00">CrackCredential</text>
</g>
<!-- CaptureChallangeResponse&#45;&gt;CrackCredential_EAP -->
<g id="edge68" class="edge"><title>CaptureChallangeResponse&#45;&gt;CrackCredential_EAP</title>
<path fill="none" stroke="black" d="M352.546,-712.974C349.734,-701.592 346.045,-686.657 342.863,-673.78"/>
<polygon fill="black" stroke="black" points="346.244,-672.869 340.447,-664 339.448,-674.548 346.244,-672.869"/>
</g>
<!-- CrackCredential_EAP&#45;&gt;HasWebAuthentication -->
<g id="edge117" class="edge"><title>CrackCredential_EAP&#45;&gt;HasWebAuthentication</title>
<path fill="none" stroke="black" d="M330.39,-627.647C318.084,-587.389 288.671,-491.167 274.253,-443.998"/>
<polygon fill="black" stroke="black" points="277.523,-442.723 271.252,-434.183 270.829,-444.769 277.523,-442.723"/>
</g>
<!-- Start -->
<g id="node68" class="node"><title>Start</title>
<polygon fill="none" stroke="black" points="543,-1992 591.812,-2022 494.188,-2022 543,-1992"/>
<text text-anchor="middle" x="543" y="-2009" font-family="Times Roman,serif" font-size="10.00">Start</text>
</g>
<!-- HasAccessPointsAroundYou -->
<g id="node80" class="node"><title>HasAccessPointsAroundYou</title>
<a xlink:href="http://www.aircrack-ng.org/doku.php?id=airodump-ng" xlink:title="HasAccessPointsAroundYou">
<polygon fill="none" stroke="black" points="543,-1938 416.788,-1920 543,-1902 669.212,-1920 543,-1938"/>
<text text-anchor="middle" x="543" y="-1917" font-family="Times Roman,serif" font-size="10.00">HasAccessPointsAroundYou</text>
</a>
</g>
<!-- Start&#45;&gt;HasAccessPointsAroundYou -->
<g id="edge79" class="edge"><title>Start&#45;&gt;HasAccessPointsAroundYou</title>
<path fill="none" stroke="black" d="M536.031,-1995.74C532.47,-1985.55 529.224,-1972.1 531,-1960 531.628,-1955.72 532.614,-1951.27 533.758,-1946.95"/>
<polygon fill="black" stroke="black" points="537.14,-1947.86 536.618,-1937.27 530.427,-1945.87 537.14,-1947.86"/>
<text text-anchor="middle" x="542" y="-1963.4" font-family="Times Roman,serif" font-size="9.00">Fine.</text>
</g>
<!-- ImproveYourWifiAntenna -->
<g id="node75" class="node"><title>ImproveYourWifiAntenna</title>
<a xlink:href="http://www.instructables.com/id/DIY-WIFI-Antenna-Reception-Booster/" xlink:title="ImproveYourWifiAntenna">
<polygon fill="none" stroke="black" points="669,-1850 539,-1850 539,-1814 669,-1814 669,-1850"/>
<text text-anchor="middle" x="604" y="-1829" font-family="Times Roman,serif" font-size="10.00">ImproveYourWifiAntenna</text>
</a>
</g>
<!-- IsStealthESSID -->
<g id="node81" class="node"><title>IsStealthESSID</title>
<a xlink:href="http://securitysynapse.blogspot.jp/2014/01/wireless-pentesting-on-cheap-kali-hiddenSSID.html" xlink:title="IsStealthESSID">
<polygon fill="none" stroke="black" points="594,-1766 519.163,-1748 594,-1730 668.837,-1748 594,-1766"/>
<text text-anchor="middle" x="594" y="-1745" font-family="Times Roman,serif" font-size="10.00">IsStealthESSID</text>
</a>
</g>
<!-- ImproveYourWifiAntenna&#45;&gt;IsStealthESSID -->
<g id="edge85" class="edge"><title>ImproveYourWifiAntenna&#45;&gt;IsStealthESSID</title>
<path fill="none" stroke="black" d="M574.095,-1813.69C568.395,-1808.71 563.212,-1802.78 560,-1796 555.446,-1786.39 560.222,-1776.66 567.491,-1768.49"/>
<polygon fill="black" stroke="black" points="569.962,-1770.97 574.671,-1761.48 565.071,-1765.96 569.962,-1770.97"/>
<text text-anchor="middle" x="584.5" y="-1787.4" font-family="Times Roman,serif" font-size="9.00">OK I got it.</text>
</g>
<!-- DeauthAllClient -->
<g id="node76" class="node"><title>DeauthAllClient</title>
<a xlink:href="http://www.aircrack-ng.org/doku.php?id=deauthentication" xlink:title="DeauthAllClient">
<polygon fill="none" stroke="black" points="581,-1598 491,-1598 491,-1562 581,-1562 581,-1598"/>
<text text-anchor="middle" x="536" y="-1577" font-family="Times Roman,serif" font-size="10.00">DeauthAllClient</text>
</a>
</g>
<!-- HasHardwareAddressFiltering -->
<g id="node83" class="node"><title>HasHardwareAddressFiltering</title>
<a xlink:href="http://synjunkie.blogspot.jp/2007/12/bypass-hidden-ssid-mac-address-filter.html" xlink:title="HasHardwareAddressFiltering">
<polygon fill="none" stroke="black" points="536,-1514 402.984,-1496 536,-1478 669.016,-1496 536,-1514"/>
<text text-anchor="middle" x="536" y="-1493" font-family="Times Roman,serif" font-size="10.00">HasHardwareAddressFiltering</text>
</a>
</g>
<!-- DeauthAllClient&#45;&gt;HasHardwareAddressFiltering -->
<g id="edge95" class="edge"><title>DeauthAllClient&#45;&gt;HasHardwareAddressFiltering</title>
<path fill="none" stroke="black" d="M536,-1561.77C536,-1550.88 536,-1536.79 536,-1524.46"/>
<polygon fill="black" stroke="black" points="539.5,-1524.19 536,-1514.19 532.5,-1524.19 539.5,-1524.19"/>
<text text-anchor="middle" x="563.5" y="-1535.4" font-family="Times Roman,serif" font-size="9.00">I got ESSID.</text>
</g>
<!-- SpoofHardwareAddress -->
<g id="node77" class="node"><title>SpoofHardwareAddress</title>
<a xlink:href="http://www.securethelock.com/2013/12/03/how-to-bypass-mac-address-filtering-using-backtrackkali-linux/" xlink:title="SpoofHardwareAddress">
<polygon fill="none" stroke="black" points="600,-1430 472,-1430 472,-1394 600,-1394 600,-1430"/>
<text text-anchor="middle" x="536" y="-1409" font-family="Times Roman,serif" font-size="10.00">SpoofHardwareAddress</text>
</a>
</g>
<!-- HasEncryption -->
<g id="node84" class="node"><title>HasEncryption</title>
<a xlink:href="http://www.dummies.com/how-to/content/wireless-security-protocols-wep-wpa-and-wpa2.html" xlink:title="HasEncryption">
<polygon fill="none" stroke="black" points="449,-1346 375.864,-1328 449,-1310 522.136,-1328 449,-1346"/>
<text text-anchor="middle" x="449" y="-1325" font-family="Times Roman,serif" font-size="10.00">HasEncryption</text>
</a>
</g>
<!-- SpoofHardwareAddress&#45;&gt;HasEncryption -->
<g id="edge101" class="edge"><title>SpoofHardwareAddress&#45;&gt;HasEncryption</title>
<path fill="none" stroke="black" d="M517.122,-1393.77C503.713,-1380.83 485.65,-1363.39 471.493,-1349.72"/>
<polygon fill="black" stroke="black" points="473.71,-1346.99 464.084,-1342.56 468.847,-1352.03 473.71,-1346.99"/>
<text text-anchor="middle" x="586.5" y="-1367.4" font-family="Times Roman,serif" font-size="9.00">I could associate with AP(or WEP&#45;SKA.</text>
</g>
<!-- SpoofHardwareAddress2 -->
<g id="node78" class="node"><title>SpoofHardwareAddress2</title>
<a xlink:href="http://www.securethelock.com/2013/12/03/how-to-bypass-mac-address-filtering-using-backtrackkali-linux/" xlink:title="SpoofHardwareAddressToClient&#39;sOne">
<polygon fill="none" stroke="black" points="380,-187 188,-187 188,-151 380,-151 380,-187"/>
<text text-anchor="middle" x="284" y="-166" font-family="Times Roman,serif" font-size="10.00">SpoofHardwareAddressToClient&#39;sOne</text>
</a>
</g>
<!-- SpoofHardwareAddress2&#45;&gt;End -->
<g id="edge131" class="edge"><title>SpoofHardwareAddress2&#45;&gt;End</title>
<path fill="none" stroke="black" d="M284,-150.786C284,-129.026 284,-92.301 284,-66.256"/>
<polygon fill="black" stroke="black" points="287.5,-66.1659 284,-56.166 280.5,-66.166 287.5,-66.1659"/>
</g>
<!-- HasAccessPointsAroundYou&#45;&gt;ImproveYourWifiAntenna -->
<g id="edge83" class="edge"><title>HasAccessPointsAroundYou&#45;&gt;ImproveYourWifiAntenna</title>
<path fill="none" stroke="black" d="M549.531,-1902.81C553.944,-1892.27 560.352,-1878.79 568,-1868 570.473,-1864.51 573.297,-1861.06 576.251,-1857.75"/>
<polygon fill="black" stroke="black" points="578.935,-1860 583.275,-1850.34 573.855,-1855.19 578.935,-1860"/>
<text text-anchor="middle" x="576" y="-1871.4" font-family="Times Roman,serif" font-size="9.00">No.</text>
</g>
<!-- HasAccessPointsAroundYou&#45;&gt;IsStealthESSID -->
<g id="edge81" class="edge"><title>HasAccessPointsAroundYou&#45;&gt;IsStealthESSID</title>
<path fill="none" stroke="black" d="M532.827,-1903.18C521.241,-1881.7 505.554,-1843.74 519,-1814 527.982,-1794.13 546.23,-1777.86 562.477,-1766.44"/>
<polygon fill="black" stroke="black" points="564.847,-1769.07 571.225,-1760.61 560.963,-1763.25 564.847,-1769.07"/>
<text text-anchor="middle" x="527" y="-1829.4" font-family="Times Roman,serif" font-size="9.00">Yes</text>
</g>
<!-- IsThereConnectedClient -->
<g id="node82" class="node"><title>IsThereConnectedClient</title>
<a xlink:href="http://blackhat6969.blogspot.jp/2012/09/down-and-dirty-wifi-cracking-with.html" xlink:title="IsThereConnectedClient">
<polygon fill="none" stroke="black" points="473,-1682 362.946,-1664 473,-1646 583.054,-1664 473,-1682"/>
<text text-anchor="middle" x="473" y="-1661" font-family="Times Roman,serif" font-size="10.00">IsThereConnectedClient</text>
</a>
</g>
<!-- IsStealthESSID&#45;&gt;IsThereConnectedClient -->
<g id="edge87" class="edge"><title>IsStealthESSID&#45;&gt;IsThereConnectedClient</title>
<path fill="none" stroke="black" d="M574.559,-1734.5C555.097,-1720.99 524.902,-1700.03 502.489,-1684.47"/>
<polygon fill="black" stroke="black" points="504.229,-1681.42 494.018,-1678.59 500.237,-1687.17 504.229,-1681.42"/>
<text text-anchor="middle" x="550.5" y="-1703.4" font-family="Times Roman,serif" font-size="9.00">Yes.</text>
</g>
<!-- IsStealthESSID&#45;&gt;HasHardwareAddressFiltering -->
<g id="edge93" class="edge"><title>IsStealthESSID&#45;&gt;HasHardwareAddressFiltering</title>
<path fill="none" stroke="black" d="M602.29,-1731.97C608.551,-1718.91 616.623,-1699.79 620,-1682 622.985,-1666.28 621.922,-1661.88 620,-1646 613.732,-1594.21 622.321,-1574.46 592,-1532 587.567,-1525.79 581.697,-1520.39 575.427,-1515.8"/>
<polygon fill="black" stroke="black" points="576.993,-1512.64 566.725,-1510.03 573.126,-1518.47 576.993,-1512.64"/>
<text text-anchor="middle" x="627" y="-1619.4" font-family="Times Roman,serif" font-size="9.00">No.</text>
</g>
<!-- IsThereConnectedClient&#45;&gt;DeauthAllClient -->
<g id="edge89" class="edge"><title>IsThereConnectedClient&#45;&gt;DeauthAllClient</title>
<path fill="none" stroke="black" d="M485.147,-1647.8C493.971,-1636.04 506.103,-1619.86 516.304,-1606.26"/>
<polygon fill="black" stroke="black" points="519.159,-1608.29 522.359,-1598.19 513.559,-1604.09 519.159,-1608.29"/>
<text text-anchor="middle" x="518.5" y="-1619.4" font-family="Times Roman,serif" font-size="9.00">Yes.</text>
</g>
<!-- IsThereConnectedClient&#45;&gt;IsThereConnectedClient -->
<g id="edge91" class="edge"><title>IsThereConnectedClient&#45;&gt;IsThereConnectedClient</title>
<path fill="none" stroke="black" d="M535.891,-1671.73C564.803,-1672.54 590,-1669.97 590,-1664 590,-1658.75 570.536,-1656.13 546.193,-1656.13"/>
<polygon fill="black" stroke="black" points="545.84,-1652.63 535.891,-1656.27 545.94,-1659.63 545.84,-1652.63"/>
<text text-anchor="middle" x="598" y="-1661.4" font-family="Times Roman,serif" font-size="9.00">No.</text>
</g>
<!-- HasHardwareAddressFiltering&#45;&gt;SpoofHardwareAddress -->
<g id="edge97" class="edge"><title>HasHardwareAddressFiltering&#45;&gt;SpoofHardwareAddress</title>
<path fill="none" stroke="black" d="M530.145,-1478.75C527.721,-1469.65 525.736,-1458.27 527,-1448 527.317,-1445.43 527.757,-1442.77 528.273,-1440.13"/>
<polygon fill="black" stroke="black" points="531.736,-1440.68 530.543,-1430.15 524.911,-1439.12 531.736,-1440.68"/>
<text text-anchor="middle" x="536.5" y="-1451.4" font-family="Times Roman,serif" font-size="9.00">Yes.</text>
</g>
<!-- HasHardwareAddressFiltering&#45;&gt;HasEncryption -->
<g id="edge99" class="edge"><title>HasHardwareAddressFiltering&#45;&gt;HasEncryption</title>
<path fill="none" stroke="black" d="M507.091,-1481.91C487.718,-1470.75 463.692,-1453.18 452,-1430 440.33,-1406.86 441.017,-1376.86 443.75,-1355.4"/>
<polygon fill="black" stroke="black" points="447.239,-1355.73 445.261,-1345.32 440.316,-1354.69 447.239,-1355.73"/>
<text text-anchor="middle" x="460" y="-1409.4" font-family="Times Roman,serif" font-size="9.00">No.</text>
</g>
<!-- HasEncryption&#45;&gt;NothingToDo -->
<g id="edge103" class="edge"><title>HasEncryption&#45;&gt;NothingToDo</title>
<path fill="none" stroke="black" d="M411.155,-1319.24C375.765,-1310.19 322.056,-1294.27 279,-1272 262.828,-1263.63 246.37,-1251.63 233.585,-1241.37"/>
<polygon fill="black" stroke="black" points="235.702,-1238.58 225.754,-1234.94 231.258,-1243.99 235.702,-1238.58"/>
<text text-anchor="middle" x="332" y="-1283.4" font-family="Times Roman,serif" font-size="9.00">No.</text>
</g>
<!-- IsWEP -->
<g id="node85" class="node"><title>IsWEP</title>
<a xlink:href="http://www.howtogeek.com/167783/htg-explains-the-difference-between-wep-wpa-and-wpa2-wireless-encryption-and-why-it-matters/" xlink:title="IsWEP">
<polygon fill="none" stroke="black" points="449,-1239 412.08,-1221 449,-1203 485.92,-1221 449,-1239"/>
<text text-anchor="middle" x="449" y="-1218" font-family="Times Roman,serif" font-size="10.00">IsWEP</text>
</a>
</g>
<!-- HasEncryption&#45;&gt;IsWEP -->
<g id="edge105" class="edge"><title>HasEncryption&#45;&gt;IsWEP</title>
<path fill="none" stroke="black" d="M449,-1309.85C449,-1293.32 449,-1268.66 449,-1249.5"/>
<polygon fill="black" stroke="black" points="452.5,-1249.24 449,-1239.24 445.5,-1249.24 452.5,-1249.24"/>
<text text-anchor="middle" x="458.5" y="-1283.4" font-family="Times Roman,serif" font-size="9.00">Yes.</text>
</g>
<!-- IsWEP&#45;&gt;HasClient_WEP -->
<g id="edge107" class="edge"><title>IsWEP&#45;&gt;HasClient_WEP</title>
<path fill="none" stroke="black" d="M422.478,-1215.85C385.895,-1208.1 318.518,-1191.46 266,-1165 249.304,-1156.59 232.394,-1144.17 219.493,-1133.69"/>
<polygon fill="black" stroke="black" points="221.561,-1130.85 211.637,-1127.14 217.081,-1136.23 221.561,-1130.85"/>
<text text-anchor="middle" x="319.5" y="-1176.4" font-family="Times Roman,serif" font-size="9.00">Yes.</text>
</g>
<!-- IsWEP&#45;&gt;IsTKIP -->
<g id="edge109" class="edge"><title>IsWEP&#45;&gt;IsTKIP</title>
<path fill="none" stroke="black" d="M449,-1202.85C449,-1186.32 449,-1161.66 449,-1142.5"/>
<polygon fill="black" stroke="black" points="452.5,-1142.24 449,-1132.24 445.5,-1142.24 452.5,-1142.24"/>
<text text-anchor="middle" x="457" y="-1176.4" font-family="Times Roman,serif" font-size="9.00">No.</text>
</g>
<!-- HasAccount -->
<g id="node87" class="node"><title>HasAccount</title>
<polygon fill="none" stroke="black" points="180,-351 117.069,-333 180,-315 242.931,-333 180,-351"/>
<text text-anchor="middle" x="180" y="-330" font-family="Times Roman,serif" font-size="10.00">HasAccount</text>
</g>
<!-- HasWebAuthentication&#45;&gt;HasAccount -->
<g id="edge121" class="edge"><title>HasWebAuthentication&#45;&gt;HasAccount</title>
<path fill="none" stroke="black" d="M250.226,-401.593C236.682,-388.364 217.016,-369.155 201.938,-354.428"/>
<polygon fill="black" stroke="black" points="204.127,-351.674 194.528,-347.19 199.236,-356.681 204.127,-351.674"/>
<text text-anchor="middle" x="238.5" y="-372.4" font-family="Times Roman,serif" font-size="9.00">Yes.</text>
</g>
<!-- HasClient_Web -->
<g id="node88" class="node"><title>HasClient_Web</title>
<polygon fill="none" stroke="black" points="391,-351 249.83,-333 391,-315 532.17,-333 391,-351"/>
<text text-anchor="middle" x="391" y="-330" font-family="Times Roman,serif" font-size="10.00">HasAlreadyAuthenticatedClient</text>
</g>
<!-- HasWebAuthentication&#45;&gt;HasClient_Web -->
<g id="edge123" class="edge"><title>HasWebAuthentication&#45;&gt;HasClient_Web</title>
<path fill="none" stroke="black" d="M287.488,-402.56C307.331,-389.226 337.048,-369.256 359.558,-354.129"/>
<polygon fill="black" stroke="black" points="361.754,-356.87 368.101,-348.388 357.849,-351.06 361.754,-356.87"/>
<text text-anchor="middle" x="344" y="-372.4" font-family="Times Roman,serif" font-size="9.00">No.</text>
</g>
<!-- HasAccount&#45;&gt;End -->
<g id="edge129" class="edge"><title>HasAccount&#45;&gt;End</title>
<path fill="none" stroke="black" d="M174.94,-316.357C163.135,-274.04 138.17,-160.417 185,-86 199.74,-62.5764 229.136,-49.6939 252.084,-42.8996"/>
<polygon fill="black" stroke="black" points="253.045,-46.2654 261.78,-40.2688 251.212,-39.5097 253.045,-46.2654"/>
</g>
<!-- HasClient_Web&#45;&gt;Impossible -->
<g id="edge127" class="edge"><title>HasClient_Web&#45;&gt;Impossible</title>
<path fill="none" stroke="black" d="M409.404,-317.152C421.496,-306.36 437.357,-291.459 450,-277 460.401,-265.104 470.806,-251.866 480.472,-238.849"/>
<polygon fill="black" stroke="black" points="483.294,-240.919 486.388,-230.786 477.65,-236.778 483.294,-240.919"/>
<text text-anchor="middle" x="451" y="-288.4" font-family="Times Roman,serif" font-size="9.00">No.</text>
</g>
<!-- HasClient_Web&#45;&gt;SpoofHardwareAddress2 -->
<g id="edge125" class="edge"><title>HasClient_Web&#45;&gt;SpoofHardwareAddress2</title>
<path fill="none" stroke="black" d="M380.151,-316.372C361.618,-287.966 323.707,-229.86 301.426,-195.708"/>
<polygon fill="black" stroke="black" points="304.247,-193.628 295.852,-187.165 298.385,-197.453 304.247,-193.628"/>
<text text-anchor="middle" x="375.5" y="-288.4" font-family="Times Roman,serif" font-size="9.00">Yes.</text>
</g>
<!-- HasAccessPointsAroundYouCommand -->
<g id="node119" class="node"><title>HasAccessPointsAroundYouCommand</title>
<polygon fill="none" stroke="black" points="945,-2034 685,-2034 685,-1990 945,-1990 945,-2034"/>
<text text-anchor="middle" x="815" y="-2021" font-family="Times Roman,serif" font-size="10.00">ifconfig wlan0 down;</text>
<text text-anchor="middle" x="815" y="-2009" font-family="Times Roman,serif" font-size="10.00">iwconfig wlan0 mode mon || airmon&#45;ng start wlan0;</text>
<text text-anchor="middle" x="815" y="-1997" font-family="Times Roman,serif" font-size="10.00">airodump&#45;ng wlan0;</text>
</g>
<!-- HasAccessPointsAroundYouCommand&#45;&gt;HasAccessPointsAroundYou -->
<g id="edge136" class="edge"><title>HasAccessPointsAroundYouCommand&#45;&gt;HasAccessPointsAroundYou</title>
<path fill="none" stroke="gray" d="M749.849,-1989.96C700.755,-1973.36 634.57,-1950.97 590.424,-1936.04"/>
<polygon fill="gray" stroke="gray" points="591.397,-1932.67 580.803,-1932.79 589.154,-1939.31 591.397,-1932.67"/>
</g>
<!-- ImproveYourWifiAntennaCommand -->
<g id="node120" class="node"><title>ImproveYourWifiAntennaCommand</title>
<polygon fill="none" stroke="black" points="799,-1942 685,-1942 685,-1898 799,-1898 799,-1942"/>
<text text-anchor="middle" x="742" y="-1929" font-family="Times Roman,serif" font-size="10.00">iw reg set BO;</text>
<text text-anchor="middle" x="742" y="-1917" font-family="Times Roman,serif" font-size="10.00">iwconfig wlan0 tx 30;</text>
<text text-anchor="middle" x="742" y="-1905" font-family="Times Roman,serif" font-size="10.00">#Add DIY Parabora.</text>
</g>
<!-- ImproveYourWifiAntennaCommand&#45;&gt;ImproveYourWifiAntenna -->
<g id="edge138" class="edge"><title>ImproveYourWifiAntennaCommand&#45;&gt;ImproveYourWifiAntenna</title>
<path fill="none" stroke="gray" d="M707.177,-1897.79C686.916,-1884.87 661.395,-1868.6 640.804,-1855.47"/>
<polygon fill="gray" stroke="gray" points="642.625,-1852.48 632.312,-1850.05 638.861,-1858.38 642.625,-1852.48"/>
</g>
<!-- IsStealthESSIDCommand -->
<g id="node121" class="node"><title>IsStealthESSIDCommand</title>
<polygon fill="none" stroke="black" points="935,-1850 685,-1850 685,-1814 935,-1814 935,-1850"/>
<text text-anchor="middle" x="810" y="-1829" font-family="Times Roman,serif" font-size="10.00">airodump&#45;ng &#45;c [channel] &#45;&#45;bssid [AP MAC] wlan0</text>
</g>
<!-- IsStealthESSIDCommand&#45;&gt;IsStealthESSID -->
<g id="edge140" class="edge"><title>IsStealthESSIDCommand&#45;&gt;IsStealthESSID</title>
<path fill="none" stroke="gray" d="M763.663,-1813.98C724.404,-1798.71 668.798,-1777.09 632.089,-1762.81"/>
<polygon fill="gray" stroke="gray" points="633.314,-1759.53 622.726,-1759.17 630.777,-1766.06 633.314,-1759.53"/>
</g>
<!-- DeauthAllClientCommand -->
<g id="node122" class="node"><title>DeauthAllClientCommand</title>
<polygon fill="none" stroke="black" points="935,-1682 685,-1682 685,-1646 935,-1646 935,-1682"/>
<text text-anchor="middle" x="810" y="-1667" font-family="Times Roman,serif" font-size="10.00">aireplay&#45;ng &#45;0 0 &#45;a [AP MAC] wlan0;</text>
<text text-anchor="middle" x="810" y="-1655" font-family="Times Roman,serif" font-size="10.00">aireplay&#45;ng &#45;0 0 &#45;a [AP MAC] &#45;c [STA MAC] wlan0;</text>
</g>
<!-- DeauthAllClientCommand&#45;&gt;DeauthAllClient -->
<g id="edge142" class="edge"><title>DeauthAllClientCommand&#45;&gt;DeauthAllClient</title>
<path fill="none" stroke="gray" d="M751.22,-1645.98C703.656,-1631.4 637.173,-1611.02 590.728,-1596.78"/>
<polygon fill="gray" stroke="gray" points="591.722,-1593.42 581.135,-1593.84 589.67,-1600.11 591.722,-1593.42"/>
</g>
<!-- SpoofHardwareAddressCommand -->
<g id="node123" class="node"><title>SpoofHardwareAddressCommand</title>
<polygon fill="none" stroke="black" points="1029,-1514 685,-1514 685,-1478 1029,-1478 1029,-1514"/>
<text text-anchor="middle" x="857" y="-1499" font-family="Times Roman,serif" font-size="10.00">ifconfig wlan0 down &amp;&amp; ifconfig hw ether [MAC] &amp;&amp; ifconfig wlan0 up;</text>
<text text-anchor="middle" x="857" y="-1487" font-family="Times Roman,serif" font-size="10.00">macchanger &#45;m [MAC] wlan0;</text>
</g>
<!-- SpoofHardwareAddressCommand&#45;&gt;SpoofHardwareAddress -->
<g id="edge144" class="edge"><title>SpoofHardwareAddressCommand&#45;&gt;SpoofHardwareAddress</title>
<path fill="none" stroke="gray" d="M788.137,-1477.98C735.676,-1464.25 663.572,-1445.38 609.905,-1431.34"/>
<polygon fill="gray" stroke="gray" points="610.668,-1427.92 600.107,-1428.78 608.895,-1434.69 610.668,-1427.92"/>
</g>
</g>
</svg>
