<?xml version="1.0" encoding="UTF-8" standalone="no"?>
<!DOCTYPE svg PUBLIC "-//W3C//DTD SVG 1.1//EN"
 "http://www.w3.org/Graphics/SVG/1.1/DTD/svg11.dtd">
<!-- Generated by graphviz version 2.26.3 (20100126.1600)
 -->
<!-- Title: Diagram Pages: 1 -->
<svg width="1367pt" height="1268pt"
 viewBox="0.00 0.00 1367.00 1268.00" xmlns="http://www.w3.org/2000/svg" xmlns:xlink="http://www.w3.org/1999/xlink">
<g id="graph1" class="graph" transform="scale(1 1) rotate(0) translate(4 1264)">
<title>Diagram</title>
<polygon fill="white" stroke="white" points="-4,5 -4,-1264 1364,-1264 1364,5 -4,5"/>
<g id="graph2" class="cluster"><title>clusterOPN</title>
<polygon fill="none" stroke="black" points="773,-398 773,-475 919,-475 919,-398 773,-398"/>
<text text-anchor="middle" x="846" y="-458.4" font-family="Times Roman,serif" font-size="14.00">OPN</text>
</g>
<g id="graph5" class="cluster"><title>clusterWEP</title>
<polygon fill="none" stroke="black" points="838,-291 838,-368 958,-368 958,-291 838,-291"/>
<text text-anchor="middle" x="898" y="-351.4" font-family="Times Roman,serif" font-size="14.00">WEP</text>
</g>
<g id="graph8" class="cluster"><title>clusterWPA</title>
<polygon fill="none" stroke="black" points="966,-8 966,-368 1262,-368 1262,-8 966,-8"/>
<text text-anchor="middle" x="1114" y="-351.4" font-family="Times Roman,serif" font-size="14.00">WPA</text>
</g>
<g id="graph11" class="cluster"><title>clusterPSK</title>
<polygon fill="none" stroke="black" points="1072,-16 1072,-177 1254,-177 1254,-16 1072,-16"/>
<text text-anchor="middle" x="1163" y="-160.4" font-family="Times Roman,serif" font-size="14.00">PSK</text>
</g>
<g id="graph14" class="cluster"><title>clusterEAP</title>
<polygon fill="none" stroke="black" points="974,-100 974,-177 1064,-177 1064,-100 974,-100"/>
<text text-anchor="middle" x="1019" y="-160.4" font-family="Times Roman,serif" font-size="14.00">EAP</text>
</g>
<g id="graph15" class="cluster"><title>clusterMain</title>
<polygon fill="none" stroke="black" points="927,-398 927,-1250 1351,-1250 1351,-398 927,-398"/>
<text text-anchor="middle" x="1139" y="-1233.4" font-family="Times Roman,serif" font-size="14.00">Connecting Wireless&#45;LAN Access Point</text>
</g>
<g id="graph25" class="cluster"><title>clusterCommands</title>
<polygon fill="none" stroke="black" points="8,-1167 8,-1252 919,-1252 919,-1167 8,-1167"/>
<text text-anchor="middle" x="463.5" y="-1235.4" font-family="Times Roman,serif" font-size="14.00">CommandsAndNotes</text>
</g>
<!-- NothingToDo -->
<g id="node3" class="node"><title>NothingToDo</title>
<polygon fill="none" stroke="black" points="846,-442 781.018,-424 846,-406 910.982,-424 846,-442"/>
<text text-anchor="middle" x="846" y="-421" font-family="Times Roman,serif" font-size="10.00">NothingToDo</text>
</g>
<!-- HasWebAuthentication -->
<g id="node43" class="node"><title>HasWebAuthentication</title>
<a xlink:href="http://www.slideshare.net/support_cyberoam/hotspot-authentication" xlink:title="HasWebAuthentication">
<polygon fill="none" stroke="black" points="1041,-1215 935.197,-1197 1041,-1179 1146.8,-1197 1041,-1215"/>
<text text-anchor="middle" x="1041" y="-1194" font-family="Times Roman,serif" font-size="10.00">HasWebAuthentication</text>
</a>
</g>
<!-- NothingToDo&#45;&gt;HasWebAuthentication -->
<g id="edge64" class="edge"><title>NothingToDo&#45;&gt;HasWebAuthentication</title>
<path fill="none" stroke="black" d="M851.15,-440.867C857.076,-461.799 866,-498.684 866,-531 866,-1119 866,-1119 866,-1119 866,-1145.8 935.316,-1169.76 986.699,-1183.84"/>
<polygon fill="black" stroke="black" points="985.822,-1187.23 996.387,-1186.44 987.635,-1180.47 985.822,-1187.23"/>
</g>
<!-- HasClient_WEP -->
<g id="node7" class="node"><title>HasClient_WEP</title>
<polygon fill="none" stroke="black" points="898,-335 845.776,-317 898,-299 950.224,-317 898,-335"/>
<text text-anchor="middle" x="898" y="-314" font-family="Times Roman,serif" font-size="10.00">HasClient</text>
</g>
<!-- IsTKIP -->
<g id="node11" class="node"><title>IsTKIP</title>
<polygon fill="none" stroke="black" points="1085,-335 1048.08,-317 1085,-299 1121.92,-317 1085,-335"/>
<text text-anchor="middle" x="1085" y="-314" font-family="Times Roman,serif" font-size="10.00">IsTKIP</text>
</g>
<!-- IsPSK -->
<g id="node12" class="node"><title>IsPSK</title>
<polygon fill="none" stroke="black" points="1085,-251 1048.93,-233 1085,-215 1121.07,-233 1085,-251"/>
<text text-anchor="middle" x="1085" y="-230" font-family="Times Roman,serif" font-size="10.00">IsPSK</text>
</g>
<!-- IsTKIP&#45;&gt;IsPSK -->
<g id="edge13" class="edge"><title>IsTKIP&#45;&gt;IsPSK</title>
<path fill="none" stroke="black" d="M1085,-298.773C1085,-287.876 1085,-273.795 1085,-261.459"/>
<polygon fill="black" stroke="black" points="1088.5,-261.191 1085,-251.191 1081.5,-261.191 1088.5,-261.191"/>
<text text-anchor="middle" x="1093" y="-272.4" font-family="Times Roman,serif" font-size="9.00">No.</text>
</g>
<!-- HasAP_PSK -->
<g id="node15" class="node"><title>HasAP_PSK</title>
<ellipse fill="none" stroke="black" cx="1190" cy="-126" rx="28.8642" ry="18"/>
<text text-anchor="middle" x="1190" y="-123" font-family="Times Roman,serif" font-size="10.00">HasAP</text>
</g>
<!-- IsTKIP&#45;&gt;HasAP_PSK -->
<g id="edge11" class="edge"><title>IsTKIP&#45;&gt;HasAP_PSK</title>
<path fill="none" stroke="black" d="M1093.85,-302.996C1102.14,-289.742 1114.76,-269.219 1125,-251 1143.81,-217.537 1163.99,-178.121 1176.79,-152.63"/>
<polygon fill="black" stroke="black" points="1179.97,-154.092 1181.31,-143.583 1173.71,-150.961 1179.97,-154.092"/>
<text text-anchor="middle" x="1153.5" y="-230.4" font-family="Times Roman,serif" font-size="9.00">Yes.</text>
</g>
<!-- HasClient_PSK -->
<g id="node18" class="node"><title>HasClient_PSK</title>
<ellipse fill="none" stroke="black" cx="1117" cy="-126" rx="36.7858" ry="18"/>
<text text-anchor="middle" x="1117" y="-123" font-family="Times Roman,serif" font-size="10.00">HasClient</text>
</g>
<!-- IsPSK&#45;&gt;HasClient_PSK -->
<g id="edge15" class="edge"><title>IsPSK&#45;&gt;HasClient_PSK</title>
<path fill="none" stroke="black" d="M1089.72,-217.212C1094.72,-200.502 1102.7,-173.807 1108.74,-153.604"/>
<polygon fill="black" stroke="black" points="1112.1,-154.583 1111.62,-144 1105.4,-152.578 1112.1,-154.583"/>
<text text-anchor="middle" x="1108.5" y="-188.4" font-family="Times Roman,serif" font-size="9.00">Yes.</text>
</g>
<!-- HasClient_EAP -->
<g id="node20" class="node"><title>HasClient_EAP</title>
<ellipse fill="none" stroke="black" cx="1019" cy="-126" rx="36.7858" ry="18"/>
<text text-anchor="middle" x="1019" y="-123" font-family="Times Roman,serif" font-size="10.00">HasClient</text>
</g>
<!-- IsPSK&#45;&gt;HasClient_EAP -->
<g id="edge17" class="edge"><title>IsPSK&#45;&gt;HasClient_EAP</title>
<path fill="none" stroke="black" d="M1076.37,-219.012C1065.96,-202.135 1048.24,-173.408 1035.24,-152.335"/>
<polygon fill="black" stroke="black" points="1038.05,-150.219 1029.82,-143.545 1032.09,-153.894 1038.05,-150.219"/>
<text text-anchor="middle" x="1070.5" y="-188.4" font-family="Times Roman,serif" font-size="9.00">NO.</text>
</g>
<!-- HasAP_WPS_PSK -->
<g id="node23" class="node"><title>HasAP_WPS_PSK</title>
<ellipse fill="none" stroke="black" cx="1163" cy="-42" rx="83.0854" ry="18"/>
<text text-anchor="middle" x="1163" y="-39" font-family="Times Roman,serif" font-size="10.00">DoesAccessPointUseWPS</text>
</g>
<!-- HasAP_PSK&#45;&gt;HasAP_WPS_PSK -->
<g id="edge22" class="edge"><title>HasAP_PSK&#45;&gt;HasAP_WPS_PSK</title>
<path fill="none" stroke="black" d="M1184.27,-108.186C1180.68,-97.0136 1175.98,-82.378 1171.91,-69.711"/>
<polygon fill="black" stroke="black" points="1175.2,-68.5274 1168.81,-60.0781 1168.54,-70.6695 1175.2,-68.5274"/>
<text text-anchor="middle" x="1186" y="-81.4" font-family="Times Roman,serif" font-size="9.00">Yes</text>
</g>
<!-- Start -->
<g id="node29" class="node"><title>Start</title>
<polygon fill="none" stroke="black" points="1294,-1177 1342.81,-1207 1245.19,-1207 1294,-1177"/>
<text text-anchor="middle" x="1294" y="-1194" font-family="Times Roman,serif" font-size="10.00">Start</text>
</g>
<!-- HasAccessPointsAroundYou -->
<g id="node38" class="node"><title>HasAccessPointsAroundYou</title>
<a xlink:href="http://www.aircrack-ng.org/doku.php?id=airodump-ng" xlink:title="HasAccessPointsAroundYou">
<polygon fill="none" stroke="black" points="1070,-1137 943.788,-1119 1070,-1101 1196.21,-1119 1070,-1137"/>
<text text-anchor="middle" x="1070" y="-1116" font-family="Times Roman,serif" font-size="10.00">HasAccessPointsAroundYou</text>
</a>
</g>
<!-- Start&#45;&gt;HasAccessPointsAroundYou -->
<g id="edge32" class="edge"><title>Start&#45;&gt;HasAccessPointsAroundYou</title>
<path fill="none" stroke="black" d="M1277.81,-1186.48C1267.57,-1180.17 1253.89,-1172.36 1241,-1167 1205.53,-1152.24 1164.07,-1140.47 1130.86,-1132.29"/>
<polygon fill="black" stroke="black" points="1131.38,-1128.81 1120.84,-1129.86 1129.73,-1135.61 1131.38,-1128.81"/>
</g>
<!-- End -->
<g id="node31" class="node"><title>End</title>
<polygon fill="none" stroke="black" points="1196,-1217 1153.91,-1187 1238.09,-1187 1196,-1217"/>
<text text-anchor="middle" x="1196" y="-1194" font-family="Times Roman,serif" font-size="10.00">End</text>
</g>
<!-- ImproveYourWifiAntenna -->
<g id="node34" class="node"><title>ImproveYourWifiAntenna</title>
<a xlink:href="http://www.instructables.com/id/DIY-WIFI-Antenna-Reception-Booster/" xlink:title="ImproveYourWifiAntenna">
<polygon fill="none" stroke="black" points="1065,-1053 935,-1053 935,-1017 1065,-1017 1065,-1053"/>
<text text-anchor="middle" x="1000" y="-1032" font-family="Times Roman,serif" font-size="10.00">ImproveYourWifiAntenna</text>
</a>
</g>
<!-- IsStealthESSID -->
<g id="node39" class="node"><title>IsStealthESSID</title>
<a xlink:href="http://securitysynapse.blogspot.jp/2014/01/wireless-pentesting-on-cheap-kali-hiddenSSID.html" xlink:title="IsStealthESSID">
<polygon fill="none" stroke="black" points="1045,-969 970.163,-951 1045,-933 1119.84,-951 1045,-969"/>
<text text-anchor="middle" x="1045" y="-948" font-family="Times Roman,serif" font-size="10.00">IsStealthESSID</text>
</a>
</g>
<!-- ImproveYourWifiAntenna&#45;&gt;IsStealthESSID -->
<g id="edge35" class="edge"><title>ImproveYourWifiAntenna&#45;&gt;IsStealthESSID</title>
<path fill="none" stroke="black" d="M1009.76,-1016.77C1016.13,-1004.89 1024.52,-989.226 1031.52,-976.164"/>
<polygon fill="black" stroke="black" points="1034.68,-977.671 1036.32,-967.204 1028.51,-974.366 1034.68,-977.671"/>
<text text-anchor="middle" x="1041.5" y="-990.4" font-family="Times Roman,serif" font-size="9.00">I have.</text>
</g>
<!-- DeauthAllClient -->
<g id="node35" class="node"><title>DeauthAllClient</title>
<a xlink:href="http://www.aircrack-ng.org/doku.php?id=deauthentication" xlink:title="DeauthAllClient">
<polygon fill="none" stroke="black" points="1090,-801 1000,-801 1000,-765 1090,-765 1090,-801"/>
<text text-anchor="middle" x="1045" y="-780" font-family="Times Roman,serif" font-size="10.00">DeauthAllClient</text>
</a>
</g>
<!-- HasHardwareAddressFiltering -->
<g id="node41" class="node"><title>HasHardwareAddressFiltering</title>
<a xlink:href="http://synjunkie.blogspot.jp/2007/12/bypass-hidden-ssid-mac-address-filter.html" xlink:title="HasHardwareAddressFiltering">
<polygon fill="none" stroke="black" points="1105,-717 971.984,-699 1105,-681 1238.02,-699 1105,-717"/>
<text text-anchor="middle" x="1105" y="-696" font-family="Times Roman,serif" font-size="10.00">HasHardwareAddressFiltering</text>
</a>
</g>
<!-- DeauthAllClient&#45;&gt;HasHardwareAddressFiltering -->
<g id="edge47" class="edge"><title>DeauthAllClient&#45;&gt;HasHardwareAddressFiltering</title>
<path fill="none" stroke="black" d="M1058.02,-764.773C1066.61,-752.74 1077.98,-736.826 1087.38,-723.665"/>
<polygon fill="black" stroke="black" points="1090.26,-725.655 1093.23,-715.483 1084.57,-721.586 1090.26,-725.655"/>
<text text-anchor="middle" x="1135" y="-738.4" font-family="Times Roman,serif" font-size="9.00">I got ESSID from frames.</text>
</g>
<!-- SpoofHardwareAddress -->
<g id="node36" class="node"><title>SpoofHardwareAddress</title>
<a xlink:href="http://www.securethelock.com/2013/12/03/how-to-bypass-mac-address-filtering-using-backtrackkali-linux/" xlink:title="SpoofHardwareAddress">
<polygon fill="none" stroke="black" points="1065,-633 937,-633 937,-597 1065,-597 1065,-633"/>
<text text-anchor="middle" x="1001" y="-612" font-family="Times Roman,serif" font-size="10.00">SpoofHardwareAddress</text>
</a>
</g>
<!-- HasEncryption -->
<g id="node42" class="node"><title>HasEncryption</title>
<a xlink:href="http://www.dummies.com/how-to/content/wireless-security-protocols-wep-wpa-and-wpa2.html" xlink:title="HasEncryption">
<polygon fill="none" stroke="black" points="1008,-549 934.864,-531 1008,-513 1081.14,-531 1008,-549"/>
<text text-anchor="middle" x="1008" y="-528" font-family="Times Roman,serif" font-size="10.00">HasEncryption</text>
</a>
</g>
<!-- SpoofHardwareAddress&#45;&gt;HasEncryption -->
<g id="edge53" class="edge"><title>SpoofHardwareAddress&#45;&gt;HasEncryption</title>
<path fill="none" stroke="black" d="M983.272,-596.775C976.897,-587.998 972.127,-577.188 976,-567 977.92,-561.951 980.908,-557.158 984.303,-552.813"/>
<polygon fill="black" stroke="black" points="987.156,-554.87 991.16,-545.061 981.913,-550.233 987.156,-554.87"/>
<text text-anchor="middle" x="1066.5" y="-570.4" font-family="Times Roman,serif" font-size="9.00">I could associate with AP(or WEP&#45;SKA).</text>
</g>
<!-- HasAccessPointsAroundYou&#45;&gt;ImproveYourWifiAntenna -->
<g id="edge38" class="edge"><title>HasAccessPointsAroundYou&#45;&gt;ImproveYourWifiAntenna</title>
<path fill="none" stroke="black" d="M1031.16,-1106.37C1020.28,-1100.92 1009.63,-1093.34 1003,-1083 999.333,-1077.28 997.694,-1070.35 997.165,-1063.55"/>
<polygon fill="black" stroke="black" points="1000.66,-1063.16 997.113,-1053.17 993.663,-1063.19 1000.66,-1063.16"/>
<text text-anchor="middle" x="1040" y="-1074.4" font-family="Times Roman,serif" font-size="9.00">Seems nothing.</text>
</g>
<!-- HasAccessPointsAroundYou&#45;&gt;IsStealthESSID -->
<g id="edge36" class="edge"><title>HasAccessPointsAroundYou&#45;&gt;IsStealthESSID</title>
<path fill="none" stroke="black" d="M1072.39,-1101.09C1073.05,-1095.32 1073.67,-1088.9 1074,-1083 1075.63,-1053.59 1074.32,-1045.77 1068,-1017 1064.98,-1003.27 1062.61,-1000.28 1058,-987 1056.91,-983.861 1055.75,-980.575 1054.59,-977.319"/>
<polygon fill="black" stroke="black" points="1057.85,-976.043 1051.17,-967.819 1051.26,-978.413 1057.85,-976.043"/>
<text text-anchor="middle" x="1090.5" y="-1032.4" font-family="Times Roman,serif" font-size="9.00">I have.</text>
</g>
<!-- IsThereConnectedClient -->
<g id="node40" class="node"><title>IsThereConnectedClient</title>
<a xlink:href="http://blackhat6969.blogspot.jp/2012/09/down-and-dirty-wifi-cracking-with.html" xlink:title="IsThereConnectedClient">
<polygon fill="none" stroke="black" points="1045,-885 934.946,-867 1045,-849 1155.05,-867 1045,-885"/>
<text text-anchor="middle" x="1045" y="-864" font-family="Times Roman,serif" font-size="10.00">IsThereConnectedClient</text>
</a>
</g>
<!-- IsStealthESSID&#45;&gt;IsThereConnectedClient -->
<g id="edge40" class="edge"><title>IsStealthESSID&#45;&gt;IsThereConnectedClient</title>
<path fill="none" stroke="black" d="M1045,-932.773C1045,-921.876 1045,-907.795 1045,-895.459"/>
<polygon fill="black" stroke="black" points="1048.5,-895.191 1045,-885.191 1041.5,-895.191 1048.5,-895.191"/>
<text text-anchor="middle" x="1090" y="-906.4" font-family="Times Roman,serif" font-size="9.00">I don&#39;t know ESSID.</text>
</g>
<!-- IsStealthESSID&#45;&gt;HasHardwareAddressFiltering -->
<g id="edge48" class="edge"><title>IsStealthESSID&#45;&gt;HasHardwareAddressFiltering</title>
<path fill="none" stroke="black" d="M1091.83,-944.245C1126.46,-936.468 1171.09,-919.923 1192,-885 1226.25,-827.802 1229.05,-790.425 1192,-735 1185.95,-725.948 1177.16,-719.169 1167.46,-714.094"/>
<polygon fill="black" stroke="black" points="1168.9,-710.903 1158.35,-709.895 1165.97,-717.26 1168.9,-710.903"/>
<text text-anchor="middle" x="1275" y="-822.4" font-family="Times Roman,serif" font-size="9.00">I got ESSID from frames.</text>
</g>
<!-- IsThereConnectedClient&#45;&gt;DeauthAllClient -->
<g id="edge42" class="edge"><title>IsThereConnectedClient&#45;&gt;DeauthAllClient</title>
<path fill="none" stroke="black" d="M1045,-848.773C1045,-837.876 1045,-823.795 1045,-811.459"/>
<polygon fill="black" stroke="black" points="1048.5,-811.191 1045,-801.191 1041.5,-811.191 1048.5,-811.191"/>
<text text-anchor="middle" x="1102.5" y="-822.4" font-family="Times Roman,serif" font-size="9.00">Yes. Someone connects.</text>
</g>
<!-- IsThereConnectedClient&#45;&gt;IsThereConnectedClient -->
<g id="edge44" class="edge"><title>IsThereConnectedClient&#45;&gt;IsThereConnectedClient</title>
<path fill="none" stroke="black" d="M1107.89,-874.728C1136.8,-875.544 1162,-872.968 1162,-867 1162,-861.755 1142.54,-859.13 1118.19,-859.125"/>
<polygon fill="black" stroke="black" points="1117.84,-855.63 1107.89,-859.272 1117.94,-862.629 1117.84,-855.63"/>
<text text-anchor="middle" x="1170" y="-864.4" font-family="Times Roman,serif" font-size="9.00">No.</text>
</g>
<!-- HasHardwareAddressFiltering&#45;&gt;SpoofHardwareAddress -->
<g id="edge50" class="edge"><title>HasHardwareAddressFiltering&#45;&gt;SpoofHardwareAddress</title>
<path fill="none" stroke="black" d="M1059.05,-687.118C1045.08,-681.658 1030.64,-673.892 1020,-663 1014.58,-657.446 1010.65,-650.154 1007.82,-642.937"/>
<polygon fill="black" stroke="black" points="1011.1,-641.695 1004.62,-633.312 1004.46,-643.906 1011.1,-641.695"/>
<text text-anchor="middle" x="1088.5" y="-654.4" font-family="Times Roman,serif" font-size="9.00">Yes, I can&#39;t associate with AP.</text>
</g>
<!-- HasHardwareAddressFiltering&#45;&gt;HasEncryption -->
<g id="edge54" class="edge"><title>HasHardwareAddressFiltering&#45;&gt;HasEncryption</title>
<path fill="none" stroke="black" d="M1133.39,-684.81C1141.56,-679.212 1149.47,-671.947 1154,-663 1173.27,-624.932 1180.31,-600.588 1154,-567 1143.19,-553.205 1103.57,-543.978 1068.33,-538.322"/>
<polygon fill="black" stroke="black" points="1068.46,-534.803 1058.05,-536.751 1067.41,-541.722 1068.46,-534.803"/>
<text text-anchor="middle" x="1261.5" y="-612.4" font-family="Times Roman,serif" font-size="9.00">I could associate with AP(or WEP&#45;SKA).</text>
</g>
<!-- HasEncryption&#45;&gt;NothingToDo -->
<g id="edge56" class="edge"><title>HasEncryption&#45;&gt;NothingToDo</title>
<path fill="none" stroke="black" d="M972.332,-521.694C953.683,-515.82 931.047,-507.039 913,-495 893.61,-482.065 875.716,-462.536 863.307,-447.232"/>
<polygon fill="black" stroke="black" points="865.942,-444.92 857.003,-439.233 860.444,-449.253 865.942,-444.92"/>
<text text-anchor="middle" x="960" y="-486.4" font-family="Times Roman,serif" font-size="9.00">No. It&#39;s OPN access.</text>
</g>
<!-- IsWEP -->
<g id="node44" class="node"><title>IsWEP</title>
<a xlink:href="http://www.howtogeek.com/167783/htg-explains-the-difference-between-wep-wpa-and-wpa2-wireless-encryption-and-why-it-matters/" xlink:title="IsWEP">
<polygon fill="none" stroke="black" points="1008,-442 971.08,-424 1008,-406 1044.92,-424 1008,-442"/>
<text text-anchor="middle" x="1008" y="-421" font-family="Times Roman,serif" font-size="10.00">IsWEP</text>
</a>
</g>
<!-- HasEncryption&#45;&gt;IsWEP -->
<g id="edge58" class="edge"><title>HasEncryption&#45;&gt;IsWEP</title>
<path fill="none" stroke="black" d="M1008,-512.849C1008,-496.324 1008,-471.656 1008,-452.502"/>
<polygon fill="black" stroke="black" points="1011.5,-452.24 1008,-442.24 1004.5,-452.24 1011.5,-452.24"/>
<text text-anchor="middle" x="1023" y="-486.4" font-family="Times Roman,serif" font-size="9.00">It has.</text>
</g>
<!-- IsWEP&#45;&gt;HasClient_WEP -->
<g id="edge60" class="edge"><title>IsWEP&#45;&gt;HasClient_WEP</title>
<path fill="none" stroke="black" d="M995.382,-411.726C976.805,-393.656 941.86,-359.664 919.274,-337.694"/>
<polygon fill="black" stroke="black" points="921.457,-334.934 911.848,-330.47 916.576,-339.952 921.457,-334.934"/>
<text text-anchor="middle" x="991.5" y="-379.4" font-family="Times Roman,serif" font-size="9.00">Yes. WEP.</text>
</g>
<!-- IsWEP&#45;&gt;IsTKIP -->
<g id="edge62" class="edge"><title>IsWEP&#45;&gt;IsTKIP</title>
<path fill="none" stroke="black" d="M1017.75,-410.448C1030.77,-392.359 1053.98,-360.112 1069.43,-338.639"/>
<polygon fill="black" stroke="black" points="1072.33,-340.603 1075.33,-330.442 1066.65,-336.514 1072.33,-340.603"/>
<text text-anchor="middle" x="1061.5" y="-379.4" font-family="Times Roman,serif" font-size="9.00">No.WPA.</text>
</g>
<!-- HasAccessPointsAroundYouCommand -->
<g id="node65" class="node"><title>HasAccessPointsAroundYouCommand</title>
<polygon fill="none" stroke="black" points="911,-1219 651,-1219 651,-1175 911,-1175 911,-1219"/>
<text text-anchor="middle" x="781" y="-1206" font-family="Times Roman,serif" font-size="10.00">ifconfig wlan0 down;</text>
<text text-anchor="middle" x="781" y="-1194" font-family="Times Roman,serif" font-size="10.00">iwconfig wlan0 mode mon || airmon&#45;ng start wlan0;</text>
<text text-anchor="middle" x="781" y="-1182" font-family="Times Roman,serif" font-size="10.00">airodump&#45;ng wlan0;</text>
</g>
<!-- HasAccessPointsAroundYouCommand&#45;&gt;HasAccessPointsAroundYou -->
<g id="edge69" class="edge"><title>HasAccessPointsAroundYouCommand&#45;&gt;HasAccessPointsAroundYou</title>
<path fill="none" stroke="gray" d="M862.657,-1174.96C911.9,-1161.67 973.236,-1145.12 1016.38,-1133.47"/>
<polygon fill="gray" stroke="gray" points="1017.37,-1136.83 1026.12,-1130.84 1015.55,-1130.07 1017.37,-1136.83"/>
</g>
<!-- ImproveYourWifiAntennaCommand -->
<g id="node66" class="node"><title>ImproveYourWifiAntennaCommand</title>
<polygon fill="none" stroke="black" points="644,-1219 530,-1219 530,-1175 644,-1175 644,-1219"/>
<text text-anchor="middle" x="587" y="-1206" font-family="Times Roman,serif" font-size="10.00">iw reg set BO;</text>
<text text-anchor="middle" x="587" y="-1194" font-family="Times Roman,serif" font-size="10.00">iwconfig wlan0 tx 30;</text>
<text text-anchor="middle" x="587" y="-1182" font-family="Times Roman,serif" font-size="10.00">#Add DIY Parabora.</text>
</g>
<!-- ImproveYourWifiAntennaCommand&#45;&gt;ImproveYourWifiAntenna -->
<g id="edge71" class="edge"><title>ImproveYourWifiAntennaCommand&#45;&gt;ImproveYourWifiAntenna</title>
<path fill="none" stroke="gray" d="M630.74,-1174.85C636.505,-1172.12 642.367,-1169.43 648,-1167 747.563,-1123.97 866.196,-1081.18 937.184,-1056.45"/>
<polygon fill="gray" stroke="gray" points="938.58,-1059.67 946.878,-1053.09 936.283,-1053.06 938.58,-1059.67"/>
</g>
<!-- IsStealthESSIDCommand -->
<g id="node67" class="node"><title>IsStealthESSIDCommand</title>
<polygon fill="none" stroke="black" points="523,-1215 273,-1215 273,-1179 523,-1179 523,-1215"/>
<text text-anchor="middle" x="398" y="-1194" font-family="Times Roman,serif" font-size="10.00">airodump&#45;ng &#45;c [channel] &#45;&#45;bssid [AP MAC] wlan0</text>
</g>
<!-- IsStealthESSIDCommand&#45;&gt;IsStealthESSID -->
<g id="edge73" class="edge"><title>IsStealthESSIDCommand&#45;&gt;IsStealthESSID</title>
<path fill="none" stroke="gray" d="M445.575,-1178.91C568.377,-1132.22 894.222,-1008.33 1006.41,-965.673"/>
<polygon fill="gray" stroke="gray" points="1007.87,-968.863 1015.97,-962.038 1005.38,-962.32 1007.87,-968.863"/>
</g>
<!-- DeauthAllClientCommand -->
<g id="node68" class="node"><title>DeauthAllClientCommand</title>
<polygon fill="none" stroke="black" points="266,-1215 16,-1215 16,-1179 266,-1179 266,-1215"/>
<text text-anchor="middle" x="141" y="-1200" font-family="Times Roman,serif" font-size="10.00">aireplay&#45;ng &#45;0 0 &#45;a [AP MAC] wlan0;</text>
<text text-anchor="middle" x="141" y="-1188" font-family="Times Roman,serif" font-size="10.00">aireplay&#45;ng &#45;0 0 &#45;a [AP MAC] &#45;c [STA MAC] wlan0;</text>
</g>
<!-- DeauthAllClientCommand&#45;&gt;DeauthAllClient -->
<g id="edge75" class="edge"><title>DeauthAllClientCommand&#45;&gt;DeauthAllClient</title>
<path fill="none" stroke="gray" d="M215.033,-1179C281.939,-1161.66 370,-1135.67 370,-1119 370,-1119 370,-1119 370,-867 370,-804.709 828.519,-788.037 989.745,-784.1"/>
<polygon fill="gray" stroke="gray" points="990.012,-787.595 999.926,-783.859 989.846,-780.597 990.012,-787.595"/>
</g>
</g>
</svg>
