<?xml version="1.0" encoding="UTF-8" standalone="no"?>
<!DOCTYPE svg PUBLIC "-//W3C//DTD SVG 1.1//EN"
 "http://www.w3.org/Graphics/SVG/1.1/DTD/svg11.dtd">
<!-- Generated by graphviz version 2.26.3 (20100126.1600)
 -->
<!-- Title: Diagram Pages: 1 -->
<svg width="1252pt" height="771pt"
 viewBox="0.00 0.00 1252.00 771.00" xmlns="http://www.w3.org/2000/svg" xmlns:xlink="http://www.w3.org/1999/xlink">
<g id="graph1" class="graph" transform="scale(1 1) rotate(0) translate(4 767)">
<title>Diagram</title>
<polygon fill="white" stroke="white" points="-4,5 -4,-767 1249,-767 1249,5 -4,5"/>
<g id="graph2" class="cluster"><title>clusterMain</title>
<polygon fill="none" stroke="black" points="8,-8 8,-753 317,-753 317,-8 8,-8"/>
<text text-anchor="middle" x="162.5" y="-736.4" font-family="Times Roman,serif" font-size="14.00">Connecting Wireless&#45;LAN Access Point</text>
</g>
<g id="graph11" class="cluster"><title>clusterCommands</title>
<polygon fill="none" stroke="black" points="325,-670 325,-755 1236,-755 1236,-670 325,-670"/>
<text text-anchor="middle" x="780.5" y="-738.4" font-family="Times Roman,serif" font-size="14.00">CommandsAndNotes</text>
</g>
<!-- Start -->
<g id="node3" class="node"><title>Start</title>
<polygon fill="none" stroke="black" points="183,-680 231.812,-710 134.188,-710 183,-680"/>
<text text-anchor="middle" x="183" y="-697" font-family="Times Roman,serif" font-size="10.00">Start</text>
</g>
<!-- HasAccessPointsAroundYou -->
<g id="node11" class="node"><title>HasAccessPointsAroundYou</title>
<a xlink:href="http://www.aircrack-ng.org/doku.php?id=airodump-ng" xlink:title="HasAccessPointsAroundYou">
<polygon fill="none" stroke="black" points="183,-640 56.7883,-622 183,-604 309.212,-622 183,-640"/>
<text text-anchor="middle" x="183" y="-619" font-family="Times Roman,serif" font-size="10.00">HasAccessPointsAroundYou</text>
</a>
</g>
<!-- Start&#45;&gt;HasAccessPointsAroundYou -->
<g id="edge9" class="edge"><title>Start&#45;&gt;HasAccessPointsAroundYou</title>
<path fill="none" stroke="black" d="M183,-679.913C183,-670.897 183,-660.101 183,-650.286"/>
<polygon fill="black" stroke="black" points="186.5,-650.152 183,-640.152 179.5,-650.152 186.5,-650.152"/>
</g>
<!-- End -->
<g id="node5" class="node"><title>End</title>
<polygon fill="none" stroke="black" points="72,-720 29.9064,-690 114.094,-690 72,-720"/>
<text text-anchor="middle" x="72" y="-697" font-family="Times Roman,serif" font-size="10.00">End</text>
</g>
<!-- ImproveYourWifiAntenna -->
<g id="node8" class="node"><title>ImproveYourWifiAntenna</title>
<a xlink:href="http://www.instructables.com/id/DIY-WIFI-Antenna-Reception-Booster/" xlink:title="ImproveYourWifiAntenna">
<polygon fill="none" stroke="black" points="309,-556 179,-556 179,-520 309,-520 309,-556"/>
<text text-anchor="middle" x="244" y="-535" font-family="Times Roman,serif" font-size="10.00">ImproveYourWifiAntenna</text>
</a>
</g>
<!-- IsStealthESSID -->
<g id="node12" class="node"><title>IsStealthESSID</title>
<a xlink:href="http://securitysynapse.blogspot.jp/2014/01/wireless-pentesting-on-cheap-kali-hiddenSSID.html" xlink:title="IsStealthESSID">
<polygon fill="none" stroke="black" points="165,-472 90.163,-454 165,-436 239.837,-454 165,-472"/>
<text text-anchor="middle" x="165" y="-451" font-family="Times Roman,serif" font-size="10.00">IsStealthESSID</text>
</a>
</g>
<!-- ImproveYourWifiAntenna&#45;&gt;IsStealthESSID -->
<g id="edge12" class="edge"><title>ImproveYourWifiAntenna&#45;&gt;IsStealthESSID</title>
<path fill="none" stroke="black" d="M226.858,-519.773C214.871,-507.027 198.787,-489.925 186.025,-476.355"/>
<polygon fill="black" stroke="black" points="188.351,-473.72 178.95,-468.833 183.252,-478.516 188.351,-473.72"/>
<text text-anchor="middle" x="225.5" y="-493.4" font-family="Times Roman,serif" font-size="9.00">I have.</text>
</g>
<!-- DeauthAllClient -->
<g id="node9" class="node"><title>DeauthAllClient</title>
<a xlink:href="http://www.aircrack-ng.org/doku.php?id=deauthentication" xlink:title="DeauthAllClient">
<polygon fill="none" stroke="black" points="215,-304 125,-304 125,-268 215,-268 215,-304"/>
<text text-anchor="middle" x="170" y="-283" font-family="Times Roman,serif" font-size="10.00">DeauthAllClient</text>
</a>
</g>
<!-- HasEncryption -->
<g id="node14" class="node"><title>HasEncryption</title>
<a xlink:href="http://www.dummies.com/how-to/content/wireless-security-protocols-wep-wpa-and-wpa2.html" xlink:title="HasEncryption">
<polygon fill="none" stroke="black" points="140,-220 66.8639,-202 140,-184 213.136,-202 140,-220"/>
<text text-anchor="middle" x="140" y="-199" font-family="Times Roman,serif" font-size="10.00">HasEncryption</text>
</a>
</g>
<!-- DeauthAllClient&#45;&gt;HasEncryption -->
<g id="edge24" class="edge"><title>DeauthAllClient&#45;&gt;HasEncryption</title>
<path fill="none" stroke="black" d="M163.49,-267.773C159.384,-256.275 154.011,-241.232 149.441,-228.435"/>
<polygon fill="black" stroke="black" points="152.647,-227.004 145.987,-218.764 146.054,-229.358 152.647,-227.004"/>
<text text-anchor="middle" x="212.5" y="-241.4" font-family="Times Roman,serif" font-size="9.00">I got ESSID from frames</text>
</g>
<!-- HasAccessPointsAroundYou&#45;&gt;ImproveYourWifiAntenna -->
<g id="edge15" class="edge"><title>HasAccessPointsAroundYou&#45;&gt;ImproveYourWifiAntenna</title>
<path fill="none" stroke="black" d="M195.052,-605.404C203.539,-593.716 215.08,-577.824 224.824,-564.406"/>
<polygon fill="black" stroke="black" points="227.873,-566.163 230.917,-556.015 222.209,-562.05 227.873,-566.163"/>
<text text-anchor="middle" x="255" y="-577.4" font-family="Times Roman,serif" font-size="9.00">Seems nothing.</text>
</g>
<!-- HasAccessPointsAroundYou&#45;&gt;IsStealthESSID -->
<g id="edge13" class="edge"><title>HasAccessPointsAroundYou&#45;&gt;IsStealthESSID</title>
<path fill="none" stroke="black" d="M170.039,-605.771C160.762,-593.059 149.054,-574.487 144,-556 136.994,-530.372 144.951,-500.556 153.001,-479.805"/>
<polygon fill="black" stroke="black" points="156.302,-480.983 156.896,-470.404 149.835,-478.303 156.302,-480.983"/>
<text text-anchor="middle" x="159.5" y="-535.4" font-family="Times Roman,serif" font-size="9.00">I have.</text>
</g>
<!-- IsThereConnectedClient -->
<g id="node13" class="node"><title>IsThereConnectedClient</title>
<a xlink:href="http://blackhat6969.blogspot.jp/2012/09/down-and-dirty-wifi-cracking-with.html" xlink:title="IsThereConnectedClient">
<polygon fill="none" stroke="black" points="165,-388 54.9456,-370 165,-352 275.054,-370 165,-388"/>
<text text-anchor="middle" x="165" y="-367" font-family="Times Roman,serif" font-size="10.00">IsThereConnectedClient</text>
</a>
</g>
<!-- IsStealthESSID&#45;&gt;IsThereConnectedClient -->
<g id="edge17" class="edge"><title>IsStealthESSID&#45;&gt;IsThereConnectedClient</title>
<path fill="none" stroke="black" d="M165,-435.773C165,-424.876 165,-410.795 165,-398.459"/>
<polygon fill="black" stroke="black" points="168.5,-398.191 165,-388.191 161.5,-398.191 168.5,-398.191"/>
<text text-anchor="middle" x="208.5" y="-409.4" font-family="Times Roman,serif" font-size="9.00">I don&#39;t know ESSID</text>
</g>
<!-- IsStealthESSID&#45;&gt;HasEncryption -->
<g id="edge25" class="edge"><title>IsStealthESSID&#45;&gt;HasEncryption</title>
<path fill="none" stroke="black" d="M130.572,-444.242C103.891,-434.664 68.739,-417.162 52,-388 18.8771,-330.295 80.5317,-258.102 116.586,-223.047"/>
<polygon fill="black" stroke="black" points="119.008,-225.574 123.848,-216.149 114.187,-220.498 119.008,-225.574"/>
<text text-anchor="middle" x="103.5" y="-325.4" font-family="Times Roman,serif" font-size="9.00">I got ESSID from frames</text>
</g>
<!-- IsThereConnectedClient&#45;&gt;DeauthAllClient -->
<g id="edge19" class="edge"><title>IsThereConnectedClient&#45;&gt;DeauthAllClient</title>
<path fill="none" stroke="black" d="M166.085,-351.773C166.734,-340.876 167.572,-326.795 168.306,-314.459"/>
<polygon fill="black" stroke="black" points="171.817,-314.382 168.917,-304.191 164.829,-313.966 171.817,-314.382"/>
<text text-anchor="middle" x="225.5" y="-325.4" font-family="Times Roman,serif" font-size="9.00">Yes. Someone connects.</text>
</g>
<!-- IsThereConnectedClient&#45;&gt;IsThereConnectedClient -->
<g id="edge21" class="edge"><title>IsThereConnectedClient&#45;&gt;IsThereConnectedClient</title>
<path fill="none" stroke="black" d="M227.891,-377.728C256.803,-378.544 282,-375.968 282,-370 282,-364.755 262.536,-362.13 238.193,-362.125"/>
<polygon fill="black" stroke="black" points="237.84,-358.63 227.891,-362.272 237.94,-365.629 237.84,-358.63"/>
<text text-anchor="middle" x="290" y="-367.4" font-family="Times Roman,serif" font-size="9.00">No.</text>
</g>
<!-- HasWebAuthentication -->
<g id="node15" class="node"><title>HasWebAuthentication</title>
<a xlink:href="http://www.slideshare.net/support_cyberoam/hotspot-authentication" xlink:title="HasWebAuthentication">
<polygon fill="none" stroke="black" points="122,-136 16.1966,-118 122,-100 227.803,-118 122,-136"/>
<text text-anchor="middle" x="122" y="-115" font-family="Times Roman,serif" font-size="10.00">HasWebAuthentication</text>
</a>
</g>
<!-- HasEncryption&#45;&gt;HasWebAuthentication -->
<g id="edge27" class="edge"><title>HasEncryption&#45;&gt;HasWebAuthentication</title>
<path fill="none" stroke="black" d="M136.27,-184.595C133.833,-173.22 130.599,-158.128 127.826,-145.187"/>
<polygon fill="black" stroke="black" points="131.243,-144.427 125.725,-135.383 124.398,-145.894 131.243,-144.427"/>
<text text-anchor="middle" x="180" y="-157.4" font-family="Times Roman,serif" font-size="9.00">No. It&#39;s OPN access.</text>
</g>
<!-- IsWEP -->
<g id="node16" class="node"><title>IsWEP</title>
<a xlink:href="http://www.howtogeek.com/167783/htg-explains-the-difference-between-wep-wpa-and-wpa2-wireless-encryption-and-why-it-matters/" xlink:title="IsWEP">
<polygon fill="none" stroke="black" points="272,-136 235.08,-118 272,-100 308.92,-118 272,-136"/>
<text text-anchor="middle" x="272" y="-115" font-family="Times Roman,serif" font-size="10.00">IsWEP</text>
</a>
</g>
<!-- HasEncryption&#45;&gt;IsWEP -->
<g id="edge29" class="edge"><title>HasEncryption&#45;&gt;IsWEP</title>
<path fill="none" stroke="black" d="M173.511,-192.199C190.717,-186.229 211.477,-177.513 228,-166 238.368,-158.776 248.07,-148.709 255.712,-139.659"/>
<polygon fill="black" stroke="black" points="258.545,-141.721 262.111,-131.744 253.102,-137.32 258.545,-141.721"/>
<text text-anchor="middle" x="257" y="-157.4" font-family="Times Roman,serif" font-size="9.00">It has.</text>
</g>
<!-- WEP -->
<g id="node30" class="node"><title>WEP</title>
<ellipse fill="none" stroke="black" cx="212" cy="-34" rx="27" ry="18"/>
<text text-anchor="middle" x="212" y="-31" font-family="Times Roman,serif" font-size="10.00">WEP</text>
</g>
<!-- IsWEP&#45;&gt;WEP -->
<g id="edge31" class="edge"><title>IsWEP&#45;&gt;WEP</title>
<path fill="none" stroke="black" d="M255.377,-107.802C246.169,-101.402 235.169,-92.4025 228,-82 223.847,-75.9741 220.703,-68.7866 218.35,-61.8318"/>
<polygon fill="black" stroke="black" points="221.629,-60.5742 215.445,-51.9711 214.914,-62.5526 221.629,-60.5742"/>
<text text-anchor="middle" x="249.5" y="-73.4" font-family="Times Roman,serif" font-size="9.00">Yes. WEP.</text>
</g>
<!-- WPA -->
<g id="node32" class="node"><title>WPA</title>
<ellipse fill="none" stroke="black" cx="273" cy="-34" rx="27" ry="18"/>
<text text-anchor="middle" x="273" y="-31" font-family="Times Roman,serif" font-size="10.00">WPA</text>
</g>
<!-- IsWEP&#45;&gt;WPA -->
<g id="edge33" class="edge"><title>IsWEP&#45;&gt;WPA</title>
<path fill="none" stroke="black" d="M272.217,-99.7733C272.347,-88.8758 272.514,-74.7946 272.661,-62.4587"/>
<polygon fill="black" stroke="black" points="276.164,-62.2322 272.783,-52.1912 269.165,-62.1488 276.164,-62.2322"/>
<text text-anchor="middle" x="291.5" y="-73.4" font-family="Times Roman,serif" font-size="9.00">No.WPA.</text>
</g>
<!-- HasAccessPointsAroundYouCommand -->
<g id="node35" class="node"><title>HasAccessPointsAroundYouCommand</title>
<polygon fill="none" stroke="black" points="593,-722 333,-722 333,-678 593,-678 593,-722"/>
<text text-anchor="middle" x="463" y="-709" font-family="Times Roman,serif" font-size="10.00">ifconfig wlan0 down;</text>
<text text-anchor="middle" x="463" y="-697" font-family="Times Roman,serif" font-size="10.00">iwconfig wlan0 mode mon || airmon&#45;ng start wlan0;</text>
<text text-anchor="middle" x="463" y="-685" font-family="Times Roman,serif" font-size="10.00">airodump&#45;ng wlan0;</text>
</g>
<!-- HasAccessPointsAroundYouCommand&#45;&gt;HasAccessPointsAroundYou -->
<g id="edge38" class="edge"><title>HasAccessPointsAroundYouCommand&#45;&gt;HasAccessPointsAroundYou</title>
<path fill="none" stroke="gray" d="M383.886,-677.961C336.426,-664.74 277.373,-648.29 235.61,-636.656"/>
<polygon fill="gray" stroke="gray" points="236.486,-633.267 225.914,-633.955 234.608,-640.01 236.486,-633.267"/>
</g>
<!-- ImproveYourWifiAntennaCommand -->
<g id="node36" class="node"><title>ImproveYourWifiAntennaCommand</title>
<polygon fill="none" stroke="black" points="714,-722 600,-722 600,-678 714,-678 714,-722"/>
<text text-anchor="middle" x="657" y="-709" font-family="Times Roman,serif" font-size="10.00">iw reg set BO;</text>
<text text-anchor="middle" x="657" y="-697" font-family="Times Roman,serif" font-size="10.00">iwconfig wlan0 tx 30;</text>
<text text-anchor="middle" x="657" y="-685" font-family="Times Roman,serif" font-size="10.00">#Add DIY Parabora.</text>
</g>
<!-- ImproveYourWifiAntennaCommand&#45;&gt;ImproveYourWifiAntenna -->
<g id="edge40" class="edge"><title>ImproveYourWifiAntennaCommand&#45;&gt;ImproveYourWifiAntenna</title>
<path fill="none" stroke="gray" d="M613.26,-677.848C607.495,-675.118 601.633,-672.435 596,-670 496.437,-626.973 377.804,-584.183 306.816,-559.454"/>
<polygon fill="gray" stroke="gray" points="307.717,-556.062 297.122,-556.087 305.42,-562.675 307.717,-556.062"/>
</g>
<!-- IsStealthESSIDCommand -->
<g id="node37" class="node"><title>IsStealthESSIDCommand</title>
<polygon fill="none" stroke="black" points="971,-718 721,-718 721,-682 971,-682 971,-718"/>
<text text-anchor="middle" x="846" y="-697" font-family="Times Roman,serif" font-size="10.00">airodump&#45;ng &#45;c [channel] &#45;&#45;bssid [AP MAC] wlan0</text>
</g>
<!-- IsStealthESSIDCommand&#45;&gt;IsStealthESSID -->
<g id="edge42" class="edge"><title>IsStealthESSIDCommand&#45;&gt;IsStealthESSID</title>
<path fill="none" stroke="gray" d="M795.924,-681.911C666.39,-635.119 322.219,-510.793 204.858,-468.398"/>
<polygon fill="gray" stroke="gray" points="205.78,-465.01 195.185,-464.904 203.401,-471.593 205.78,-465.01"/>
</g>
<!-- DeauthAllClientCommand -->
<g id="node38" class="node"><title>DeauthAllClientCommand</title>
<polygon fill="none" stroke="black" points="1228,-718 978,-718 978,-682 1228,-682 1228,-718"/>
<text text-anchor="middle" x="1103" y="-703" font-family="Times Roman,serif" font-size="10.00">aireplay&#45;ng &#45;0 0 &#45;a [AP MAC] wlan0;</text>
<text text-anchor="middle" x="1103" y="-691" font-family="Times Roman,serif" font-size="10.00">aireplay&#45;ng &#45;0 0 &#45;a [AP MAC] &#45;c [STA MAC] wlan0;</text>
</g>
<!-- DeauthAllClientCommand&#45;&gt;DeauthAllClient -->
<g id="edge44" class="edge"><title>DeauthAllClientCommand&#45;&gt;DeauthAllClient</title>
<path fill="none" stroke="gray" d="M1031.52,-681.995C966.295,-664.526 880,-638.329 880,-622 880,-622 880,-622 880,-370 880,-304.158 392.25,-289.755 225.281,-286.753"/>
<polygon fill="gray" stroke="gray" points="225.282,-283.253 215.223,-286.58 225.161,-290.252 225.282,-283.253"/>
</g>
</g>
</svg>
