<?xml version="1.0" encoding="UTF-8" standalone="no"?>
<!DOCTYPE svg PUBLIC "-//W3C//DTD SVG 1.1//EN"
 "http://www.w3.org/Graphics/SVG/1.1/DTD/svg11.dtd">
<!-- Generated by graphviz version 2.26.3 (20100126.1600)
 -->
<!-- Title: Diagram Pages: 1 -->
<svg width="2541pt" height="1622pt"
 viewBox="0.00 0.00 2541.00 1622.00" xmlns="http://www.w3.org/2000/svg" xmlns:xlink="http://www.w3.org/1999/xlink">
<g id="graph1" class="graph" transform="scale(1 1) rotate(0) translate(4 1618)">
<title>Diagram</title>
<polygon fill="white" stroke="white" points="-4,5 -4,-1618 2538,-1618 2538,5 -4,5"/>
<g id="graph2" class="cluster"><title>clusterFail</title>
<polygon fill="none" stroke="black" points="1509,-866 1509,-1032 1673,-1032 1673,-866 1509,-866"/>
</g>
<g id="graph3" class="cluster"><title>clusterOPN</title>
<polygon fill="none" stroke="black" points="2379,-140 2379,-242 2525,-242 2525,-140 2379,-140"/>
<text text-anchor="middle" x="2452" y="-225.4" font-family="Times Roman,serif" font-size="14.00">OPN</text>
</g>
<g id="graph6" class="cluster"><title>clusterWEP</title>
<polygon fill="none" stroke="black" points="1693,-8 1693,-110 1813,-110 1813,-8 1693,-8"/>
<text text-anchor="middle" x="1753" y="-93.4" font-family="Times Roman,serif" font-size="14.00">WEP</text>
</g>
<g id="graph9" class="cluster"><title>clusterWPA</title>
<polygon fill="none" stroke="black" points="8,-774 8,-1606 387,-1606 387,-774 8,-774"/>
<text text-anchor="middle" x="197.5" y="-1589.4" font-family="Times Roman,serif" font-size="14.00">WPA</text>
</g>
<g id="graph12" class="cluster"><title>clusterPSK</title>
<polygon fill="none" stroke="black" points="188,-782 188,-1390 379,-1390 379,-782 188,-782"/>
<text text-anchor="middle" x="283.5" y="-1373.4" font-family="Times Roman,serif" font-size="14.00">PSK</text>
</g>
<g id="graph16" class="cluster"><title>clusterEAP</title>
<polygon fill="none" stroke="black" points="16,-1068 16,-1390 180,-1390 180,-1068 16,-1068"/>
<text text-anchor="middle" x="98" y="-1373.4" font-family="Times Roman,serif" font-size="14.00">EAP</text>
</g>
<g id="graph20" class="cluster"><title>clusterMain</title>
<polygon fill="none" stroke="black" points="1681,-140 1681,-1172 2371,-1172 2371,-140 1681,-140"/>
<text text-anchor="middle" x="2026" y="-1155.4" font-family="Times Roman,serif" font-size="14.00">Connecting Wireless&#45;LAN Access Point</text>
</g>
<g id="graph28" class="cluster"><title>clusterCommands</title>
<polygon fill="none" stroke="black" points="395,-1064 395,-1174 1657,-1174 1657,-1064 395,-1064"/>
<text text-anchor="middle" x="1026" y="-1157.4" font-family="Times Roman,serif" font-size="14.00">CommandsAndNotes</text>
</g>
<!-- Impossible -->
<g id="node2" class="node"><title>Impossible</title>
<ellipse fill="none" stroke="black" cx="1591" cy="-949" rx="69.8843" ry="70.3565"/>
<ellipse fill="none" stroke="black" cx="1591" cy="-949" rx="73.8575" ry="74.3565"/>
<text text-anchor="middle" x="1591" y="-946" font-family="Times Roman,serif" font-size="10.00">BluteForceAttack? :D</text>
</g>
<!-- End -->
<g id="node51" class="node"><title>End</title>
<polygon fill="none" stroke="black" points="1731,-1114 1688.91,-1084 1773.09,-1084 1731,-1114"/>
<text text-anchor="middle" x="1731" y="-1091" font-family="Times Roman,serif" font-size="10.00">End</text>
</g>
<!-- Impossible&#45;&gt;End -->
<g id="edge52" class="edge"><title>Impossible&#45;&gt;End</title>
<path fill="none" stroke="black" d="M1641.27,-1003.69C1653.13,-1014.27 1666.33,-1024.41 1680,-1032 1694.89,-1040.27 1704.96,-1029.95 1717,-1042 1725.24,-1050.25 1728.77,-1062.8 1730.23,-1073.5"/>
<polygon fill="black" stroke="black" points="1726.77,-1074.07 1731.11,-1083.73 1733.74,-1073.47 1726.77,-1074.07"/>
</g>
<!-- NothingToDo -->
<g id="node5" class="node"><title>NothingToDo</title>
<polygon fill="none" stroke="black" points="2452,-184 2387.02,-166 2452,-148 2516.98,-166 2452,-184"/>
<text text-anchor="middle" x="2452" y="-163" font-family="Times Roman,serif" font-size="10.00">NothingToDo</text>
</g>
<!-- HasWebAuthentication -->
<g id="node67" class="node"><title>HasWebAuthentication</title>
<a xlink:href="http://www.slideshare.net/support_cyberoam/hotspot-authentication" xlink:title="HasWebAuthentication">
<polygon fill="none" stroke="black" points="2187,-1112 2081.2,-1094 2187,-1076 2292.8,-1094 2187,-1112"/>
<text text-anchor="middle" x="2187" y="-1091" font-family="Times Roman,serif" font-size="10.00">HasWebAuthentication</text>
</a>
</g>
<!-- NothingToDo&#45;&gt;HasWebAuthentication -->
<g id="edge90" class="edge"><title>NothingToDo&#45;&gt;HasWebAuthentication</title>
<path fill="none" stroke="black" d="M2443.92,-182.214C2432.5,-206.671 2413,-254.748 2413,-298 2413,-949 2413,-949 2413,-949 2413,-991.175 2399.31,-1004.89 2367,-1032 2334.83,-1059 2290.26,-1074.47 2253.51,-1083.2"/>
<polygon fill="black" stroke="black" points="2252.36,-1079.88 2243.38,-1085.49 2253.9,-1086.7 2252.36,-1079.88"/>
</g>
<!-- HasClient_WEP -->
<g id="node9" class="node"><title>HasClient_WEP</title>
<polygon fill="none" stroke="black" points="1753,-52 1700.78,-34 1753,-16 1805.22,-34 1753,-52"/>
<text text-anchor="middle" x="1753" y="-31" font-family="Times Roman,serif" font-size="10.00">HasClient</text>
</g>
<!-- IsTKIP -->
<g id="node13" class="node"><title>IsTKIP</title>
<polygon fill="none" stroke="black" points="177,-1548 140.08,-1530 177,-1512 213.92,-1530 177,-1548"/>
<text text-anchor="middle" x="177" y="-1527" font-family="Times Roman,serif" font-size="10.00">IsTKIP</text>
</g>
<!-- IsPSK -->
<g id="node14" class="node"><title>IsPSK</title>
<polygon fill="none" stroke="black" points="177,-1464 140.933,-1446 177,-1428 213.067,-1446 177,-1464"/>
<text text-anchor="middle" x="177" y="-1443" font-family="Times Roman,serif" font-size="10.00">IsPSK</text>
</g>
<!-- IsTKIP&#45;&gt;IsPSK -->
<g id="edge14" class="edge"><title>IsTKIP&#45;&gt;IsPSK</title>
<path fill="none" stroke="black" d="M177,-1511.77C177,-1500.88 177,-1486.79 177,-1474.46"/>
<polygon fill="black" stroke="black" points="180.5,-1474.19 177,-1464.19 173.5,-1474.19 180.5,-1474.19"/>
<text text-anchor="middle" x="185" y="-1485.4" font-family="Times Roman,serif" font-size="9.00">No.</text>
</g>
<!-- HasWPS_PSK -->
<g id="node15" class="node"><title>HasWPS_PSK</title>
<a xlink:href="http://code.google.com/p/reaver-wps/source/browse/trunk/docs/README.WASH?r=87" xlink:title="HasWPS">
<polygon fill="none" stroke="black" points="243,-1332 195.878,-1314 243,-1296 290.122,-1314 243,-1332"/>
<text text-anchor="middle" x="243" y="-1311" font-family="Times Roman,serif" font-size="10.00">HasWPS</text>
</a>
</g>
<!-- IsTKIP&#45;&gt;HasWPS_PSK -->
<g id="edge12" class="edge"><title>IsTKIP&#45;&gt;HasWPS_PSK</title>
<path fill="none" stroke="black" d="M186.892,-1516.56C195.866,-1503.71 208.766,-1483.46 216,-1464 231.257,-1422.96 238.072,-1372.29 240.983,-1341.6"/>
<polygon fill="black" stroke="black" points="244.471,-1341.89 241.857,-1331.63 237.497,-1341.28 244.471,-1341.89"/>
<text text-anchor="middle" x="236.5" y="-1443.4" font-family="Times Roman,serif" font-size="9.00">Yes.</text>
</g>
<!-- IsPSK&#45;&gt;HasWPS_PSK -->
<g id="edge16" class="edge"><title>IsPSK&#45;&gt;HasWPS_PSK</title>
<path fill="none" stroke="black" d="M184.315,-1431.37C195.495,-1409.01 216.966,-1366.07 230.607,-1338.79"/>
<polygon fill="black" stroke="black" points="233.902,-1340.02 235.244,-1329.51 227.641,-1336.89 233.902,-1340.02"/>
<text text-anchor="middle" x="210.5" y="-1401.4" font-family="Times Roman,serif" font-size="9.00">Yes.</text>
</g>
<!-- HasClient_EAP -->
<g id="node16" class="node"><title>HasClient_EAP</title>
<polygon fill="none" stroke="black" points="120,-1332 67.7761,-1314 120,-1296 172.224,-1314 120,-1332"/>
<text text-anchor="middle" x="120" y="-1311" font-family="Times Roman,serif" font-size="10.00">HasClient</text>
</g>
<!-- IsPSK&#45;&gt;HasClient_EAP -->
<g id="edge18" class="edge"><title>IsPSK&#45;&gt;HasClient_EAP</title>
<path fill="none" stroke="black" d="M170.572,-1431.11C160.926,-1408.78 142.588,-1366.31 130.846,-1339.12"/>
<polygon fill="black" stroke="black" points="134.024,-1337.65 126.846,-1329.85 127.598,-1340.42 134.024,-1337.65"/>
<text text-anchor="middle" x="169.5" y="-1401.4" font-family="Times Roman,serif" font-size="9.00">NO.</text>
</g>
<!-- HasClient_PSK -->
<g id="node24" class="node"><title>HasClient_PSK</title>
<polygon fill="none" stroke="black" points="248,-1112 195.776,-1094 248,-1076 300.224,-1094 248,-1112"/>
<text text-anchor="middle" x="248" y="-1091" font-family="Times Roman,serif" font-size="10.00">HasClient</text>
</g>
<!-- HasWPS_PSK&#45;&gt;HasClient_PSK -->
<g id="edge30" class="edge"><title>HasWPS_PSK&#45;&gt;HasClient_PSK</title>
<path fill="none" stroke="black" d="M239.702,-1296.99C237.303,-1283.71 234.262,-1264.76 233,-1248 229.643,-1203.43 236.986,-1151.74 242.538,-1121.02"/>
<polygon fill="black" stroke="black" points="246,-1121.54 244.407,-1111.07 239.121,-1120.25 246,-1121.54"/>
<text text-anchor="middle" x="241" y="-1227.4" font-family="Times Roman,serif" font-size="9.00">No.</text>
</g>
<!-- IsWeakWPS -->
<g id="node25" class="node"><title>IsWeakWPS</title>
<a xlink:href="https://scotthelme.co.uk/wifi-insecurity-wps/" xlink:title="IsWeakWPS">
<polygon fill="none" stroke="black" points="312,-1248 252.971,-1230 312,-1212 371.029,-1230 312,-1248"/>
<text text-anchor="middle" x="312" y="-1227" font-family="Times Roman,serif" font-size="10.00">IsWeakWPS</text>
</a>
</g>
<!-- HasWPS_PSK&#45;&gt;IsWeakWPS -->
<g id="edge24" class="edge"><title>HasWPS_PSK&#45;&gt;IsWeakWPS</title>
<path fill="none" stroke="black" d="M254.394,-1300.13C265.052,-1287.15 281.154,-1267.55 293.628,-1252.37"/>
<polygon fill="black" stroke="black" points="296.483,-1254.4 300.126,-1244.46 291.074,-1249.96 296.483,-1254.4"/>
<text text-anchor="middle" x="291.5" y="-1269.4" font-family="Times Roman,serif" font-size="9.00">Yes.</text>
</g>
<!-- HasClient_EAP&#45;&gt;Impossible -->
<g id="edge44" class="edge"><title>HasClient_EAP&#45;&gt;Impossible</title>
<path fill="none" stroke="black" d="M147.459,-1305.43C159.484,-1301.99 173.829,-1298.3 187,-1296 348.569,-1267.83 1546.93,-1294.67 1658,-1174 1697.45,-1131.14 1671.97,-1066.01 1641.76,-1016.83"/>
<polygon fill="black" stroke="black" points="1644.58,-1014.74 1636.28,-1008.16 1638.66,-1018.48 1644.58,-1014.74"/>
<text text-anchor="middle" x="1657" y="-1185.4" font-family="Times Roman,serif" font-size="9.00">No.</text>
</g>
<!-- SetupRougeAP -->
<g id="node41" class="node"><title>SetupRougeAP</title>
<polygon fill="none" stroke="black" points="149,-1248 63,-1248 63,-1212 149,-1212 149,-1248"/>
<text text-anchor="middle" x="106" y="-1227" font-family="Times Roman,serif" font-size="10.00">SetupRougeAP</text>
</g>
<!-- HasClient_EAP&#45;&gt;SetupRougeAP -->
<g id="edge42" class="edge"><title>HasClient_EAP&#45;&gt;SetupRougeAP</title>
<path fill="none" stroke="black" d="M117.099,-1296.6C115.26,-1285.56 112.837,-1271.02 110.724,-1258.35"/>
<polygon fill="black" stroke="black" points="114.139,-1257.54 109.042,-1248.25 107.234,-1258.69 114.139,-1257.54"/>
<text text-anchor="middle" x="123.5" y="-1269.4" font-family="Times Roman,serif" font-size="9.00">Yes.</text>
</g>
<!-- HasClient_PSK&#45;&gt;Impossible -->
<g id="edge34" class="edge"><title>HasClient_PSK&#45;&gt;Impossible</title>
<path fill="none" stroke="black" d="M265.855,-1082.03C276.474,-1075.54 290.474,-1068.04 304,-1064 530.832,-996.196 1258.54,-962.023 1506.96,-952.117"/>
<polygon fill="black" stroke="black" points="1507.16,-955.612 1517.01,-951.719 1506.88,-948.618 1507.16,-955.612"/>
<text text-anchor="middle" x="392" y="-1045.4" font-family="Times Roman,serif" font-size="9.00">No.</text>
</g>
<!-- SetupRougeAccessPointOrDeauthClient -->
<g id="node27" class="node"><title>SetupRougeAccessPointOrDeauthClient</title>
<polygon fill="none" stroke="black" points="196,-931 196,-967 362,-967 362,-931 196,-931"/>
<text text-anchor="middle" x="239.5" y="-946" font-family="Times Roman,serif" font-size="10.00">SetupRougeAP</text>
<polyline fill="none" stroke="black" points="283,-931 283,-967 "/>
<text text-anchor="middle" x="322.5" y="-946" font-family="Times Roman,serif" font-size="10.00">DeauthClient</text>
</g>
<!-- HasClient_PSK&#45;&gt;SetupRougeAccessPointOrDeauthClient -->
<g id="edge32" class="edge"><title>HasClient_PSK&#45;&gt;SetupRougeAccessPointOrDeauthClient</title>
<path fill="none" stroke="black" d="M251.617,-1077.08C256.851,-1052.6 266.605,-1006.98 272.947,-977.31"/>
<polygon fill="black" stroke="black" points="276.447,-977.683 275.115,-967.172 269.602,-976.219 276.447,-977.683"/>
<text text-anchor="middle" x="268.5" y="-1045.4" font-family="Times Roman,serif" font-size="9.00">Yes.</text>
</g>
<!-- IsWeakWPS&#45;&gt;HasClient_PSK -->
<g id="edge28" class="edge"><title>IsWeakWPS&#45;&gt;HasClient_PSK</title>
<path fill="none" stroke="black" d="M304.533,-1214.13C293.502,-1190.69 272.749,-1146.59 259.689,-1118.84"/>
<polygon fill="black" stroke="black" points="262.844,-1117.32 255.419,-1109.77 256.51,-1120.3 262.844,-1117.32"/>
<text text-anchor="middle" x="303" y="-1185.4" font-family="Times Roman,serif" font-size="9.00">No.</text>
</g>
<!-- CrackWPS -->
<g id="node29" class="node"><title>CrackWPS</title>
<a xlink:href="http://lifehacker.com/5873407/how-to-crack-a-wi-fi-networks-wpa-password-with-reaver" xlink:title="CrackWPS">
<polygon fill="none" stroke="black" points="371,-1112 307,-1112 307,-1076 371,-1076 371,-1112"/>
<text text-anchor="middle" x="339" y="-1091" font-family="Times Roman,serif" font-size="10.00">CrackWPS</text>
</a>
</g>
<!-- IsWeakWPS&#45;&gt;CrackWPS -->
<g id="edge26" class="edge"><title>IsWeakWPS&#45;&gt;CrackWPS</title>
<path fill="none" stroke="black" d="M315.42,-1212.78C319.929,-1190.06 327.926,-1149.78 333.343,-1122.49"/>
<polygon fill="black" stroke="black" points="336.836,-1122.88 335.35,-1112.39 329.97,-1121.51 336.836,-1122.88"/>
<text text-anchor="middle" x="331.5" y="-1185.4" font-family="Times Roman,serif" font-size="9.00">Yes.</text>
</g>
<!-- StealHandShake -->
<g id="node28" class="node"><title>StealHandShake</title>
<polygon fill="none" stroke="black" points="327,-826 231,-826 231,-790 327,-790 327,-826"/>
<text text-anchor="middle" x="279" y="-805" font-family="Times Roman,serif" font-size="10.00">StealHandShake</text>
</g>
<!-- SetupRougeAccessPointOrDeauthClient&#45;&gt;StealHandShake -->
<g id="edge36" class="edge"><title>SetupRougeAccessPointOrDeauthClient&#45;&gt;StealHandShake</title>
<path fill="none" stroke="black" d="M279,-930.855C279,-906.849 279,-864.286 279,-836.103"/>
<polygon fill="black" stroke="black" points="282.5,-836.075 279,-826.075 275.5,-836.075 282.5,-836.075"/>
</g>
<!-- CrackWPS&#45;&gt;HasWebAuthentication -->
<g id="edge92" class="edge"><title>CrackWPS&#45;&gt;HasWebAuthentication</title>
<path fill="none" stroke="black" d="M343.662,-1112.26C350.757,-1135.77 366.755,-1175.67 397,-1193 432.717,-1213.47 1838.33,-1199.38 1879,-1193 1978.66,-1177.38 2090.09,-1134.94 2147.71,-1111.01"/>
<polygon fill="black" stroke="black" points="2149.29,-1114.15 2157.16,-1107.05 2146.59,-1107.69 2149.29,-1114.15"/>
</g>
<!-- CaptureChallangeResponse -->
<g id="node42" class="node"><title>CaptureChallangeResponse</title>
<polygon fill="none" stroke="black" points="172,-1112 24,-1112 24,-1076 172,-1076 172,-1112"/>
<text text-anchor="middle" x="98" y="-1091" font-family="Times Roman,serif" font-size="10.00">CaptureChallangeResponse</text>
</g>
<!-- SetupRougeAP&#45;&gt;CaptureChallangeResponse -->
<g id="edge46" class="edge"><title>SetupRougeAP&#45;&gt;CaptureChallangeResponse</title>
<path fill="none" stroke="black" d="M104.938,-1211.94C103.587,-1188.98 101.24,-1149.08 99.654,-1122.12"/>
<polygon fill="black" stroke="black" points="103.148,-1121.91 99.0667,-1112.13 96.1601,-1122.32 103.148,-1121.91"/>
</g>
<!-- Start -->
<g id="node49" class="node"><title>Start</title>
<polygon fill="none" stroke="black" points="1829,-1074 1877.81,-1104 1780.19,-1104 1829,-1074"/>
<text text-anchor="middle" x="1829" y="-1091" font-family="Times Roman,serif" font-size="10.00">Start</text>
</g>
<!-- HasAccessPointsAroundYou -->
<g id="node61" class="node"><title>HasAccessPointsAroundYou</title>
<a xlink:href="http://www.aircrack-ng.org/doku.php?id=airodump-ng" xlink:title="HasAccessPointsAroundYou">
<polygon fill="none" stroke="black" points="1815,-967 1688.79,-949 1815,-931 1941.21,-949 1815,-967"/>
<text text-anchor="middle" x="1815" y="-946" font-family="Times Roman,serif" font-size="10.00">HasAccessPointsAroundYou</text>
</a>
</g>
<!-- Start&#45;&gt;HasAccessPointsAroundYou -->
<g id="edge58" class="edge"><title>Start&#45;&gt;HasAccessPointsAroundYou</title>
<path fill="none" stroke="black" d="M1827.17,-1075.04C1824.76,-1050.13 1820.52,-1006.16 1817.73,-977.298"/>
<polygon fill="black" stroke="black" points="1821.19,-976.666 1816.74,-967.048 1814.22,-977.338 1821.19,-976.666"/>
<text text-anchor="middle" x="1836" y="-1045.4" font-family="Times Roman,serif" font-size="9.00">Fine.</text>
</g>
<!-- End&#45;&gt;Impossible -->
<!-- ImproveYourWifiAntenna -->
<g id="node56" class="node"><title>ImproveYourWifiAntenna</title>
<a xlink:href="http://www.instructables.com/id/DIY-WIFI-Antenna-Reception-Booster/" xlink:title="ImproveYourWifiAntenna">
<polygon fill="none" stroke="black" points="1819,-826 1689,-826 1689,-790 1819,-790 1819,-826"/>
<text text-anchor="middle" x="1754" y="-805" font-family="Times Roman,serif" font-size="10.00">ImproveYourWifiAntenna</text>
</a>
</g>
<!-- IsStealthESSID -->
<g id="node62" class="node"><title>IsStealthESSID</title>
<a xlink:href="http://securitysynapse.blogspot.jp/2014/01/wireless-pentesting-on-cheap-kali-hiddenSSID.html" xlink:title="IsStealthESSID">
<polygon fill="none" stroke="black" points="1799,-736 1724.16,-718 1799,-700 1873.84,-718 1799,-736"/>
<text text-anchor="middle" x="1799" y="-715" font-family="Times Roman,serif" font-size="10.00">IsStealthESSID</text>
</a>
</g>
<!-- ImproveYourWifiAntenna&#45;&gt;IsStealthESSID -->
<g id="edge64" class="edge"><title>ImproveYourWifiAntenna&#45;&gt;IsStealthESSID</title>
<path fill="none" stroke="black" d="M1763.11,-789.787C1769.81,-776.388 1779,-758.008 1786.4,-743.201"/>
<polygon fill="black" stroke="black" points="1789.62,-744.584 1790.96,-734.074 1783.36,-741.453 1789.62,-744.584"/>
<text text-anchor="middle" x="1805.5" y="-757.4" font-family="Times Roman,serif" font-size="9.00">OK I got it.</text>
</g>
<!-- DeauthAllClient -->
<g id="node57" class="node"><title>DeauthAllClient</title>
<a xlink:href="http://www.aircrack-ng.org/doku.php?id=deauthentication" xlink:title="DeauthAllClient">
<polygon fill="none" stroke="black" points="1844,-568 1754,-568 1754,-532 1844,-532 1844,-568"/>
<text text-anchor="middle" x="1799" y="-547" font-family="Times Roman,serif" font-size="10.00">DeauthAllClient</text>
</a>
</g>
<!-- HasHardwareAddressFiltering -->
<g id="node64" class="node"><title>HasHardwareAddressFiltering</title>
<a xlink:href="http://synjunkie.blogspot.jp/2007/12/bypass-hidden-ssid-mac-address-filter.html" xlink:title="HasHardwareAddressFiltering">
<polygon fill="none" stroke="black" points="1852,-484 1718.98,-466 1852,-448 1985.02,-466 1852,-484"/>
<text text-anchor="middle" x="1852" y="-463" font-family="Times Roman,serif" font-size="10.00">HasHardwareAddressFiltering</text>
</a>
</g>
<!-- DeauthAllClient&#45;&gt;HasHardwareAddressFiltering -->
<g id="edge74" class="edge"><title>DeauthAllClient&#45;&gt;HasHardwareAddressFiltering</title>
<path fill="none" stroke="black" d="M1810.5,-531.773C1817.97,-519.933 1827.81,-504.335 1836.04,-491.301"/>
<polygon fill="black" stroke="black" points="1839.05,-493.089 1841.42,-482.764 1833.13,-489.353 1839.05,-493.089"/>
<text text-anchor="middle" x="1856.5" y="-505.4" font-family="Times Roman,serif" font-size="9.00">I got ESSID.</text>
</g>
<!-- SpoofHardwareAddress -->
<g id="node58" class="node"><title>SpoofHardwareAddress</title>
<a xlink:href="http://www.securethelock.com/2013/12/03/how-to-bypass-mac-address-filtering-using-backtrackkali-linux/" xlink:title="SpoofHardwareAddress">
<polygon fill="none" stroke="black" points="1817,-400 1689,-400 1689,-364 1817,-364 1817,-400"/>
<text text-anchor="middle" x="1753" y="-379" font-family="Times Roman,serif" font-size="10.00">SpoofHardwareAddress</text>
</a>
</g>
<!-- HasEncryption -->
<g id="node65" class="node"><title>HasEncryption</title>
<a xlink:href="http://www.dummies.com/how-to/content/wireless-security-protocols-wep-wpa-and-wpa2.html" xlink:title="HasEncryption">
<polygon fill="none" stroke="black" points="1835,-316 1761.86,-298 1835,-280 1908.14,-298 1835,-316"/>
<text text-anchor="middle" x="1835" y="-295" font-family="Times Roman,serif" font-size="10.00">HasEncryption</text>
</a>
</g>
<!-- SpoofHardwareAddress&#45;&gt;HasEncryption -->
<g id="edge80" class="edge"><title>SpoofHardwareAddress&#45;&gt;HasEncryption</title>
<path fill="none" stroke="black" d="M1734.72,-363.909C1727.52,-354.574 1722.38,-343.24 1729,-334 1736.06,-324.141 1761.43,-315.339 1785.58,-308.906"/>
<polygon fill="black" stroke="black" points="1786.62,-312.253 1795.44,-306.386 1784.89,-305.471 1786.62,-312.253"/>
<text text-anchor="middle" x="1817.5" y="-337.4" font-family="Times Roman,serif" font-size="9.00">I could associate with AP(or WEP&#45;SKA.</text>
</g>
<!-- SpoofHardwareAddress2 -->
<g id="node59" class="node"><title>SpoofHardwareAddress2</title>
<a xlink:href="http://www.securethelock.com/2013/12/03/how-to-bypass-mac-address-filtering-using-backtrackkali-linux/" xlink:title="SpoofHardwareAddressToClient&#39;sOne">
<polygon fill="none" stroke="black" points="2185,-826 1993,-826 1993,-790 2185,-790 2185,-826"/>
<text text-anchor="middle" x="2089" y="-805" font-family="Times Roman,serif" font-size="10.00">SpoofHardwareAddressToClient&#39;sOne</text>
</a>
</g>
<!-- HasAccessPointsAroundYou&#45;&gt;ImproveYourWifiAntenna -->
<g id="edge62" class="edge"><title>HasAccessPointsAroundYou&#45;&gt;ImproveYourWifiAntenna</title>
<path fill="none" stroke="black" d="M1807.64,-931.992C1797.32,-908.143 1778.43,-864.48 1766.05,-835.851"/>
<polygon fill="black" stroke="black" points="1769.15,-834.197 1761.96,-826.408 1762.72,-836.976 1769.15,-834.197"/>
<text text-anchor="middle" x="1782" y="-847.4" font-family="Times Roman,serif" font-size="9.00">No.</text>
</g>
<!-- HasAccessPointsAroundYou&#45;&gt;IsStealthESSID -->
<g id="edge60" class="edge"><title>HasAccessPointsAroundYou&#45;&gt;IsStealthESSID</title>
<path fill="none" stroke="black" d="M1820.61,-931.689C1830.94,-896.877 1850.01,-816.395 1828,-754 1826.32,-749.236 1823.71,-744.639 1820.74,-740.414"/>
<polygon fill="black" stroke="black" points="1823.26,-737.965 1814.29,-732.332 1817.79,-742.331 1823.26,-737.965"/>
<text text-anchor="middle" x="1847" y="-805.4" font-family="Times Roman,serif" font-size="9.00">Yes</text>
</g>
<!-- IsThereConnectedClient -->
<g id="node63" class="node"><title>IsThereConnectedClient</title>
<a xlink:href="http://blackhat6969.blogspot.jp/2012/09/down-and-dirty-wifi-cracking-with.html" xlink:title="IsThereConnectedClient">
<polygon fill="none" stroke="black" points="1799,-652 1688.95,-634 1799,-616 1909.05,-634 1799,-652"/>
<text text-anchor="middle" x="1799" y="-631" font-family="Times Roman,serif" font-size="10.00">IsThereConnectedClient</text>
</a>
</g>
<!-- IsStealthESSID&#45;&gt;IsThereConnectedClient -->
<g id="edge66" class="edge"><title>IsStealthESSID&#45;&gt;IsThereConnectedClient</title>
<path fill="none" stroke="black" d="M1799,-699.773C1799,-688.876 1799,-674.795 1799,-662.459"/>
<polygon fill="black" stroke="black" points="1802.5,-662.191 1799,-652.191 1795.5,-662.191 1802.5,-662.191"/>
<text text-anchor="middle" x="1808.5" y="-673.4" font-family="Times Roman,serif" font-size="9.00">Yes.</text>
</g>
<!-- IsStealthESSID&#45;&gt;HasHardwareAddressFiltering -->
<g id="edge72" class="edge"><title>IsStealthESSID&#45;&gt;HasHardwareAddressFiltering</title>
<path fill="none" stroke="black" d="M1844.81,-710.908C1879.12,-702.934 1923.81,-686.289 1946,-652 1982.15,-596.135 1917.84,-524.538 1878.76,-488.648"/>
<polygon fill="black" stroke="black" points="1880.63,-485.622 1870.85,-481.55 1875.95,-490.833 1880.63,-485.622"/>
<text text-anchor="middle" x="1962" y="-589.4" font-family="Times Roman,serif" font-size="9.00">No.</text>
</g>
<!-- IsThereConnectedClient&#45;&gt;DeauthAllClient -->
<g id="edge68" class="edge"><title>IsThereConnectedClient&#45;&gt;DeauthAllClient</title>
<path fill="none" stroke="black" d="M1799,-615.773C1799,-604.876 1799,-590.795 1799,-578.459"/>
<polygon fill="black" stroke="black" points="1802.5,-578.191 1799,-568.191 1795.5,-578.191 1802.5,-578.191"/>
<text text-anchor="middle" x="1808.5" y="-589.4" font-family="Times Roman,serif" font-size="9.00">Yes.</text>
</g>
<!-- IsThereConnectedClient&#45;&gt;IsThereConnectedClient -->
<g id="edge70" class="edge"><title>IsThereConnectedClient&#45;&gt;IsThereConnectedClient</title>
<path fill="none" stroke="black" d="M1861.89,-641.728C1890.8,-642.544 1916,-639.968 1916,-634 1916,-628.755 1896.54,-626.13 1872.19,-626.125"/>
<polygon fill="black" stroke="black" points="1871.84,-622.63 1861.89,-626.272 1871.94,-629.629 1871.84,-622.63"/>
<text text-anchor="middle" x="1924" y="-631.4" font-family="Times Roman,serif" font-size="9.00">No.</text>
</g>
<!-- HasHardwareAddressFiltering&#45;&gt;SpoofHardwareAddress -->
<g id="edge76" class="edge"><title>HasHardwareAddressFiltering&#45;&gt;SpoofHardwareAddress</title>
<path fill="none" stroke="black" d="M1833.38,-450.2C1818.94,-437.948 1798.66,-420.742 1782.09,-406.678"/>
<polygon fill="black" stroke="black" points="1784.18,-403.863 1774.29,-400.062 1779.65,-409.201 1784.18,-403.863"/>
<text text-anchor="middle" x="1818.5" y="-421.4" font-family="Times Roman,serif" font-size="9.00">Yes.</text>
</g>
<!-- HasHardwareAddressFiltering&#45;&gt;HasEncryption -->
<g id="edge78" class="edge"><title>HasHardwareAddressFiltering&#45;&gt;HasEncryption</title>
<path fill="none" stroke="black" d="M1867.37,-449.739C1889.77,-423.975 1926.32,-372.727 1903,-334 1897.25,-324.45 1888.02,-317.3 1878.2,-312.002"/>
<polygon fill="black" stroke="black" points="1879.62,-308.801 1869.09,-307.64 1876.59,-315.115 1879.62,-308.801"/>
<text text-anchor="middle" x="1918" y="-379.4" font-family="Times Roman,serif" font-size="9.00">No.</text>
</g>
<!-- HasEncryption&#45;&gt;NothingToDo -->
<g id="edge82" class="edge"><title>HasEncryption&#45;&gt;NothingToDo</title>
<path fill="none" stroke="black" d="M1901.63,-296.373C2026.35,-292.462 2289.85,-279.858 2372,-242 2397.57,-230.217 2420.14,-206.919 2434.74,-189.208"/>
<polygon fill="black" stroke="black" points="2437.75,-191.042 2441.24,-181.037 2432.27,-186.683 2437.75,-191.042"/>
<text text-anchor="middle" x="2357" y="-253.4" font-family="Times Roman,serif" font-size="9.00">No.</text>
</g>
<!-- IsWEP -->
<g id="node66" class="node"><title>IsWEP</title>
<a xlink:href="http://www.howtogeek.com/167783/htg-explains-the-difference-between-wep-wpa-and-wpa2-wireless-encryption-and-why-it-matters/" xlink:title="IsWEP">
<polygon fill="none" stroke="black" points="1753,-184 1716.08,-166 1753,-148 1789.92,-166 1753,-184"/>
<text text-anchor="middle" x="1753" y="-163" font-family="Times Roman,serif" font-size="10.00">IsWEP</text>
</a>
</g>
<!-- HasEncryption&#45;&gt;IsWEP -->
<g id="edge84" class="edge"><title>HasEncryption&#45;&gt;IsWEP</title>
<path fill="none" stroke="black" d="M1825.27,-282.34C1810.85,-259.126 1783.72,-215.456 1767.12,-188.724"/>
<polygon fill="black" stroke="black" points="1769.97,-186.684 1761.72,-180.036 1764.02,-190.378 1769.97,-186.684"/>
<text text-anchor="middle" x="1820.5" y="-253.4" font-family="Times Roman,serif" font-size="9.00">Yes.</text>
</g>
<!-- IsWEP&#45;&gt;HasClient_WEP -->
<g id="edge86" class="edge"><title>IsWEP&#45;&gt;HasClient_WEP</title>
<path fill="none" stroke="black" d="M1753,-147.923C1753,-125.928 1753,-88.5282 1753,-62.6093"/>
<polygon fill="black" stroke="black" points="1756.5,-62.2825 1753,-52.2825 1749.5,-62.2826 1756.5,-62.2825"/>
<text text-anchor="middle" x="1762.5" y="-121.4" font-family="Times Roman,serif" font-size="9.00">Yes.</text>
</g>
<!-- IsWEP&#45;&gt;IsTKIP -->
<g id="edge88" class="edge"><title>IsWEP&#45;&gt;IsTKIP</title>
<path fill="none" stroke="black" d="M1717.27,-166.766C1468.43,-172.326 4,-208.836 4,-298 4,-1446 4,-1446 4,-1446 4,-1476.61 92.7584,-1506.47 143.124,-1520.94"/>
<polygon fill="black" stroke="black" points="142.371,-1524.37 152.945,-1523.71 144.27,-1517.63 142.371,-1524.37"/>
<text text-anchor="middle" x="12" y="-757.4" font-family="Times Roman,serif" font-size="9.00">No.</text>
</g>
<!-- HasAccount -->
<g id="node68" class="node"><title>HasAccount</title>
<polygon fill="none" stroke="black" points="2300,-967 2237.07,-949 2300,-931 2362.93,-949 2300,-967"/>
<text text-anchor="middle" x="2300" y="-946" font-family="Times Roman,serif" font-size="10.00">HasAccount</text>
</g>
<!-- HasWebAuthentication&#45;&gt;HasAccount -->
<g id="edge94" class="edge"><title>HasWebAuthentication&#45;&gt;HasAccount</title>
<path fill="none" stroke="black" d="M2199.52,-1077.93C2219.61,-1052.16 2259.09,-1001.49 2282.13,-971.93"/>
<polygon fill="black" stroke="black" points="2285.05,-973.875 2288.44,-963.836 2279.53,-969.572 2285.05,-973.875"/>
<text text-anchor="middle" x="2235.5" y="-1045.4" font-family="Times Roman,serif" font-size="9.00">Yes.</text>
</g>
<!-- HasClient_Web -->
<g id="node69" class="node"><title>HasClient_Web</title>
<polygon fill="none" stroke="black" points="2089,-967 1947.83,-949 2089,-931 2230.17,-949 2089,-967"/>
<text text-anchor="middle" x="2089" y="-946" font-family="Times Roman,serif" font-size="10.00">HasAlreadyAuthenticatedClient</text>
</g>
<!-- HasWebAuthentication&#45;&gt;HasClient_Web -->
<g id="edge96" class="edge"><title>HasWebAuthentication&#45;&gt;HasClient_Web</title>
<path fill="none" stroke="black" d="M2175.95,-1077.65C2158.98,-1052.55 2126.38,-1004.3 2106.27,-974.554"/>
<polygon fill="black" stroke="black" points="2108.96,-972.288 2100.46,-965.963 2103.16,-976.208 2108.96,-972.288"/>
<text text-anchor="middle" x="2166" y="-1045.4" font-family="Times Roman,serif" font-size="9.00">No.</text>
</g>
<!-- HasClient_Web&#45;&gt;Impossible -->
<g id="edge100" class="edge"><title>HasClient_Web&#45;&gt;Impossible</title>
<path fill="none" stroke="black" d="M2069.3,-964.503C2042.66,-984.436 1992.83,-1018.13 1944,-1032 1933.37,-1035.02 1726.36,-1052.01 1680,-1032 1668.52,-1027.04 1657.59,-1019.94 1647.57,-1011.96"/>
<polygon fill="black" stroke="black" points="1649.65,-1009.13 1639.74,-1005.38 1645.15,-1014.49 1649.65,-1009.13"/>
<text text-anchor="middle" x="1773" y="-1045.4" font-family="Times Roman,serif" font-size="9.00">No.</text>
</g>
<!-- HasClient_Web&#45;&gt;SpoofHardwareAddress2 -->
<g id="edge98" class="edge"><title>HasClient_Web&#45;&gt;SpoofHardwareAddress2</title>
<path fill="none" stroke="black" d="M2089,-930.855C2089,-906.849 2089,-864.286 2089,-836.103"/>
<polygon fill="black" stroke="black" points="2092.5,-836.075 2089,-826.075 2085.5,-836.075 2092.5,-836.075"/>
<text text-anchor="middle" x="2098.5" y="-847.4" font-family="Times Roman,serif" font-size="9.00">Yes.</text>
</g>
<!-- HasAccessPointsAroundYouCommand -->
<g id="node95" class="node"><title>HasAccessPointsAroundYouCommand</title>
<polygon fill="none" stroke="black" points="1649,-1116 1389,-1116 1389,-1072 1649,-1072 1649,-1116"/>
<text text-anchor="middle" x="1519" y="-1103" font-family="Times Roman,serif" font-size="10.00">ifconfig wlan0 down;</text>
<text text-anchor="middle" x="1519" y="-1091" font-family="Times Roman,serif" font-size="10.00">iwconfig wlan0 mode mon || airmon&#45;ng start wlan0;</text>
<text text-anchor="middle" x="1519" y="-1079" font-family="Times Roman,serif" font-size="10.00">airodump&#45;ng wlan0;</text>
</g>
<!-- HasAccessPointsAroundYouCommand&#45;&gt;HasAccessPointsAroundYou -->
<g id="edge105" class="edge"><title>HasAccessPointsAroundYouCommand&#45;&gt;HasAccessPointsAroundYou</title>
<path fill="none" stroke="gray" d="M1580.29,-1071.94C1609.16,-1060.93 1643.82,-1046.81 1674,-1032 1712.89,-1012.91 1755.48,-987.115 1783.56,-969.373"/>
<polygon fill="gray" stroke="gray" points="1785.59,-972.233 1792.15,-963.914 1781.83,-966.326 1785.59,-972.233"/>
</g>
<!-- ImproveYourWifiAntennaCommand -->
<g id="node96" class="node"><title>ImproveYourWifiAntennaCommand</title>
<polygon fill="none" stroke="black" points="1382,-1116 1268,-1116 1268,-1072 1382,-1072 1382,-1116"/>
<text text-anchor="middle" x="1325" y="-1103" font-family="Times Roman,serif" font-size="10.00">iw reg set BO;</text>
<text text-anchor="middle" x="1325" y="-1091" font-family="Times Roman,serif" font-size="10.00">iwconfig wlan0 tx 30;</text>
<text text-anchor="middle" x="1325" y="-1079" font-family="Times Roman,serif" font-size="10.00">#Add DIY Parabora.</text>
</g>
<!-- ImproveYourWifiAntennaCommand&#45;&gt;ImproveYourWifiAntenna -->
<g id="edge107" class="edge"><title>ImproveYourWifiAntennaCommand&#45;&gt;ImproveYourWifiAntenna</title>
<path fill="none" stroke="gray" d="M1336.21,-1071.75C1360.66,-1025.62 1423.44,-919.367 1508,-866 1536.16,-848.225 1617.42,-831.136 1678.91,-820.17"/>
<polygon fill="gray" stroke="gray" points="1679.74,-823.578 1688.98,-818.397 1678.52,-816.684 1679.74,-823.578"/>
</g>
<!-- IsStealthESSIDCommand -->
<g id="node97" class="node"><title>IsStealthESSIDCommand</title>
<polygon fill="none" stroke="black" points="1261,-1112 1011,-1112 1011,-1076 1261,-1076 1261,-1112"/>
<text text-anchor="middle" x="1136" y="-1091" font-family="Times Roman,serif" font-size="10.00">airodump&#45;ng &#45;c [channel] &#45;&#45;bssid [AP MAC] wlan0</text>
</g>
<!-- IsStealthESSIDCommand&#45;&gt;IsStealthESSID -->
<g id="edge109" class="edge"><title>IsStealthESSIDCommand&#45;&gt;IsStealthESSID</title>
<path fill="none" stroke="gray" d="M1148.94,-1075.78C1180.19,-1033.04 1264.27,-925.456 1359,-866 1485.4,-786.668 1659.15,-744.668 1745.62,-727.501"/>
<polygon fill="gray" stroke="gray" points="1746.33,-730.929 1755.47,-725.578 1744.98,-724.058 1746.33,-730.929"/>
</g>
<!-- DeauthAllClientCommand -->
<g id="node98" class="node"><title>DeauthAllClientCommand</title>
<polygon fill="none" stroke="black" points="1004,-1112 754,-1112 754,-1076 1004,-1076 1004,-1112"/>
<text text-anchor="middle" x="879" y="-1097" font-family="Times Roman,serif" font-size="10.00">aireplay&#45;ng &#45;0 0 &#45;a [AP MAC] wlan0;</text>
<text text-anchor="middle" x="879" y="-1085" font-family="Times Roman,serif" font-size="10.00">aireplay&#45;ng &#45;0 0 &#45;a [AP MAC] &#45;c [STA MAC] wlan0;</text>
</g>
<!-- DeauthAllClientCommand&#45;&gt;DeauthAllClient -->
<g id="edge111" class="edge"><title>DeauthAllClientCommand&#45;&gt;DeauthAllClient</title>
<path fill="none" stroke="gray" d="M900.338,-1075.74C927.516,-1050.33 971,-1001.47 971,-949 971,-949 971,-949 971,-634 971,-595.047 1558.68,-562.108 1743.83,-552.697"/>
<polygon fill="gray" stroke="gray" points="1744.08,-556.189 1753.9,-552.188 1743.73,-549.198 1744.08,-556.189"/>
</g>
<!-- SpoofHardwareAddressCommand -->
<g id="node99" class="node"><title>SpoofHardwareAddressCommand</title>
<polygon fill="none" stroke="black" points="747,-1112 403,-1112 403,-1076 747,-1076 747,-1112"/>
<text text-anchor="middle" x="575" y="-1097" font-family="Times Roman,serif" font-size="10.00">ifconfig wlan0 down &amp;&amp; ifconfig hw ether [MAC] &amp;&amp; ifconfig wlan0 up;</text>
<text text-anchor="middle" x="575" y="-1085" font-family="Times Roman,serif" font-size="10.00">macchanger &#45;m [MAC] wlan0;</text>
</g>
<!-- SpoofHardwareAddressCommand&#45;&gt;SpoofHardwareAddress -->
<g id="edge113" class="edge"><title>SpoofHardwareAddressCommand&#45;&gt;SpoofHardwareAddress</title>
<path fill="none" stroke="gray" d="M635.64,-1075.94C691.244,-1055.18 765,-1015.18 765,-949 765,-949 765,-949 765,-466 765,-420.171 1448.82,-392.458 1678.66,-384.437"/>
<polygon fill="gray" stroke="gray" points="1679.06,-387.925 1688.94,-384.081 1678.82,-380.929 1679.06,-387.925"/>
</g>
</g>
</svg>
