<?xml version="1.0" encoding="UTF-8" standalone="no"?>
<!DOCTYPE svg PUBLIC "-//W3C//DTD SVG 1.1//EN"
 "http://www.w3.org/Graphics/SVG/1.1/DTD/svg11.dtd">
<!-- Generated by graphviz version 2.26.3 (20100126.1600)
 -->
<!-- Title: Diagram Pages: 1 -->
<svg width="1718pt" height="1634pt"
 viewBox="0.00 0.00 1718.00 1634.00" xmlns="http://www.w3.org/2000/svg" xmlns:xlink="http://www.w3.org/1999/xlink">
<g id="graph1" class="graph" transform="scale(1 1) rotate(0) translate(4 1630)">
<title>Diagram</title>
<polygon fill="white" stroke="white" points="-4,5 -4,-1630 1715,-1630 1715,5 -4,5"/>
<g id="graph2" class="cluster"><title>clusterFail</title>
<polygon fill="none" stroke="black" points="574,-90 574,-256 738,-256 738,-90 574,-90"/>
</g>
<g id="graph3" class="cluster"><title>clusterOPN</title>
<polygon fill="none" stroke="black" points="440,-754 440,-831 586,-831 586,-754 440,-754"/>
<text text-anchor="middle" x="513" y="-814.4" font-family="Times Roman,serif" font-size="14.00">OPN</text>
</g>
<g id="graph6" class="cluster"><title>clusterWEP</title>
<polygon fill="none" stroke="black" points="59,-647 59,-724 179,-724 179,-647 59,-647"/>
<text text-anchor="middle" x="119" y="-707.4" font-family="Times Roman,serif" font-size="14.00">WEP</text>
</g>
<g id="graph9" class="cluster"><title>clusterWPA</title>
<polygon fill="none" stroke="black" points="187,-8 187,-724 566,-724 566,-8 187,-8"/>
<text text-anchor="middle" x="376.5" y="-707.4" font-family="Times Roman,serif" font-size="14.00">WPA</text>
</g>
<g id="graph12" class="cluster"><title>clusterPSK</title>
<polygon fill="none" stroke="black" points="367,-16 367,-533 558,-533 558,-16 367,-16"/>
<text text-anchor="middle" x="462.5" y="-516.4" font-family="Times Roman,serif" font-size="14.00">PSK</text>
</g>
<g id="graph16" class="cluster"><title>clusterEAP</title>
<polygon fill="none" stroke="black" points="195,-288 195,-533 359,-533 359,-288 195,-288"/>
<text text-anchor="middle" x="277" y="-516.4" font-family="Times Roman,serif" font-size="14.00">EAP</text>
</g>
<g id="graph20" class="cluster"><title>clusterMain</title>
<polygon fill="none" stroke="black" points="8,-754 8,-1616 432,-1616 432,-754 8,-754"/>
<text text-anchor="middle" x="220" y="-1599.4" font-family="Times Roman,serif" font-size="14.00">Connecting Wireless&#45;LAN Access Point</text>
</g>
<g id="graph27" class="cluster"><title>clusterCommands</title>
<polygon fill="none" stroke="black" points="440,-1533 440,-1618 1702,-1618 1702,-1533 440,-1533"/>
<text text-anchor="middle" x="1071" y="-1601.4" font-family="Times Roman,serif" font-size="14.00">CommandsAndNotes</text>
</g>
<!-- Impossible -->
<g id="node2" class="node"><title>Impossible</title>
<ellipse fill="none" stroke="black" cx="656" cy="-173" rx="69.8843" ry="70.3565"/>
<ellipse fill="none" stroke="black" cx="656" cy="-173" rx="73.8575" ry="74.3565"/>
<text text-anchor="middle" x="656" y="-170" font-family="Times Roman,serif" font-size="10.00">BluteForceAttack? :D</text>
</g>
<!-- NothingToDo -->
<g id="node5" class="node"><title>NothingToDo</title>
<polygon fill="none" stroke="black" points="513,-798 448.018,-780 513,-762 577.982,-780 513,-798"/>
<text text-anchor="middle" x="513" y="-777" font-family="Times Roman,serif" font-size="10.00">NothingToDo</text>
</g>
<!-- HasWebAuthentication -->
<g id="node63" class="node"><title>HasWebAuthentication</title>
<a xlink:href="http://www.slideshare.net/support_cyberoam/hotspot-authentication" xlink:title="HasWebAuthentication">
<polygon fill="none" stroke="black" points="318,-1581 212.197,-1563 318,-1545 423.803,-1563 318,-1581"/>
<text text-anchor="middle" x="318" y="-1560" font-family="Times Roman,serif" font-size="10.00">HasWebAuthentication</text>
</a>
</g>
<!-- NothingToDo&#45;&gt;HasWebAuthentication -->
<g id="edge87" class="edge"><title>NothingToDo&#45;&gt;HasWebAuthentication</title>
<path fill="none" stroke="black" d="M506.944,-796.424C499.834,-817.209 489,-854.255 489,-887 489,-1475 489,-1475 489,-1475 489,-1502.7 417.154,-1531.46 366.601,-1548.27"/>
<polygon fill="black" stroke="black" points="365.223,-1545.04 356.803,-1551.47 367.395,-1551.7 365.223,-1545.04"/>
</g>
<!-- HasClient_WEP -->
<g id="node9" class="node"><title>HasClient_WEP</title>
<polygon fill="none" stroke="black" points="119,-691 66.7761,-673 119,-655 171.224,-673 119,-691"/>
<text text-anchor="middle" x="119" y="-670" font-family="Times Roman,serif" font-size="10.00">HasClient</text>
</g>
<!-- IsTKIP -->
<g id="node13" class="node"><title>IsTKIP</title>
<polygon fill="none" stroke="black" points="334,-691 297.08,-673 334,-655 370.92,-673 334,-691"/>
<text text-anchor="middle" x="334" y="-670" font-family="Times Roman,serif" font-size="10.00">IsTKIP</text>
</g>
<!-- IsPSK -->
<g id="node14" class="node"><title>IsPSK</title>
<polygon fill="none" stroke="black" points="334,-607 297.933,-589 334,-571 370.067,-589 334,-607"/>
<text text-anchor="middle" x="334" y="-586" font-family="Times Roman,serif" font-size="10.00">IsPSK</text>
</g>
<!-- IsTKIP&#45;&gt;IsPSK -->
<g id="edge14" class="edge"><title>IsTKIP&#45;&gt;IsPSK</title>
<path fill="none" stroke="black" d="M334,-654.773C334,-643.876 334,-629.795 334,-617.459"/>
<polygon fill="black" stroke="black" points="337.5,-617.191 334,-607.191 330.5,-617.191 337.5,-617.191"/>
<text text-anchor="middle" x="342" y="-628.4" font-family="Times Roman,serif" font-size="9.00">No.</text>
</g>
<!-- HasWPS_PSK -->
<g id="node15" class="node"><title>HasWPS_PSK</title>
<a xlink:href="http://code.google.com/p/reaver-wps/source/browse/trunk/docs/README.WASH?r=87" xlink:title="HasWPS">
<polygon fill="none" stroke="black" points="422,-500 374.878,-482 422,-464 469.122,-482 422,-500"/>
<text text-anchor="middle" x="422" y="-479" font-family="Times Roman,serif" font-size="10.00">HasWPS</text>
</a>
</g>
<!-- IsTKIP&#45;&gt;HasWPS_PSK -->
<g id="edge12" class="edge"><title>IsTKIP&#45;&gt;HasWPS_PSK</title>
<path fill="none" stroke="black" d="M343.038,-659.198C351.409,-646.088 363.901,-625.662 373,-607 389.251,-573.67 404.226,-533.494 413.236,-507.851"/>
<polygon fill="black" stroke="black" points="416.636,-508.73 416.608,-498.135 410.023,-506.435 416.636,-508.73"/>
<text text-anchor="middle" x="398.5" y="-586.4" font-family="Times Roman,serif" font-size="9.00">Yes.</text>
</g>
<!-- IsPSK&#45;&gt;HasWPS_PSK -->
<g id="edge16" class="edge"><title>IsPSK&#45;&gt;HasWPS_PSK</title>
<path fill="none" stroke="black" d="M344.791,-575.88C359.539,-557.947 386.188,-525.544 403.99,-503.898"/>
<polygon fill="black" stroke="black" points="406.914,-505.853 410.563,-495.906 401.508,-501.406 406.914,-505.853"/>
<text text-anchor="middle" x="382.5" y="-544.4" font-family="Times Roman,serif" font-size="9.00">Yes.</text>
</g>
<!-- HasClient_EAP -->
<g id="node16" class="node"><title>HasClient_EAP</title>
<polygon fill="none" stroke="black" points="299,-500 246.776,-482 299,-464 351.224,-482 299,-500"/>
<text text-anchor="middle" x="299" y="-479" font-family="Times Roman,serif" font-size="10.00">HasClient</text>
</g>
<!-- IsPSK&#45;&gt;HasClient_EAP -->
<g id="edge18" class="edge"><title>IsPSK&#45;&gt;HasClient_EAP</title>
<path fill="none" stroke="black" d="M328.836,-573.212C323.207,-556.005 314.115,-528.209 307.445,-507.818"/>
<polygon fill="black" stroke="black" points="310.736,-506.62 304.3,-498.204 304.083,-508.796 310.736,-506.62"/>
<text text-anchor="middle" x="330.5" y="-544.4" font-family="Times Roman,serif" font-size="9.00">NO.</text>
</g>
<!-- HasClient_PSK -->
<g id="node24" class="node"><title>HasClient_PSK</title>
<polygon fill="none" stroke="black" points="427,-332 374.776,-314 427,-296 479.224,-314 427,-332"/>
<text text-anchor="middle" x="427" y="-311" font-family="Times Roman,serif" font-size="10.00">HasClient</text>
</g>
<!-- HasWPS_PSK&#45;&gt;HasClient_PSK -->
<g id="edge30" class="edge"><title>HasWPS_PSK&#45;&gt;HasClient_PSK</title>
<path fill="none" stroke="black" d="M418.231,-465.378C414.144,-445.176 408.627,-410.06 412,-380 413.49,-366.724 416.615,-352.222 419.629,-340.202"/>
<polygon fill="black" stroke="black" points="423.056,-340.931 422.205,-330.37 416.285,-339.157 423.056,-340.931"/>
<text text-anchor="middle" x="420" y="-395.4" font-family="Times Roman,serif" font-size="9.00">No.</text>
</g>
<!-- IsWeakWPS -->
<g id="node25" class="node"><title>IsWeakWPS</title>
<a xlink:href="https://scotthelme.co.uk/wifi-insecurity-wps/" xlink:title="IsWeakWPS">
<polygon fill="none" stroke="black" points="491,-416 431.971,-398 491,-380 550.029,-398 491,-416"/>
<text text-anchor="middle" x="491" y="-395" font-family="Times Roman,serif" font-size="10.00">IsWeakWPS</text>
</a>
</g>
<!-- HasWPS_PSK&#45;&gt;IsWeakWPS -->
<g id="edge24" class="edge"><title>HasWPS_PSK&#45;&gt;IsWeakWPS</title>
<path fill="none" stroke="black" d="M433.394,-468.129C444.052,-455.154 460.154,-435.551 472.628,-420.366"/>
<polygon fill="black" stroke="black" points="475.483,-422.404 479.126,-412.455 470.074,-417.961 475.483,-422.404"/>
<text text-anchor="middle" x="470.5" y="-437.4" font-family="Times Roman,serif" font-size="9.00">Yes.</text>
</g>
<!-- HasClient_EAP&#45;&gt;Impossible -->
<g id="edge44" class="edge"><title>HasClient_EAP&#45;&gt;Impossible</title>
<path fill="none" stroke="black" d="M326.796,-473.4C338.756,-469.995 352.96,-466.342 366,-464 408.396,-456.385 525.003,-472.451 559,-446 616.442,-401.309 639.938,-319.923 649.511,-257.601"/>
<polygon fill="black" stroke="black" points="653.022,-257.777 650.984,-247.38 646.093,-256.778 653.022,-257.777"/>
<text text-anchor="middle" x="632" y="-353.4" font-family="Times Roman,serif" font-size="9.00">No.</text>
</g>
<!-- SetupRougeAP -->
<g id="node41" class="node"><title>SetupRougeAP</title>
<polygon fill="none" stroke="black" points="328,-416 242,-416 242,-380 328,-380 328,-416"/>
<text text-anchor="middle" x="285" y="-395" font-family="Times Roman,serif" font-size="10.00">SetupRougeAP</text>
</g>
<!-- HasClient_EAP&#45;&gt;SetupRougeAP -->
<g id="edge42" class="edge"><title>HasClient_EAP&#45;&gt;SetupRougeAP</title>
<path fill="none" stroke="black" d="M296.099,-464.595C294.26,-453.558 291.837,-439.021 289.724,-426.346"/>
<polygon fill="black" stroke="black" points="293.139,-425.543 288.042,-416.254 286.234,-426.694 293.139,-425.543"/>
<text text-anchor="middle" x="302.5" y="-437.4" font-family="Times Roman,serif" font-size="9.00">Yes.</text>
</g>
<!-- HasClient_PSK&#45;&gt;Impossible -->
<g id="edge34" class="edge"><title>HasClient_PSK&#45;&gt;Impossible</title>
<path fill="none" stroke="black" d="M448.992,-303.566C459.282,-298.741 471.727,-292.988 483,-288 516.515,-273.17 527.816,-275.255 559,-256 570.913,-248.645 582.852,-239.866 594.08,-230.813"/>
<polygon fill="black" stroke="black" points="596.627,-233.25 602.12,-224.19 592.176,-227.847 596.627,-233.25"/>
<text text-anchor="middle" x="548" y="-269.4" font-family="Times Roman,serif" font-size="9.00">No.</text>
</g>
<!-- SetupRougeAccessPointOrDeauthClient -->
<g id="node27" class="node"><title>SetupRougeAccessPointOrDeauthClient</title>
<polygon fill="none" stroke="black" points="375,-155 375,-191 541,-191 541,-155 375,-155"/>
<text text-anchor="middle" x="418.5" y="-170" font-family="Times Roman,serif" font-size="10.00">SetupRougeAP</text>
<polyline fill="none" stroke="black" points="462,-155 462,-191 "/>
<text text-anchor="middle" x="501.5" y="-170" font-family="Times Roman,serif" font-size="10.00">DeauthClient</text>
</g>
<!-- HasClient_PSK&#45;&gt;SetupRougeAccessPointOrDeauthClient -->
<g id="edge32" class="edge"><title>HasClient_PSK&#45;&gt;SetupRougeAccessPointOrDeauthClient</title>
<path fill="none" stroke="black" d="M430.739,-296.992C435.96,-273.247 445.499,-229.861 451.794,-201.227"/>
<polygon fill="black" stroke="black" points="455.224,-201.927 453.953,-191.408 448.387,-200.424 455.224,-201.927"/>
<text text-anchor="middle" x="447.5" y="-269.4" font-family="Times Roman,serif" font-size="9.00">Yes.</text>
</g>
<!-- IsWeakWPS&#45;&gt;HasClient_PSK -->
<g id="edge28" class="edge"><title>IsWeakWPS&#45;&gt;HasClient_PSK</title>
<path fill="none" stroke="black" d="M479.852,-383.368C470.032,-370.48 455.573,-351.502 444.259,-336.653"/>
<polygon fill="black" stroke="black" points="446.865,-334.297 438.02,-328.464 441.297,-338.54 446.865,-334.297"/>
<text text-anchor="middle" x="471" y="-353.4" font-family="Times Roman,serif" font-size="9.00">No.</text>
</g>
<!-- CrackWPS -->
<g id="node29" class="node"><title>CrackWPS</title>
<a xlink:href="http://lifehacker.com/5873407/how-to-crack-a-wi-fi-networks-wpa-password-with-reaver" xlink:title="CrackWPS">
<polygon fill="none" stroke="black" points="550,-332 486,-332 486,-296 550,-296 550,-332"/>
<text text-anchor="middle" x="518" y="-311" font-family="Times Roman,serif" font-size="10.00">CrackWPS</text>
</a>
</g>
<!-- IsWeakWPS&#45;&gt;CrackWPS -->
<g id="edge26" class="edge"><title>IsWeakWPS&#45;&gt;CrackWPS</title>
<path fill="none" stroke="black" d="M496.334,-381.404C499.984,-370.05 504.909,-354.729 509.141,-341.562"/>
<polygon fill="black" stroke="black" points="512.481,-342.607 512.209,-332.015 505.817,-340.465 512.481,-342.607"/>
<text text-anchor="middle" x="516.5" y="-353.4" font-family="Times Roman,serif" font-size="9.00">Yes.</text>
</g>
<!-- StealHandShake -->
<g id="node28" class="node"><title>StealHandShake</title>
<polygon fill="none" stroke="black" points="506,-60 410,-60 410,-24 506,-24 506,-60"/>
<text text-anchor="middle" x="458" y="-39" font-family="Times Roman,serif" font-size="10.00">StealHandShake</text>
</g>
<!-- SetupRougeAccessPointOrDeauthClient&#45;&gt;StealHandShake -->
<g id="edge36" class="edge"><title>SetupRougeAccessPointOrDeauthClient&#45;&gt;StealHandShake</title>
<path fill="none" stroke="black" d="M458,-154.785C458,-132.886 458,-95.8861 458,-70.2663"/>
<polygon fill="black" stroke="black" points="461.5,-70.0603 458,-60.0603 454.5,-70.0603 461.5,-70.0603"/>
</g>
<!-- CrackWPS&#45;&gt;HasWebAuthentication -->
<g id="edge89" class="edge"><title>CrackWPS&#45;&gt;HasWebAuthentication</title>
<path fill="none" stroke="black" d="M550.037,-322.682C564.412,-328.197 580.286,-336.847 590,-350 602.849,-367.397 598,-376.372 598,-398 598,-1475 598,-1475 598,-1475 598,-1486.82 450.883,-1527.74 369.927,-1549.36"/>
<polygon fill="black" stroke="black" points="368.681,-1546.07 359.919,-1552.03 370.483,-1552.84 368.681,-1546.07"/>
</g>
<!-- CaptureChallangeResponse -->
<g id="node42" class="node"><title>CaptureChallangeResponse</title>
<polygon fill="none" stroke="black" points="351,-332 203,-332 203,-296 351,-296 351,-332"/>
<text text-anchor="middle" x="277" y="-311" font-family="Times Roman,serif" font-size="10.00">CaptureChallangeResponse</text>
</g>
<!-- SetupRougeAP&#45;&gt;CaptureChallangeResponse -->
<g id="edge46" class="edge"><title>SetupRougeAP&#45;&gt;CaptureChallangeResponse</title>
<path fill="none" stroke="black" d="M283.264,-379.773C282.226,-368.876 280.885,-354.795 279.71,-342.459"/>
<polygon fill="black" stroke="black" points="283.165,-341.814 278.732,-332.191 276.196,-342.478 283.165,-341.814"/>
</g>
<!-- Start -->
<g id="node49" class="node"><title>Start</title>
<polygon fill="none" stroke="black" points="65,-1543 113.812,-1573 16.1884,-1573 65,-1543"/>
<text text-anchor="middle" x="65" y="-1560" font-family="Times Roman,serif" font-size="10.00">Start</text>
</g>
<!-- HasAccessPointsAroundYou -->
<g id="node58" class="node"><title>HasAccessPointsAroundYou</title>
<a xlink:href="http://www.aircrack-ng.org/doku.php?id=airodump-ng" xlink:title="HasAccessPointsAroundYou">
<polygon fill="none" stroke="black" points="286,-1493 159.788,-1475 286,-1457 412.212,-1475 286,-1493"/>
<text text-anchor="middle" x="286" y="-1472" font-family="Times Roman,serif" font-size="10.00">HasAccessPointsAroundYou</text>
</a>
</g>
<!-- Start&#45;&gt;HasAccessPointsAroundYou -->
<g id="edge55" class="edge"><title>Start&#45;&gt;HasAccessPointsAroundYou</title>
<path fill="none" stroke="black" d="M81.3036,-1552.74C91.5843,-1546.54 105.278,-1538.74 118,-1533 156.016,-1515.85 200.719,-1500.64 234.451,-1490.11"/>
<polygon fill="black" stroke="black" points="235.581,-1493.42 244.103,-1487.13 233.515,-1486.73 235.581,-1493.42"/>
<text text-anchor="middle" x="184" y="-1514.4" font-family="Times Roman,serif" font-size="9.00">Fine.</text>
</g>
<!-- End -->
<g id="node51" class="node"><title>End</title>
<polygon fill="none" stroke="black" points="163,-1583 120.906,-1553 205.094,-1553 163,-1583"/>
<text text-anchor="middle" x="163" y="-1560" font-family="Times Roman,serif" font-size="10.00">End</text>
</g>
<!-- ImproveYourWifiAntenna -->
<g id="node54" class="node"><title>ImproveYourWifiAntenna</title>
<a xlink:href="http://www.instructables.com/id/DIY-WIFI-Antenna-Reception-Booster/" xlink:title="ImproveYourWifiAntenna">
<polygon fill="none" stroke="black" points="424,-1409 294,-1409 294,-1373 424,-1373 424,-1409"/>
<text text-anchor="middle" x="359" y="-1388" font-family="Times Roman,serif" font-size="10.00">ImproveYourWifiAntenna</text>
</a>
</g>
<!-- IsStealthESSID -->
<g id="node59" class="node"><title>IsStealthESSID</title>
<a xlink:href="http://securitysynapse.blogspot.jp/2014/01/wireless-pentesting-on-cheap-kali-hiddenSSID.html" xlink:title="IsStealthESSID">
<polygon fill="none" stroke="black" points="280,-1325 205.163,-1307 280,-1289 354.837,-1307 280,-1325"/>
<text text-anchor="middle" x="280" y="-1304" font-family="Times Roman,serif" font-size="10.00">IsStealthESSID</text>
</a>
</g>
<!-- ImproveYourWifiAntenna&#45;&gt;IsStealthESSID -->
<g id="edge61" class="edge"><title>ImproveYourWifiAntenna&#45;&gt;IsStealthESSID</title>
<path fill="none" stroke="black" d="M341.858,-1372.77C329.871,-1360.03 313.787,-1342.93 301.025,-1329.36"/>
<polygon fill="black" stroke="black" points="303.351,-1326.72 293.95,-1321.83 298.252,-1331.52 303.351,-1326.72"/>
<text text-anchor="middle" x="349.5" y="-1346.4" font-family="Times Roman,serif" font-size="9.00">OK I got it.</text>
</g>
<!-- DeauthAllClient -->
<g id="node55" class="node"><title>DeauthAllClient</title>
<a xlink:href="http://www.aircrack-ng.org/doku.php?id=deauthentication" xlink:title="DeauthAllClient">
<polygon fill="none" stroke="black" points="325,-1157 235,-1157 235,-1121 325,-1121 325,-1157"/>
<text text-anchor="middle" x="280" y="-1136" font-family="Times Roman,serif" font-size="10.00">DeauthAllClient</text>
</a>
</g>
<!-- HasHardwareAddressFiltering -->
<g id="node61" class="node"><title>HasHardwareAddressFiltering</title>
<a xlink:href="http://synjunkie.blogspot.jp/2007/12/bypass-hidden-ssid-mac-address-filter.html" xlink:title="HasHardwareAddressFiltering">
<polygon fill="none" stroke="black" points="245,-1073 111.984,-1055 245,-1037 378.016,-1055 245,-1073"/>
<text text-anchor="middle" x="245" y="-1052" font-family="Times Roman,serif" font-size="10.00">HasHardwareAddressFiltering</text>
</a>
</g>
<!-- DeauthAllClient&#45;&gt;HasHardwareAddressFiltering -->
<g id="edge71" class="edge"><title>DeauthAllClient&#45;&gt;HasHardwareAddressFiltering</title>
<path fill="none" stroke="black" d="M272.406,-1120.77C267.599,-1109.24 261.306,-1094.14 255.963,-1081.31"/>
<polygon fill="black" stroke="black" points="259.18,-1079.93 252.103,-1072.05 252.718,-1082.62 259.18,-1079.93"/>
<text text-anchor="middle" x="292.5" y="-1094.4" font-family="Times Roman,serif" font-size="9.00">I got ESSID.</text>
</g>
<!-- SpoofHardwareAddress -->
<g id="node56" class="node"><title>SpoofHardwareAddress</title>
<a xlink:href="http://www.securethelock.com/2013/12/03/how-to-bypass-mac-address-filtering-using-backtrackkali-linux/" xlink:title="SpoofHardwareAddress">
<polygon fill="none" stroke="black" points="385,-989 257,-989 257,-953 385,-953 385,-989"/>
<text text-anchor="middle" x="321" y="-968" font-family="Times Roman,serif" font-size="10.00">SpoofHardwareAddress</text>
</a>
</g>
<!-- HasEncryption -->
<g id="node62" class="node"><title>HasEncryption</title>
<a xlink:href="http://www.dummies.com/how-to/content/wireless-security-protocols-wep-wpa-and-wpa2.html" xlink:title="HasEncryption">
<polygon fill="none" stroke="black" points="247,-905 173.864,-887 247,-869 320.136,-887 247,-905"/>
<text text-anchor="middle" x="247" y="-884" font-family="Times Roman,serif" font-size="10.00">HasEncryption</text>
</a>
</g>
<!-- SpoofHardwareAddress&#45;&gt;HasEncryption -->
<g id="edge77" class="edge"><title>SpoofHardwareAddress&#45;&gt;HasEncryption</title>
<path fill="none" stroke="black" d="M304.943,-952.773C293.714,-940.027 278.649,-922.925 266.694,-909.355"/>
<polygon fill="black" stroke="black" points="269.304,-907.023 260.067,-901.833 264.051,-911.65 269.304,-907.023"/>
<text text-anchor="middle" x="377.5" y="-926.4" font-family="Times Roman,serif" font-size="9.00">I could associate with AP(or WEP&#45;SKA.</text>
</g>
<!-- HasAccessPointsAroundYou&#45;&gt;ImproveYourWifiAntenna -->
<g id="edge59" class="edge"><title>HasAccessPointsAroundYou&#45;&gt;ImproveYourWifiAntenna</title>
<path fill="none" stroke="black" d="M300.075,-1458.8C310.396,-1446.93 324.623,-1430.56 336.511,-1416.88"/>
<polygon fill="black" stroke="black" points="339.276,-1419.03 343.194,-1409.19 333.992,-1414.44 339.276,-1419.03"/>
<text text-anchor="middle" x="335" y="-1430.4" font-family="Times Roman,serif" font-size="9.00">No.</text>
</g>
<!-- HasAccessPointsAroundYou&#45;&gt;IsStealthESSID -->
<g id="edge57" class="edge"><title>HasAccessPointsAroundYou&#45;&gt;IsStealthESSID</title>
<path fill="none" stroke="black" d="M281.924,-1457.47C279.065,-1444.24 275.496,-1425.59 274,-1409 271.734,-1383.88 273.838,-1355.19 276.155,-1334.65"/>
<polygon fill="black" stroke="black" points="279.63,-1335.06 277.364,-1324.71 272.681,-1334.22 279.63,-1335.06"/>
<text text-anchor="middle" x="282" y="-1388.4" font-family="Times Roman,serif" font-size="9.00">Yes</text>
</g>
<!-- IsThereConnectedClient -->
<g id="node60" class="node"><title>IsThereConnectedClient</title>
<a xlink:href="http://blackhat6969.blogspot.jp/2012/09/down-and-dirty-wifi-cracking-with.html" xlink:title="IsThereConnectedClient">
<polygon fill="none" stroke="black" points="280,-1241 169.946,-1223 280,-1205 390.054,-1223 280,-1241"/>
<text text-anchor="middle" x="280" y="-1220" font-family="Times Roman,serif" font-size="10.00">IsThereConnectedClient</text>
</a>
</g>
<!-- IsStealthESSID&#45;&gt;IsThereConnectedClient -->
<g id="edge63" class="edge"><title>IsStealthESSID&#45;&gt;IsThereConnectedClient</title>
<path fill="none" stroke="black" d="M280,-1288.77C280,-1277.88 280,-1263.79 280,-1251.46"/>
<polygon fill="black" stroke="black" points="283.5,-1251.19 280,-1241.19 276.5,-1251.19 283.5,-1251.19"/>
<text text-anchor="middle" x="289.5" y="-1262.4" font-family="Times Roman,serif" font-size="9.00">Yes.</text>
</g>
<!-- IsStealthESSID&#45;&gt;HasHardwareAddressFiltering -->
<g id="edge69" class="edge"><title>IsStealthESSID&#45;&gt;HasHardwareAddressFiltering</title>
<path fill="none" stroke="black" d="M245.572,-1297.24C218.891,-1287.66 183.739,-1270.16 167,-1241 135.236,-1185.66 188.209,-1114.87 221.382,-1078.65"/>
<polygon fill="black" stroke="black" points="224.227,-1080.74 228.524,-1071.05 219.126,-1075.94 224.227,-1080.74"/>
<text text-anchor="middle" x="170" y="-1178.4" font-family="Times Roman,serif" font-size="9.00">No.</text>
</g>
<!-- IsThereConnectedClient&#45;&gt;DeauthAllClient -->
<g id="edge65" class="edge"><title>IsThereConnectedClient&#45;&gt;DeauthAllClient</title>
<path fill="none" stroke="black" d="M280,-1204.77C280,-1193.88 280,-1179.79 280,-1167.46"/>
<polygon fill="black" stroke="black" points="283.5,-1167.19 280,-1157.19 276.5,-1167.19 283.5,-1167.19"/>
<text text-anchor="middle" x="289.5" y="-1178.4" font-family="Times Roman,serif" font-size="9.00">Yes.</text>
</g>
<!-- IsThereConnectedClient&#45;&gt;IsThereConnectedClient -->
<g id="edge67" class="edge"><title>IsThereConnectedClient&#45;&gt;IsThereConnectedClient</title>
<path fill="none" stroke="black" d="M342.891,-1230.73C371.803,-1231.54 397,-1228.97 397,-1223 397,-1217.75 377.536,-1215.13 353.193,-1215.13"/>
<polygon fill="black" stroke="black" points="352.84,-1211.63 342.891,-1215.27 352.94,-1218.63 352.84,-1211.63"/>
<text text-anchor="middle" x="405" y="-1220.4" font-family="Times Roman,serif" font-size="9.00">No.</text>
</g>
<!-- HasHardwareAddressFiltering&#45;&gt;SpoofHardwareAddress -->
<g id="edge73" class="edge"><title>HasHardwareAddressFiltering&#45;&gt;SpoofHardwareAddress</title>
<path fill="none" stroke="black" d="M259.654,-1038.8C270.399,-1026.93 285.21,-1010.56 297.587,-996.877"/>
<polygon fill="black" stroke="black" points="300.43,-998.952 304.544,-989.188 295.24,-994.255 300.43,-998.952"/>
<text text-anchor="middle" x="297.5" y="-1010.4" font-family="Times Roman,serif" font-size="9.00">Yes.</text>
</g>
<!-- HasHardwareAddressFiltering&#45;&gt;HasEncryption -->
<g id="edge75" class="edge"><title>HasHardwareAddressFiltering&#45;&gt;HasEncryption</title>
<path fill="none" stroke="black" d="M241.964,-1037.31C238.855,-1016.97 234.772,-982.58 237,-953 237.96,-940.259 239.948,-926.251 241.9,-914.431"/>
<polygon fill="black" stroke="black" points="245.398,-914.739 243.652,-904.289 238.501,-913.547 245.398,-914.739"/>
<text text-anchor="middle" x="245" y="-968.4" font-family="Times Roman,serif" font-size="9.00">No.</text>
</g>
<!-- HasEncryption&#45;&gt;NothingToDo -->
<g id="edge79" class="edge"><title>HasEncryption&#45;&gt;NothingToDo</title>
<path fill="none" stroke="black" d="M286.246,-878.515C324.691,-869.439 384.414,-853.282 433,-831 452.023,-822.276 471.871,-809.648 487.038,-799.141"/>
<polygon fill="black" stroke="black" points="489.237,-801.873 495.386,-793.245 485.198,-796.155 489.237,-801.873"/>
<text text-anchor="middle" x="422" y="-842.4" font-family="Times Roman,serif" font-size="9.00">No.</text>
</g>
<!-- IsWEP -->
<g id="node64" class="node"><title>IsWEP</title>
<a xlink:href="http://www.howtogeek.com/167783/htg-explains-the-difference-between-wep-wpa-and-wpa2-wireless-encryption-and-why-it-matters/" xlink:title="IsWEP">
<polygon fill="none" stroke="black" points="247,-798 210.08,-780 247,-762 283.92,-780 247,-798"/>
<text text-anchor="middle" x="247" y="-777" font-family="Times Roman,serif" font-size="10.00">IsWEP</text>
</a>
</g>
<!-- HasEncryption&#45;&gt;IsWEP -->
<g id="edge81" class="edge"><title>HasEncryption&#45;&gt;IsWEP</title>
<path fill="none" stroke="black" d="M247,-868.849C247,-852.324 247,-827.656 247,-808.502"/>
<polygon fill="black" stroke="black" points="250.5,-808.24 247,-798.24 243.5,-808.24 250.5,-808.24"/>
<text text-anchor="middle" x="256.5" y="-842.4" font-family="Times Roman,serif" font-size="9.00">Yes.</text>
</g>
<!-- IsWEP&#45;&gt;HasClient_WEP -->
<g id="edge83" class="edge"><title>IsWEP&#45;&gt;HasClient_WEP</title>
<path fill="none" stroke="black" d="M233.302,-768.549C211.559,-750.374 168.894,-714.708 142.285,-692.465"/>
<polygon fill="black" stroke="black" points="144.501,-689.755 134.583,-686.027 140.011,-695.126 144.501,-689.755"/>
<text text-anchor="middle" x="211.5" y="-735.4" font-family="Times Roman,serif" font-size="9.00">Yes.</text>
</g>
<!-- IsWEP&#45;&gt;IsTKIP -->
<g id="edge85" class="edge"><title>IsWEP&#45;&gt;IsTKIP</title>
<path fill="none" stroke="black" d="M257.668,-766.88C272.489,-748.652 299.467,-715.472 317.058,-693.837"/>
<polygon fill="black" stroke="black" points="319.924,-695.86 323.517,-685.893 314.492,-691.444 319.924,-695.86"/>
<text text-anchor="middle" x="294" y="-735.4" font-family="Times Roman,serif" font-size="9.00">No.</text>
</g>
<!-- HasAccessPointsAroundYouCommand -->
<g id="node86" class="node"><title>HasAccessPointsAroundYouCommand</title>
<polygon fill="none" stroke="black" points="708,-1585 448,-1585 448,-1541 708,-1541 708,-1585"/>
<text text-anchor="middle" x="578" y="-1572" font-family="Times Roman,serif" font-size="10.00">ifconfig wlan0 down;</text>
<text text-anchor="middle" x="578" y="-1560" font-family="Times Roman,serif" font-size="10.00">iwconfig wlan0 mode mon || airmon&#45;ng start wlan0;</text>
<text text-anchor="middle" x="578" y="-1548" font-family="Times Roman,serif" font-size="10.00">airodump&#45;ng wlan0;</text>
</g>
<!-- HasAccessPointsAroundYouCommand&#45;&gt;HasAccessPointsAroundYou -->
<g id="edge94" class="edge"><title>HasAccessPointsAroundYouCommand&#45;&gt;HasAccessPointsAroundYou</title>
<path fill="none" stroke="gray" d="M488.083,-1540.95C466.97,-1535.41 444.619,-1529.25 424,-1523 392.543,-1513.46 357.573,-1501.28 330.706,-1491.58"/>
<polygon fill="gray" stroke="gray" points="331.79,-1488.25 321.196,-1488.12 329.401,-1494.83 331.79,-1488.25"/>
</g>
<!-- ImproveYourWifiAntennaCommand -->
<g id="node87" class="node"><title>ImproveYourWifiAntennaCommand</title>
<polygon fill="none" stroke="black" points="829,-1585 715,-1585 715,-1541 829,-1541 829,-1585"/>
<text text-anchor="middle" x="772" y="-1572" font-family="Times Roman,serif" font-size="10.00">iw reg set BO;</text>
<text text-anchor="middle" x="772" y="-1560" font-family="Times Roman,serif" font-size="10.00">iwconfig wlan0 tx 30;</text>
<text text-anchor="middle" x="772" y="-1548" font-family="Times Roman,serif" font-size="10.00">#Add DIY Parabora.</text>
</g>
<!-- ImproveYourWifiAntennaCommand&#45;&gt;ImproveYourWifiAntenna -->
<g id="edge96" class="edge"><title>ImproveYourWifiAntennaCommand&#45;&gt;ImproveYourWifiAntenna</title>
<path fill="none" stroke="gray" d="M733.222,-1540.95C726.032,-1537.73 718.438,-1534.88 711,-1533 681.999,-1525.68 466.518,-1540.13 442,-1523 416.02,-1504.85 431.456,-1484.09 415,-1457 406.315,-1442.7 394.595,-1428.36 384.121,-1416.72"/>
<polygon fill="gray" stroke="gray" points="386.472,-1414.1 377.122,-1409.12 381.324,-1418.85 386.472,-1414.1"/>
</g>
<!-- IsStealthESSIDCommand -->
<g id="node88" class="node"><title>IsStealthESSIDCommand</title>
<polygon fill="none" stroke="black" points="1086,-1581 836,-1581 836,-1545 1086,-1545 1086,-1581"/>
<text text-anchor="middle" x="961" y="-1560" font-family="Times Roman,serif" font-size="10.00">airodump&#45;ng &#45;c [channel] &#45;&#45;bssid [AP MAC] wlan0</text>
</g>
<!-- IsStealthESSIDCommand&#45;&gt;IsStealthESSID -->
<g id="edge98" class="edge"><title>IsStealthESSIDCommand&#45;&gt;IsStealthESSID</title>
<path fill="none" stroke="gray" d="M894.844,-1544.92C874.808,-1540.18 852.639,-1535.65 832,-1533 811.66,-1530.39 478.931,-1535.91 463,-1523 409.74,-1479.83 468.028,-1427.93 427,-1373 404.546,-1342.94 365.269,-1326.26 332.961,-1317.19"/>
<polygon fill="gray" stroke="gray" points="333.746,-1313.78 323.185,-1314.62 331.963,-1320.55 333.746,-1313.78"/>
</g>
<!-- DeauthAllClientCommand -->
<g id="node89" class="node"><title>DeauthAllClientCommand</title>
<polygon fill="none" stroke="black" points="1343,-1581 1093,-1581 1093,-1545 1343,-1545 1343,-1581"/>
<text text-anchor="middle" x="1218" y="-1566" font-family="Times Roman,serif" font-size="10.00">aireplay&#45;ng &#45;0 0 &#45;a [AP MAC] wlan0;</text>
<text text-anchor="middle" x="1218" y="-1554" font-family="Times Roman,serif" font-size="10.00">aireplay&#45;ng &#45;0 0 &#45;a [AP MAC] &#45;c [STA MAC] wlan0;</text>
</g>
<!-- DeauthAllClientCommand&#45;&gt;DeauthAllClient -->
<g id="edge100" class="edge"><title>DeauthAllClientCommand&#45;&gt;DeauthAllClient</title>
<path fill="none" stroke="gray" d="M1148.38,-1544.99C1129.24,-1540.54 1108.41,-1536.15 1089,-1533 1020.59,-1521.9 468,-1544.3 468,-1475 468,-1475 468,-1475 468,-1223 468,-1193.58 390.264,-1167.26 334.765,-1152.22"/>
<polygon fill="gray" stroke="gray" points="335.594,-1148.82 325.031,-1149.64 333.797,-1155.59 335.594,-1148.82"/>
</g>
<!-- SpoofHardwareAddressCommand -->
<g id="node90" class="node"><title>SpoofHardwareAddressCommand</title>
<polygon fill="none" stroke="black" points="1694,-1581 1350,-1581 1350,-1545 1694,-1545 1694,-1581"/>
<text text-anchor="middle" x="1522" y="-1566" font-family="Times Roman,serif" font-size="10.00">ifconfig wlan0 down &amp;&amp; ifconfig hw ether [MAC] &amp;&amp; ifconfig wlan0 up;</text>
<text text-anchor="middle" x="1522" y="-1554" font-family="Times Roman,serif" font-size="10.00">macchanger &#45;m [MAC] wlan0;</text>
</g>
<!-- SpoofHardwareAddressCommand&#45;&gt;SpoofHardwareAddress -->
<g id="edge102" class="edge"><title>SpoofHardwareAddressCommand&#45;&gt;SpoofHardwareAddress</title>
<path fill="none" stroke="gray" d="M1415.32,-1544.99C1280.84,-1521.91 1067,-1483.83 1067,-1475 1067,-1475 1067,-1475 1067,-1055 1067,-987.892 584.134,-974.394 395.365,-971.681"/>
<polygon fill="gray" stroke="gray" points="395.296,-968.18 385.249,-971.542 395.2,-975.18 395.296,-968.18"/>
</g>
</g>
</svg>
