<?xml version="1.0" encoding="UTF-8" standalone="no"?>
<!DOCTYPE svg PUBLIC "-//W3C//DTD SVG 1.1//EN"
 "http://www.w3.org/Graphics/SVG/1.1/DTD/svg11.dtd">
<!-- Generated by graphviz version 2.26.3 (20100126.1600)
 -->
<!-- Title: Diagram Pages: 1 -->
<svg width="1012pt" height="2105pt"
 viewBox="0.00 0.00 1012.00 2105.00" xmlns="http://www.w3.org/2000/svg" xmlns:xlink="http://www.w3.org/1999/xlink">
<g id="graph1" class="graph" transform="scale(1 1) rotate(0) translate(4 2101)">
<title>Diagram</title>
<polygon fill="white" stroke="white" points="-4,5 -4,-2101 1009,-2101 1009,5 -4,5"/>
<g id="graph2" class="cluster"><title>clusterMain</title>
<polygon fill="none" stroke="black" points="8,-8 8,-2089 652,-2089 652,-8 8,-8"/>
<text text-anchor="middle" x="330" y="-2072.4" font-family="Times Roman,serif" font-size="14.00">Connecting Wireless&#45;LAN Access Point</text>
</g>
<g id="graph3" class="cluster"><title>clusterFail</title>
<polygon fill="none" stroke="black" points="101,-86 101,-277 382,-277 382,-86 101,-86"/>
<text text-anchor="middle" x="241.5" y="-260.4" font-family="Times Roman,serif" font-size="14.00">Connecting Wireless&#45;LAN Access Point</text>
</g>
<g id="graph4" class="cluster"><title>clusterOPN</title>
<polygon fill="none" stroke="black" points="130,-1219 130,-1296 276,-1296 276,-1219 130,-1219"/>
<text text-anchor="middle" x="203" y="-1279.4" font-family="Times Roman,serif" font-size="14.00">OPN</text>
</g>
<g id="graph7" class="cluster"><title>clusterWEP</title>
<polygon fill="none" stroke="black" points="413,-620 413,-1189 644,-1189 644,-620 413,-620"/>
<text text-anchor="middle" x="528.5" y="-1172.4" font-family="Times Roman,serif" font-size="14.00">WEP</text>
</g>
<g id="graph11" class="cluster"><title>clusterWPA</title>
<polygon fill="none" stroke="black" points="26,-463 26,-1189 405,-1189 405,-463 26,-463"/>
<text text-anchor="middle" x="215.5" y="-1172.4" font-family="Times Roman,serif" font-size="14.00">WPA</text>
</g>
<g id="graph14" class="cluster"><title>clusterPSK</title>
<polygon fill="none" stroke="black" points="206,-471 206,-998 397,-998 397,-471 206,-471"/>
<text text-anchor="middle" x="301.5" y="-981.4" font-family="Times Roman,serif" font-size="14.00">PSK</text>
</g>
<g id="graph18" class="cluster"><title>clusterEAP</title>
<polygon fill="none" stroke="black" points="34,-620 34,-998 198,-998 198,-620 34,-620"/>
<text text-anchor="middle" x="116" y="-981.4" font-family="Times Roman,serif" font-size="14.00">EAP</text>
</g>
<!-- Impossible -->
<g id="node3" class="node"><title>Impossible</title>
<ellipse fill="none" stroke="black" cx="300" cy="-169" rx="69.8843" ry="70.3565"/>
<ellipse fill="none" stroke="black" cx="300" cy="-169" rx="73.8575" ry="74.3565"/>
<text text-anchor="middle" x="300" y="-166" font-family="Times Roman,serif" font-size="10.00">BluteForceAttack? :D</text>
</g>
<!-- End -->
<g id="node71" class="node"><title>End</title>
<polygon fill="none" stroke="black" points="300,-56 257.906,-26 342.094,-26 300,-56"/>
<text text-anchor="middle" x="300" y="-33" font-family="Times Roman,serif" font-size="10.00">End</text>
</g>
<!-- Impossible&#45;&gt;End -->
<g id="edge75" class="edge"><title>Impossible&#45;&gt;End</title>
<path fill="none" stroke="black" d="M300,-94.3357C300,-84.4268 300,-74.7634 300,-66.2436"/>
<polygon fill="black" stroke="black" points="303.5,-66.1309 300,-56.131 296.5,-66.131 303.5,-66.1309"/>
</g>
<!-- NothingToDo -->
<g id="node6" class="node"><title>NothingToDo</title>
<polygon fill="none" stroke="black" points="203,-1263 138.018,-1245 203,-1227 267.982,-1245 203,-1263"/>
<text text-anchor="middle" x="203" y="-1242" font-family="Times Roman,serif" font-size="10.00">NothingToDo</text>
</g>
<!-- HasWebAuthentication -->
<g id="node87" class="node"><title>HasWebAuthentication</title>
<a xlink:href="http://www.slideshare.net/support_cyberoam/hotspot-authentication" xlink:title="HasWebAuthentication">
<polygon fill="none" stroke="black" points="180,-435 74.1966,-417 180,-399 285.803,-417 180,-435"/>
<text text-anchor="middle" x="180" y="-414" font-family="Times Roman,serif" font-size="10.00">HasWebAuthentication</text>
</a>
</g>
<!-- NothingToDo&#45;&gt;HasWebAuthentication -->
<g id="edge113" class="edge"><title>NothingToDo&#45;&gt;HasWebAuthentication</title>
<path fill="none" stroke="black" d="M163.954,-1237.69C117.281,-1228.14 43.1772,-1210.11 25,-1189 10.0306,-1171.61 17,-1160.94 17,-1138 17,-1138 17,-1138 17,-497 17,-471.49 82.1525,-446.259 130.075,-431.152"/>
<polygon fill="black" stroke="black" points="131.186,-434.472 139.708,-428.176 129.12,-427.783 131.186,-434.472"/>
</g>
<!-- ARPReplay -->
<g id="node10" class="node"><title>ARPReplay</title>
<polygon fill="none" stroke="black" points="636,-773 494,-773 494,-737 636,-737 636,-773"/>
<text text-anchor="middle" x="565" y="-752" font-family="Times Roman,serif" font-size="10.00">Perform ARP replay Attack</text>
</g>
<!-- CrackCredential_WEP -->
<g id="node14" class="node"><title>CrackCredential_WEP</title>
<polygon fill="none" stroke="black" points="532,-664 440,-664 440,-628 532,-628 532,-664"/>
<text text-anchor="middle" x="486" y="-643" font-family="Times Roman,serif" font-size="10.00">CrackCredential</text>
</g>
<!-- ARPReplay&#45;&gt;CrackCredential_WEP -->
<g id="edge25" class="edge"><title>ARPReplay&#45;&gt;CrackCredential_WEP</title>
<path fill="none" stroke="black" d="M551.599,-736.51C538.868,-718.944 519.589,-692.345 505.222,-672.521"/>
<polygon fill="black" stroke="black" points="507.906,-670.26 499.203,-664.217 502.238,-674.368 507.906,-670.26"/>
</g>
<!-- CaptureSomeDataPacket -->
<g id="node11" class="node"><title>CaptureSomeDataPacket</title>
<polygon fill="none" stroke="black" points="574,-1072 450,-1072 450,-1036 574,-1036 574,-1072"/>
<text text-anchor="middle" x="512" y="-1051" font-family="Times Roman,serif" font-size="10.00">Capture #Data Packet</text>
</g>
<!-- CouldGenerateXOR -->
<g id="node17" class="node"><title>CouldGenerateXOR</title>
<polygon fill="none" stroke="black" points="512,-965 421.005,-947 512,-929 602.995,-947 512,-965"/>
<text text-anchor="middle" x="512" y="-944" font-family="Times Roman,serif" font-size="10.00">CouldGenerateXOR</text>
</g>
<!-- CaptureSomeDataPacket&#45;&gt;CouldGenerateXOR -->
<g id="edge15" class="edge"><title>CaptureSomeDataPacket&#45;&gt;CouldGenerateXOR</title>
<path fill="none" stroke="black" d="M512,-1035.85C512,-1019.32 512,-994.656 512,-975.502"/>
<polygon fill="black" stroke="black" points="515.5,-975.24 512,-965.24 508.5,-975.24 515.5,-975.24"/>
</g>
<!-- ForgeARP -->
<g id="node12" class="node"><title>ForgeARP</title>
<polygon fill="none" stroke="black" points="624,-881 524,-881 524,-845 624,-845 624,-881"/>
<text text-anchor="middle" x="574" y="-860" font-family="Times Roman,serif" font-size="10.00">Forge ARP Packet</text>
</g>
<!-- ForgeARP&#45;&gt;ARPReplay -->
<g id="edge23" class="edge"><title>ForgeARP&#45;&gt;ARPReplay</title>
<path fill="none" stroke="black" d="M607.059,-844.739C613.088,-839.811 618.553,-833.895 622,-827 629.155,-812.689 629.723,-805.013 622,-791 619.652,-786.74 616.564,-782.914 613.038,-779.494"/>
<polygon fill="black" stroke="black" points="615.206,-776.744 605.282,-773.034 610.726,-782.123 615.206,-776.744"/>
</g>
<!-- BluteforceCRC -->
<g id="node13" class="node"><title>BluteforceCRC</title>
<polygon fill="none" stroke="black" points="621,-827 421,-827 421,-791 621,-791 621,-827"/>
<text text-anchor="middle" x="521" y="-806" font-family="Times Roman,serif" font-size="10.00">BluteForce Against a WEP Data Packet</text>
</g>
<!-- BluteforceCRC&#45;&gt;CrackCredential_WEP -->
<g id="edge21" class="edge"><title>BluteforceCRC&#45;&gt;CrackCredential_WEP</title>
<path fill="none" stroke="black" d="M501.891,-790.723C497.525,-785.447 493.452,-779.379 491,-773 478.682,-740.96 479.488,-700.962 482.017,-674.509"/>
<polygon fill="black" stroke="black" points="485.514,-674.727 483.13,-664.403 478.556,-673.96 485.514,-674.727"/>
</g>
<!-- CrackCredential_WEP&#45;&gt;HasWebAuthentication -->
<g id="edge119" class="edge"><title>CrackCredential_WEP&#45;&gt;HasWebAuthentication</title>
<path fill="none" stroke="black" d="M488.255,-627.836C491.718,-590.982 493.746,-507.183 448,-463 423.211,-439.058 339.523,-427.463 272.184,-421.919"/>
<polygon fill="black" stroke="black" points="272.197,-418.409 261.953,-421.112 271.647,-425.388 272.197,-418.409"/>
</g>
<!-- HasClient_WEP -->
<g id="node16" class="node"><title>HasClient_WEP</title>
<polygon fill="none" stroke="black" points="512,-1156 459.776,-1138 512,-1120 564.224,-1138 512,-1156"/>
<text text-anchor="middle" x="512" y="-1135" font-family="Times Roman,serif" font-size="10.00">HasClient</text>
</g>
<!-- HasClient_WEP&#45;&gt;ARPReplay -->
<g id="edge11" class="edge"><title>HasClient_WEP&#45;&gt;ARPReplay</title>
<path fill="none" stroke="black" d="M528.065,-1125.38C542.775,-1113.1 564.283,-1093.23 578,-1072 625.615,-998.293 619.857,-968.371 628,-881 631.713,-841.163 646.479,-825.372 626,-791 623.459,-786.735 620.202,-782.919 616.518,-779.518"/>
<polygon fill="black" stroke="black" points="618.456,-776.588 608.45,-773.107 614.101,-782.068 618.456,-776.588"/>
<text text-anchor="middle" x="633.5" y="-944.4" font-family="Times Roman,serif" font-size="9.00">Yes.</text>
</g>
<!-- HasClient_WEP&#45;&gt;CaptureSomeDataPacket -->
<g id="edge13" class="edge"><title>HasClient_WEP&#45;&gt;CaptureSomeDataPacket</title>
<path fill="none" stroke="black" d="M512,-1119.77C512,-1108.88 512,-1094.79 512,-1082.46"/>
<polygon fill="black" stroke="black" points="515.5,-1082.19 512,-1072.19 508.5,-1082.19 515.5,-1082.19"/>
<text text-anchor="middle" x="520" y="-1093.4" font-family="Times Roman,serif" font-size="9.00">No.</text>
</g>
<!-- CouldGenerateXOR&#45;&gt;ForgeARP -->
<g id="edge17" class="edge"><title>CouldGenerateXOR&#45;&gt;ForgeARP</title>
<path fill="none" stroke="black" d="M523.662,-931.2C532.376,-919.393 544.486,-902.987 554.644,-889.225"/>
<polygon fill="black" stroke="black" points="557.546,-891.186 560.669,-881.062 551.914,-887.029 557.546,-891.186"/>
<text text-anchor="middle" x="555.5" y="-902.4" font-family="Times Roman,serif" font-size="9.00">Yes.</text>
</g>
<!-- CouldGenerateXOR&#45;&gt;BluteforceCRC -->
<g id="edge19" class="edge"><title>CouldGenerateXOR&#45;&gt;BluteforceCRC</title>
<path fill="none" stroke="black" d="M513.177,-928.959C514.699,-905.611 517.369,-864.674 519.161,-837.201"/>
<polygon fill="black" stroke="black" points="522.665,-837.252 519.823,-827.046 515.68,-836.797 522.665,-837.252"/>
<text text-anchor="middle" x="523" y="-902.4" font-family="Times Roman,serif" font-size="9.00">No.</text>
</g>
<!-- IsTKIP -->
<g id="node29" class="node"><title>IsTKIP</title>
<polygon fill="none" stroke="black" points="319,-1156 282.08,-1138 319,-1120 355.92,-1138 319,-1156"/>
<text text-anchor="middle" x="319" y="-1135" font-family="Times Roman,serif" font-size="10.00">IsTKIP</text>
</g>
<!-- IsPSK -->
<g id="node30" class="node"><title>IsPSK</title>
<polygon fill="none" stroke="black" points="319,-1072 282.933,-1054 319,-1036 355.067,-1054 319,-1072"/>
<text text-anchor="middle" x="319" y="-1051" font-family="Times Roman,serif" font-size="10.00">IsPSK</text>
</g>
<!-- IsTKIP&#45;&gt;IsPSK -->
<g id="edge32" class="edge"><title>IsTKIP&#45;&gt;IsPSK</title>
<path fill="none" stroke="black" d="M319,-1119.77C319,-1108.88 319,-1094.79 319,-1082.46"/>
<polygon fill="black" stroke="black" points="322.5,-1082.19 319,-1072.19 315.5,-1082.19 322.5,-1082.19"/>
<text text-anchor="middle" x="327" y="-1093.4" font-family="Times Roman,serif" font-size="9.00">No.</text>
</g>
<!-- HasWPS_PSK -->
<g id="node31" class="node"><title>HasWPS_PSK</title>
<a xlink:href="http://code.google.com/p/reaver-wps/source/browse/trunk/docs/README.WASH?r=87" xlink:title="HasWPS">
<polygon fill="none" stroke="black" points="283,-965 235.878,-947 283,-929 330.122,-947 283,-965"/>
<text text-anchor="middle" x="283" y="-944" font-family="Times Roman,serif" font-size="10.00">HasWPS</text>
</a>
</g>
<!-- IsTKIP&#45;&gt;HasWPS_PSK -->
<g id="edge30" class="edge"><title>IsTKIP&#45;&gt;HasWPS_PSK</title>
<path fill="none" stroke="black" d="M304.302,-1127.03C289.887,-1115.26 268.826,-1095.12 260,-1072 247.215,-1038.51 259.915,-997.197 270.906,-971.467"/>
<polygon fill="black" stroke="black" points="274.21,-972.655 275.129,-962.1 267.828,-969.778 274.21,-972.655"/>
<text text-anchor="middle" x="269.5" y="-1051.4" font-family="Times Roman,serif" font-size="9.00">Yes.</text>
</g>
<!-- IsPSK&#45;&gt;HasWPS_PSK -->
<g id="edge34" class="edge"><title>IsPSK&#45;&gt;HasWPS_PSK</title>
<path fill="none" stroke="black" d="M313.688,-1038.21C307.899,-1021.01 298.547,-993.209 291.686,-972.818"/>
<polygon fill="black" stroke="black" points="294.958,-971.566 288.452,-963.204 288.323,-973.798 294.958,-971.566"/>
<text text-anchor="middle" x="316.5" y="-1009.4" font-family="Times Roman,serif" font-size="9.00">Yes.</text>
</g>
<!-- HasClient_EAP -->
<g id="node32" class="node"><title>HasClient_EAP</title>
<polygon fill="none" stroke="black" points="116,-965 63.7761,-947 116,-929 168.224,-947 116,-965"/>
<text text-anchor="middle" x="116" y="-944" font-family="Times Roman,serif" font-size="10.00">HasClient</text>
</g>
<!-- IsPSK&#45;&gt;HasClient_EAP -->
<g id="edge36" class="edge"><title>IsPSK&#45;&gt;HasClient_EAP</title>
<path fill="none" stroke="black" d="M308.228,-1041.05C298.065,-1029.8 281.772,-1014.07 264,-1006 239.905,-995.061 230.055,-1006.51 205,-998 182.026,-990.193 158.296,-976.25 141.123,-964.914"/>
<polygon fill="black" stroke="black" points="143.023,-961.973 132.779,-959.269 139.101,-967.771 143.023,-961.973"/>
<text text-anchor="middle" x="291.5" y="-1009.4" font-family="Times Roman,serif" font-size="9.00">NO.</text>
</g>
<!-- HasClient_PSK -->
<g id="node40" class="node"><title>HasClient_PSK</title>
<polygon fill="none" stroke="black" points="306,-773 253.776,-755 306,-737 358.224,-755 306,-773"/>
<text text-anchor="middle" x="306" y="-752" font-family="Times Roman,serif" font-size="10.00">HasClient</text>
</g>
<!-- HasWPS_PSK&#45;&gt;HasClient_PSK -->
<g id="edge48" class="edge"><title>HasWPS_PSK&#45;&gt;HasClient_PSK</title>
<path fill="none" stroke="black" d="M267.739,-934.729C254.106,-922.701 235.078,-903.007 227,-881 221.486,-865.98 222.878,-860.46 227,-845 234.13,-818.261 239.665,-811.728 258,-791 263.953,-784.271 271.343,-777.989 278.526,-772.618"/>
<polygon fill="black" stroke="black" points="280.644,-775.406 286.765,-766.758 276.587,-769.702 280.644,-775.406"/>
<text text-anchor="middle" x="235" y="-860.4" font-family="Times Roman,serif" font-size="9.00">No.</text>
</g>
<!-- IsWeakWPS -->
<g id="node41" class="node"><title>IsWeakWPS</title>
<a xlink:href="https://scotthelme.co.uk/wifi-insecurity-wps/" xlink:title="IsWeakWPS">
<polygon fill="none" stroke="black" points="306,-881 246.971,-863 306,-845 365.029,-863 306,-881"/>
<text text-anchor="middle" x="306" y="-860" font-family="Times Roman,serif" font-size="10.00">IsWeakWPS</text>
</a>
</g>
<!-- HasWPS_PSK&#45;&gt;IsWeakWPS -->
<g id="edge42" class="edge"><title>HasWPS_PSK&#45;&gt;IsWeakWPS</title>
<path fill="none" stroke="black" d="M287.544,-930.404C290.736,-918.745 295.074,-902.903 298.742,-889.507"/>
<polygon fill="black" stroke="black" points="302.121,-890.418 301.387,-879.849 295.37,-888.569 302.121,-890.418"/>
<text text-anchor="middle" x="305.5" y="-902.4" font-family="Times Roman,serif" font-size="9.00">Yes.</text>
</g>
<!-- HasClient_EAP&#45;&gt;Impossible -->
<g id="edge66" class="edge"><title>HasClient_EAP&#45;&gt;Impossible</title>
<path fill="none" stroke="black" d="M93.4895,-936.566C68.6077,-923.298 32,-897.854 32,-863 32,-863 32,-863 32,-608 32,-599.145 27.3491,-597.752 26,-589 26,-589 26,-285 26,-285 67.9784,-221.643 152.209,-192.796 216.259,-179.719"/>
<polygon fill="black" stroke="black" points="217.209,-183.099 226.356,-177.752 215.871,-176.228 217.209,-183.099"/>
<text text-anchor="middle" x="34" y="-568.4" font-family="Times Roman,serif" font-size="9.00">No.</text>
</g>
<!-- SetupRougeAP -->
<g id="node60" class="node"><title>SetupRougeAP</title>
<polygon fill="none" stroke="black" points="159,-881 73,-881 73,-845 159,-845 159,-881"/>
<text text-anchor="middle" x="116" y="-860" font-family="Times Roman,serif" font-size="10.00">SetupRougeAP</text>
</g>
<!-- HasClient_EAP&#45;&gt;SetupRougeAP -->
<g id="edge64" class="edge"><title>HasClient_EAP&#45;&gt;SetupRougeAP</title>
<path fill="none" stroke="black" d="M116,-928.773C116,-917.876 116,-903.795 116,-891.459"/>
<polygon fill="black" stroke="black" points="119.5,-891.191 116,-881.191 112.5,-891.191 119.5,-891.191"/>
<text text-anchor="middle" x="125.5" y="-902.4" font-family="Times Roman,serif" font-size="9.00">Yes.</text>
</g>
<!-- HasClient_PSK&#45;&gt;Impossible -->
<g id="edge52" class="edge"><title>HasClient_PSK&#45;&gt;Impossible</title>
<path fill="none" stroke="black" d="M322.457,-742.64C342.204,-726.876 374.797,-697.708 392,-665 411.86,-627.242 475.376,-316.857 447,-285 436.733,-273.474 391.315,-284.808 378,-277 363.708,-268.619 351.308,-256.472 340.858,-243.324"/>
<polygon fill="black" stroke="black" points="343.421,-240.908 334.605,-235.032 337.832,-245.123 343.421,-240.908"/>
<text text-anchor="middle" x="447" y="-494.4" font-family="Times Roman,serif" font-size="9.00">No.</text>
</g>
<!-- SetupRougeAccessPointOrDeauthClient -->
<g id="node43" class="node"><title>SetupRougeAccessPointOrDeauthClient</title>
<polygon fill="none" stroke="black" points="223,-628 223,-664 389,-664 389,-628 223,-628"/>
<text text-anchor="middle" x="266.5" y="-643" font-family="Times Roman,serif" font-size="10.00">SetupRougeAP</text>
<polyline fill="none" stroke="black" points="310,-628 310,-664 "/>
<text text-anchor="middle" x="349.5" y="-643" font-family="Times Roman,serif" font-size="10.00">DeauthClient</text>
</g>
<!-- HasClient_PSK&#45;&gt;SetupRougeAccessPointOrDeauthClient -->
<g id="edge50" class="edge"><title>HasClient_PSK&#45;&gt;SetupRougeAccessPointOrDeauthClient</title>
<path fill="none" stroke="black" d="M306,-736.51C306,-719.495 306,-694.006 306,-674.408"/>
<polygon fill="black" stroke="black" points="309.5,-674.217 306,-664.217 302.5,-674.217 309.5,-674.217"/>
<text text-anchor="middle" x="315.5" y="-698.4" font-family="Times Roman,serif" font-size="9.00">Yes.</text>
</g>
<!-- IsWeakWPS&#45;&gt;HasClient_PSK -->
<g id="edge46" class="edge"><title>IsWeakWPS&#45;&gt;HasClient_PSK</title>
<path fill="none" stroke="black" d="M306,-844.679C306,-827.821 306,-802.565 306,-783.147"/>
<polygon fill="black" stroke="black" points="309.5,-783.05 306,-773.05 302.5,-783.05 309.5,-783.05"/>
<text text-anchor="middle" x="314" y="-806.4" font-family="Times Roman,serif" font-size="9.00">No.</text>
</g>
<!-- CrackWPS -->
<g id="node46" class="node"><title>CrackWPS</title>
<a xlink:href="http://lifehacker.com/5873407/how-to-crack-a-wi-fi-networks-wpa-password-with-reaver" xlink:title="CrackWPS">
<polygon fill="none" stroke="black" points="278,-719 214,-719 214,-683 278,-683 278,-719"/>
<text text-anchor="middle" x="246" y="-698" font-family="Times Roman,serif" font-size="10.00">CrackWPS</text>
</a>
</g>
<!-- IsWeakWPS&#45;&gt;CrackWPS -->
<g id="edge44" class="edge"><title>IsWeakWPS&#45;&gt;CrackWPS</title>
<path fill="none" stroke="black" d="M294.051,-848.493C280.87,-831.556 260.298,-802.133 251,-773 246.551,-759.06 245.12,-742.855 244.88,-729.353"/>
<polygon fill="black" stroke="black" points="248.381,-729.208 244.908,-719.198 241.381,-729.189 248.381,-729.208"/>
<text text-anchor="middle" x="287.5" y="-806.4" font-family="Times Roman,serif" font-size="9.00">Yes.</text>
</g>
<!-- StealHandShake -->
<g id="node44" class="node"><title>StealHandShake</title>
<polygon fill="none" stroke="black" points="336,-589 240,-589 240,-553 336,-553 336,-589"/>
<text text-anchor="middle" x="288" y="-568" font-family="Times Roman,serif" font-size="10.00">StealHandShake</text>
</g>
<!-- SetupRougeAccessPointOrDeauthClient&#45;&gt;StealHandShake -->
<g id="edge54" class="edge"><title>SetupRougeAccessPointOrDeauthClient&#45;&gt;StealHandShake</title>
<path fill="none" stroke="black" d="M301.643,-627.845C299.58,-619.249 297.068,-608.785 294.766,-599.19"/>
<polygon fill="black" stroke="black" points="298.117,-598.155 292.38,-589.248 291.31,-599.789 298.117,-598.155"/>
</g>
<!-- CrackCredential_PSK -->
<g id="node45" class="node"><title>CrackCredential_PSK</title>
<polygon fill="none" stroke="black" points="306,-515 214,-515 214,-479 306,-479 306,-515"/>
<text text-anchor="middle" x="260" y="-494" font-family="Times Roman,serif" font-size="10.00">CrackCredential</text>
</g>
<!-- StealHandShake&#45;&gt;CrackCredential_PSK -->
<g id="edge56" class="edge"><title>StealHandShake&#45;&gt;CrackCredential_PSK</title>
<path fill="none" stroke="black" d="M281.079,-552.708C277.857,-544.195 273.958,-533.888 270.393,-524.467"/>
<polygon fill="black" stroke="black" points="273.654,-523.196 266.842,-515.082 267.107,-525.673 273.654,-523.196"/>
</g>
<!-- CrackCredential_PSK&#45;&gt;HasWebAuthentication -->
<g id="edge115" class="edge"><title>CrackCredential_PSK&#45;&gt;HasWebAuthentication</title>
<path fill="none" stroke="black" d="M241.847,-478.847C230.241,-467.241 215.096,-452.096 202.698,-439.698"/>
<polygon fill="black" stroke="black" points="204.935,-436.985 195.389,-432.389 199.985,-441.935 204.935,-436.985"/>
</g>
<!-- CrackWPS&#45;&gt;CrackCredential_PSK -->
<g id="edge58" class="edge"><title>CrackWPS&#45;&gt;CrackCredential_PSK</title>
<path fill="none" stroke="black" d="M229.53,-682.804C225.643,-677.441 222.04,-671.309 220,-665 213.847,-645.97 217.661,-639.863 220,-620 223.58,-589.595 226.38,-582.064 236,-553 239.124,-543.561 243.19,-533.503 247.085,-524.554"/>
<polygon fill="black" stroke="black" points="250.309,-525.918 251.191,-515.36 243.917,-523.064 250.309,-525.918"/>
</g>
<!-- CaptureChallangeResponse -->
<g id="node61" class="node"><title>CaptureChallangeResponse</title>
<polygon fill="none" stroke="black" points="190,-773 42,-773 42,-737 190,-737 190,-773"/>
<text text-anchor="middle" x="116" y="-752" font-family="Times Roman,serif" font-size="10.00">CaptureChallangeResponse</text>
</g>
<!-- SetupRougeAP&#45;&gt;CaptureChallangeResponse -->
<g id="edge68" class="edge"><title>SetupRougeAP&#45;&gt;CaptureChallangeResponse</title>
<path fill="none" stroke="black" d="M116,-844.679C116,-827.821 116,-802.565 116,-783.147"/>
<polygon fill="black" stroke="black" points="119.5,-783.05 116,-773.05 112.5,-783.05 119.5,-783.05"/>
</g>
<!-- CrackCredential_EAP -->
<g id="node62" class="node"><title>CrackCredential_EAP</title>
<polygon fill="none" stroke="black" points="183,-664 91,-664 91,-628 183,-628 183,-664"/>
<text text-anchor="middle" x="137" y="-643" font-family="Times Roman,serif" font-size="10.00">CrackCredential</text>
</g>
<!-- CaptureChallangeResponse&#45;&gt;CrackCredential_EAP -->
<g id="edge70" class="edge"><title>CaptureChallangeResponse&#45;&gt;CrackCredential_EAP</title>
<path fill="none" stroke="black" d="M119.562,-736.51C122.856,-719.416 127.797,-693.769 131.579,-674.136"/>
<polygon fill="black" stroke="black" points="135.035,-674.699 133.49,-664.217 128.162,-673.375 135.035,-674.699"/>
</g>
<!-- CrackCredential_EAP&#45;&gt;HasWebAuthentication -->
<g id="edge117" class="edge"><title>CrackCredential_EAP&#45;&gt;HasWebAuthentication</title>
<path fill="none" stroke="black" d="M140.446,-627.647C147.987,-587.488 165.985,-491.638 174.865,-444.346"/>
<polygon fill="black" stroke="black" points="178.309,-444.968 176.715,-434.494 171.43,-443.676 178.309,-444.968"/>
</g>
<!-- Start -->
<g id="node69" class="node"><title>Start</title>
<polygon fill="none" stroke="black" points="518,-2016 566.812,-2046 469.188,-2046 518,-2016"/>
<text text-anchor="middle" x="518" y="-2033" font-family="Times Roman,serif" font-size="10.00">Start</text>
</g>
<!-- HasAccessPointsAroundYou -->
<g id="node81" class="node"><title>HasAccessPointsAroundYou</title>
<a xlink:href="http://www.aircrack-ng.org/doku.php?id=airodump-ng" xlink:title="HasAccessPointsAroundYou">
<polygon fill="none" stroke="black" points="518,-1962 391.788,-1944 518,-1926 644.212,-1944 518,-1962"/>
<text text-anchor="middle" x="518" y="-1941" font-family="Times Roman,serif" font-size="10.00">HasAccessPointsAroundYou</text>
</a>
</g>
<!-- Start&#45;&gt;HasAccessPointsAroundYou -->
<g id="edge81" class="edge"><title>Start&#45;&gt;HasAccessPointsAroundYou</title>
<path fill="none" stroke="black" d="M511.873,-2019.51C509.537,-2012.39 507.158,-2003.89 506,-1996 504.789,-1987.75 505.913,-1978.87 507.879,-1970.83"/>
<polygon fill="black" stroke="black" points="511.248,-1971.78 510.708,-1961.2 504.532,-1969.81 511.248,-1971.78"/>
<text text-anchor="middle" x="517" y="-1987.4" font-family="Times Roman,serif" font-size="9.00">Fine.</text>
</g>
<!-- ImproveYourWifiAntenna -->
<g id="node76" class="node"><title>ImproveYourWifiAntenna</title>
<a xlink:href="http://www.instructables.com/id/DIY-WIFI-Antenna-Reception-Booster/" xlink:title="ImproveYourWifiAntenna">
<polygon fill="none" stroke="black" points="644,-1874 514,-1874 514,-1838 644,-1838 644,-1874"/>
<text text-anchor="middle" x="579" y="-1853" font-family="Times Roman,serif" font-size="10.00">ImproveYourWifiAntenna</text>
</a>
</g>
<!-- IsStealthESSID -->
<g id="node82" class="node"><title>IsStealthESSID</title>
<a xlink:href="http://securitysynapse.blogspot.jp/2014/01/wireless-pentesting-on-cheap-kali-hiddenSSID.html" xlink:title="IsStealthESSID">
<polygon fill="none" stroke="black" points="569,-1790 494.163,-1772 569,-1754 643.837,-1772 569,-1790"/>
<text text-anchor="middle" x="569" y="-1769" font-family="Times Roman,serif" font-size="10.00">IsStealthESSID</text>
</a>
</g>
<!-- ImproveYourWifiAntenna&#45;&gt;IsStealthESSID -->
<g id="edge87" class="edge"><title>ImproveYourWifiAntenna&#45;&gt;IsStealthESSID</title>
<path fill="none" stroke="black" d="M549.095,-1837.69C543.395,-1832.71 538.212,-1826.78 535,-1820 530.446,-1810.39 535.222,-1800.66 542.491,-1792.49"/>
<polygon fill="black" stroke="black" points="544.962,-1794.97 549.671,-1785.48 540.071,-1789.96 544.962,-1794.97"/>
<text text-anchor="middle" x="559.5" y="-1811.4" font-family="Times Roman,serif" font-size="9.00">OK I got it.</text>
</g>
<!-- DeauthAllClient -->
<g id="node77" class="node"><title>DeauthAllClient</title>
<a xlink:href="http://www.aircrack-ng.org/doku.php?id=deauthentication" xlink:title="DeauthAllClient">
<polygon fill="none" stroke="black" points="556,-1622 466,-1622 466,-1586 556,-1586 556,-1622"/>
<text text-anchor="middle" x="511" y="-1601" font-family="Times Roman,serif" font-size="10.00">DeauthAllClient</text>
</a>
</g>
<!-- HasHardwareAddressFiltering -->
<g id="node84" class="node"><title>HasHardwareAddressFiltering</title>
<a xlink:href="http://synjunkie.blogspot.jp/2007/12/bypass-hidden-ssid-mac-address-filter.html" xlink:title="HasHardwareAddressFiltering">
<polygon fill="none" stroke="black" points="511,-1538 377.984,-1520 511,-1502 644.016,-1520 511,-1538"/>
<text text-anchor="middle" x="511" y="-1517" font-family="Times Roman,serif" font-size="10.00">HasHardwareAddressFiltering</text>
</a>
</g>
<!-- DeauthAllClient&#45;&gt;HasHardwareAddressFiltering -->
<g id="edge97" class="edge"><title>DeauthAllClient&#45;&gt;HasHardwareAddressFiltering</title>
<path fill="none" stroke="black" d="M511,-1585.77C511,-1574.88 511,-1560.79 511,-1548.46"/>
<polygon fill="black" stroke="black" points="514.5,-1548.19 511,-1538.19 507.5,-1548.19 514.5,-1548.19"/>
<text text-anchor="middle" x="538.5" y="-1559.4" font-family="Times Roman,serif" font-size="9.00">I got ESSID.</text>
</g>
<!-- SpoofHardwareAddress -->
<g id="node78" class="node"><title>SpoofHardwareAddress</title>
<a xlink:href="http://www.securethelock.com/2013/12/03/how-to-bypass-mac-address-filtering-using-backtrackkali-linux/" xlink:title="SpoofHardwareAddress">
<polygon fill="none" stroke="black" points="586,-1454 458,-1454 458,-1418 586,-1418 586,-1454"/>
<text text-anchor="middle" x="522" y="-1433" font-family="Times Roman,serif" font-size="10.00">SpoofHardwareAddress</text>
</a>
</g>
<!-- HasEncryption -->
<g id="node85" class="node"><title>HasEncryption</title>
<a xlink:href="http://www.dummies.com/how-to/content/wireless-security-protocols-wep-wpa-and-wpa2.html" xlink:title="HasEncryption">
<polygon fill="none" stroke="black" points="435,-1370 361.864,-1352 435,-1334 508.136,-1352 435,-1370"/>
<text text-anchor="middle" x="435" y="-1349" font-family="Times Roman,serif" font-size="10.00">HasEncryption</text>
</a>
</g>
<!-- SpoofHardwareAddress&#45;&gt;HasEncryption -->
<g id="edge103" class="edge"><title>SpoofHardwareAddress&#45;&gt;HasEncryption</title>
<path fill="none" stroke="black" d="M503.122,-1417.77C489.713,-1404.83 471.65,-1387.39 457.493,-1373.72"/>
<polygon fill="black" stroke="black" points="459.71,-1370.99 450.084,-1366.56 454.847,-1376.03 459.71,-1370.99"/>
<text text-anchor="middle" x="572.5" y="-1391.4" font-family="Times Roman,serif" font-size="9.00">I could associate with AP(or WEP&#45;SKA.</text>
</g>
<!-- SpoofHardwareAddress2 -->
<g id="node79" class="node"><title>SpoofHardwareAddress2</title>
<a xlink:href="http://www.securethelock.com/2013/12/03/how-to-bypass-mac-address-filtering-using-backtrackkali-linux/" xlink:title="SpoofHardwareAddressToClient&#39;sOne">
<polygon fill="none" stroke="black" points="582,-187 390,-187 390,-151 582,-151 582,-187"/>
<text text-anchor="middle" x="486" y="-166" font-family="Times Roman,serif" font-size="10.00">SpoofHardwareAddressToClient&#39;sOne</text>
</a>
</g>
<!-- SpoofHardwareAddress2&#45;&gt;End -->
<g id="edge131" class="edge"><title>SpoofHardwareAddress2&#45;&gt;End</title>
<path fill="none" stroke="black" d="M465.347,-150.964C445.002,-133.536 412.736,-106.794 383,-86 364.215,-72.8644 341.913,-59.547 325.16,-49.9625"/>
<polygon fill="black" stroke="black" points="326.432,-46.6609 316.006,-44.7803 322.984,-52.7525 326.432,-46.6609"/>
</g>
<!-- HasAccessPointsAroundYou&#45;&gt;ImproveYourWifiAntenna -->
<g id="edge85" class="edge"><title>HasAccessPointsAroundYou&#45;&gt;ImproveYourWifiAntenna</title>
<path fill="none" stroke="black" d="M524.531,-1926.81C528.944,-1916.27 535.352,-1902.79 543,-1892 545.473,-1888.51 548.297,-1885.06 551.251,-1881.75"/>
<polygon fill="black" stroke="black" points="553.935,-1884 558.275,-1874.34 548.855,-1879.19 553.935,-1884"/>
<text text-anchor="middle" x="551" y="-1895.4" font-family="Times Roman,serif" font-size="9.00">No.</text>
</g>
<!-- HasAccessPointsAroundYou&#45;&gt;IsStealthESSID -->
<g id="edge83" class="edge"><title>HasAccessPointsAroundYou&#45;&gt;IsStealthESSID</title>
<path fill="none" stroke="black" d="M507.827,-1927.18C496.241,-1905.7 480.554,-1867.74 494,-1838 502.982,-1818.13 521.23,-1801.86 537.477,-1790.44"/>
<polygon fill="black" stroke="black" points="539.847,-1793.07 546.225,-1784.61 535.963,-1787.25 539.847,-1793.07"/>
<text text-anchor="middle" x="502" y="-1853.4" font-family="Times Roman,serif" font-size="9.00">Yes</text>
</g>
<!-- IsThereConnectedClient -->
<g id="node83" class="node"><title>IsThereConnectedClient</title>
<a xlink:href="http://blackhat6969.blogspot.jp/2012/09/down-and-dirty-wifi-cracking-with.html" xlink:title="IsThereConnectedClient">
<polygon fill="none" stroke="black" points="448,-1706 337.946,-1688 448,-1670 558.054,-1688 448,-1706"/>
<text text-anchor="middle" x="448" y="-1685" font-family="Times Roman,serif" font-size="10.00">IsThereConnectedClient</text>
</a>
</g>
<!-- IsStealthESSID&#45;&gt;IsThereConnectedClient -->
<g id="edge89" class="edge"><title>IsStealthESSID&#45;&gt;IsThereConnectedClient</title>
<path fill="none" stroke="black" d="M549.559,-1758.5C530.097,-1744.99 499.902,-1724.03 477.489,-1708.47"/>
<polygon fill="black" stroke="black" points="479.229,-1705.42 469.018,-1702.59 475.237,-1711.17 479.229,-1705.42"/>
<text text-anchor="middle" x="525.5" y="-1727.4" font-family="Times Roman,serif" font-size="9.00">Yes.</text>
</g>
<!-- IsStealthESSID&#45;&gt;HasHardwareAddressFiltering -->
<g id="edge95" class="edge"><title>IsStealthESSID&#45;&gt;HasHardwareAddressFiltering</title>
<path fill="none" stroke="black" d="M577.29,-1755.97C583.551,-1742.91 591.623,-1723.79 595,-1706 597.985,-1690.28 596.922,-1685.88 595,-1670 588.732,-1618.21 597.321,-1598.46 567,-1556 562.567,-1549.79 556.697,-1544.39 550.427,-1539.8"/>
<polygon fill="black" stroke="black" points="551.993,-1536.64 541.725,-1534.03 548.126,-1542.47 551.993,-1536.64"/>
<text text-anchor="middle" x="601" y="-1643.4" font-family="Times Roman,serif" font-size="9.00">No.</text>
</g>
<!-- IsThereConnectedClient&#45;&gt;DeauthAllClient -->
<g id="edge91" class="edge"><title>IsThereConnectedClient&#45;&gt;DeauthAllClient</title>
<path fill="none" stroke="black" d="M460.147,-1671.8C468.971,-1660.04 481.103,-1643.86 491.304,-1630.26"/>
<polygon fill="black" stroke="black" points="494.159,-1632.29 497.359,-1622.19 488.559,-1628.09 494.159,-1632.29"/>
<text text-anchor="middle" x="493.5" y="-1643.4" font-family="Times Roman,serif" font-size="9.00">Yes.</text>
</g>
<!-- IsThereConnectedClient&#45;&gt;IsThereConnectedClient -->
<g id="edge93" class="edge"><title>IsThereConnectedClient&#45;&gt;IsThereConnectedClient</title>
<path fill="none" stroke="black" d="M510.891,-1695.73C539.803,-1696.54 565,-1693.97 565,-1688 565,-1682.75 545.536,-1680.13 521.193,-1680.13"/>
<polygon fill="black" stroke="black" points="520.84,-1676.63 510.891,-1680.27 520.94,-1683.63 520.84,-1676.63"/>
<text text-anchor="middle" x="573" y="-1685.4" font-family="Times Roman,serif" font-size="9.00">No.</text>
</g>
<!-- HasHardwareAddressFiltering&#45;&gt;SpoofHardwareAddress -->
<g id="edge99" class="edge"><title>HasHardwareAddressFiltering&#45;&gt;SpoofHardwareAddress</title>
<path fill="none" stroke="black" d="M508.445,-1502.1C507.606,-1493.02 507.274,-1481.86 509,-1472 509.467,-1469.33 510.115,-1466.6 510.875,-1463.89"/>
<polygon fill="black" stroke="black" points="514.214,-1464.94 513.991,-1454.35 507.56,-1462.77 514.214,-1464.94"/>
<text text-anchor="middle" x="518.5" y="-1475.4" font-family="Times Roman,serif" font-size="9.00">Yes.</text>
</g>
<!-- HasHardwareAddressFiltering&#45;&gt;HasEncryption -->
<g id="edge101" class="edge"><title>HasHardwareAddressFiltering&#45;&gt;HasEncryption</title>
<path fill="none" stroke="black" d="M486.155,-1505.25C469.218,-1493.67 448.099,-1475.87 438,-1454 427.136,-1430.47 427.709,-1400.53 430.195,-1379.18"/>
<polygon fill="black" stroke="black" points="433.676,-1379.55 431.572,-1369.17 426.741,-1378.6 433.676,-1379.55"/>
<text text-anchor="middle" x="446" y="-1433.4" font-family="Times Roman,serif" font-size="9.00">No.</text>
</g>
<!-- HasEncryption&#45;&gt;NothingToDo -->
<g id="edge105" class="edge"><title>HasEncryption&#45;&gt;NothingToDo</title>
<path fill="none" stroke="black" d="M398.405,-1342.89C364.482,-1333.65 313.191,-1317.64 272,-1296 255.882,-1287.53 239.426,-1275.52 226.629,-1265.29"/>
<polygon fill="black" stroke="black" points="228.744,-1262.5 218.788,-1258.87 224.31,-1267.91 228.744,-1262.5"/>
<text text-anchor="middle" x="323" y="-1307.4" font-family="Times Roman,serif" font-size="9.00">No.</text>
</g>
<!-- IsWEP -->
<g id="node86" class="node"><title>IsWEP</title>
<a xlink:href="http://www.howtogeek.com/167783/htg-explains-the-difference-between-wep-wpa-and-wpa2-wireless-encryption-and-why-it-matters/" xlink:title="IsWEP">
<polygon fill="none" stroke="black" points="435,-1263 398.08,-1245 435,-1227 471.92,-1245 435,-1263"/>
<text text-anchor="middle" x="435" y="-1242" font-family="Times Roman,serif" font-size="10.00">IsWEP</text>
</a>
</g>
<!-- HasEncryption&#45;&gt;IsWEP -->
<g id="edge107" class="edge"><title>HasEncryption&#45;&gt;IsWEP</title>
<path fill="none" stroke="black" d="M435,-1333.85C435,-1317.32 435,-1292.66 435,-1273.5"/>
<polygon fill="black" stroke="black" points="438.5,-1273.24 435,-1263.24 431.5,-1273.24 438.5,-1273.24"/>
<text text-anchor="middle" x="444.5" y="-1307.4" font-family="Times Roman,serif" font-size="9.00">Yes.</text>
</g>
<!-- IsWEP&#45;&gt;HasClient_WEP -->
<g id="edge109" class="edge"><title>IsWEP&#45;&gt;HasClient_WEP</title>
<path fill="none" stroke="black" d="M444.752,-1231.45C457.556,-1213.66 480.217,-1182.17 495.662,-1160.7"/>
<polygon fill="black" stroke="black" points="498.59,-1162.63 501.59,-1152.47 492.908,-1158.54 498.59,-1162.63"/>
<text text-anchor="middle" x="478.5" y="-1200.4" font-family="Times Roman,serif" font-size="9.00">Yes.</text>
</g>
<!-- IsWEP&#45;&gt;IsTKIP -->
<g id="edge111" class="edge"><title>IsWEP&#45;&gt;IsTKIP</title>
<path fill="none" stroke="black" d="M422.143,-1233.14C402.11,-1214.66 363.273,-1178.84 339.392,-1156.81"/>
<polygon fill="black" stroke="black" points="341.638,-1154.12 331.915,-1149.91 336.892,-1159.27 341.638,-1154.12"/>
<text text-anchor="middle" x="403" y="-1200.4" font-family="Times Roman,serif" font-size="9.00">No.</text>
</g>
<!-- HasAccount -->
<g id="node88" class="node"><title>HasAccount</title>
<polygon fill="none" stroke="black" points="92,-351 29.0689,-333 92,-315 154.931,-333 92,-351"/>
<text text-anchor="middle" x="92" y="-330" font-family="Times Roman,serif" font-size="10.00">HasAccount</text>
</g>
<!-- HasWebAuthentication&#45;&gt;HasAccount -->
<g id="edge121" class="edge"><title>HasWebAuthentication&#45;&gt;HasAccount</title>
<path fill="none" stroke="black" d="M163.859,-401.593C149.916,-388.283 129.631,-368.92 114.166,-354.159"/>
<polygon fill="black" stroke="black" points="116.228,-351.288 106.578,-346.915 111.395,-356.352 116.228,-351.288"/>
<text text-anchor="middle" x="151.5" y="-372.4" font-family="Times Roman,serif" font-size="9.00">Yes.</text>
</g>
<!-- HasClient_Web -->
<g id="node89" class="node"><title>HasClient_Web</title>
<polygon fill="none" stroke="black" points="303,-351 161.83,-333 303,-315 444.17,-333 303,-351"/>
<text text-anchor="middle" x="303" y="-330" font-family="Times Roman,serif" font-size="10.00">HasAlreadyAuthenticatedClient</text>
</g>
<!-- HasWebAuthentication&#45;&gt;HasClient_Web -->
<g id="edge123" class="edge"><title>HasWebAuthentication&#45;&gt;HasClient_Web</title>
<path fill="none" stroke="black" d="M201.144,-402.56C220.67,-389.226 249.911,-369.256 272.061,-354.129"/>
<polygon fill="black" stroke="black" points="274.184,-356.918 280.468,-348.388 270.236,-351.137 274.184,-356.918"/>
<text text-anchor="middle" x="257" y="-372.4" font-family="Times Roman,serif" font-size="9.00">No.</text>
</g>
<!-- HasAccount&#45;&gt;End -->
<g id="edge129" class="edge"><title>HasAccount&#45;&gt;End</title>
<path fill="none" stroke="black" d="M86.4434,-316.284C73.1352,-272.803 44.4874,-154.774 100,-86 120.505,-60.5961 213.352,-46.0074 265.022,-39.7205"/>
<polygon fill="black" stroke="black" points="265.555,-43.1821 275.078,-38.5385 264.738,-36.2299 265.555,-43.1821"/>
</g>
<!-- HasClient_Web&#45;&gt;Impossible -->
<g id="edge127" class="edge"><title>HasClient_Web&#45;&gt;Impossible</title>
<path fill="none" stroke="black" d="M302.667,-314.823C302.391,-299.712 301.976,-277.034 301.556,-254.038"/>
<polygon fill="black" stroke="black" points="305.051,-253.765 301.369,-243.831 298.052,-253.894 305.051,-253.765"/>
<text text-anchor="middle" x="311" y="-288.4" font-family="Times Roman,serif" font-size="9.00">No.</text>
</g>
<!-- HasClient_Web&#45;&gt;SpoofHardwareAddress2 -->
<g id="edge125" class="edge"><title>HasClient_Web&#45;&gt;SpoofHardwareAddress2</title>
<path fill="none" stroke="black" d="M327.012,-317.994C343.395,-307.33 365.256,-292.249 383,-277 413.059,-251.169 443.97,-217.648 463.983,-194.849"/>
<polygon fill="black" stroke="black" points="466.662,-197.102 470.588,-187.262 461.382,-192.506 466.662,-197.102"/>
<text text-anchor="middle" x="382.5" y="-288.4" font-family="Times Roman,serif" font-size="9.00">Yes.</text>
</g>
<!-- HasAccessPointsAroundYouCommand -->
<g id="node119" class="node"><title>HasAccessPointsAroundYouCommand</title>
<polygon fill="none" stroke="black" points="920,-2058 660,-2058 660,-2014 920,-2014 920,-2058"/>
<text text-anchor="middle" x="790" y="-2045" font-family="Times Roman,serif" font-size="10.00">ifconfig wlan0 down;</text>
<text text-anchor="middle" x="790" y="-2033" font-family="Times Roman,serif" font-size="10.00">iwconfig wlan0 mode mon || airmon&#45;ng start wlan0;</text>
<text text-anchor="middle" x="790" y="-2021" font-family="Times Roman,serif" font-size="10.00">airodump&#45;ng wlan0;</text>
</g>
<!-- HasAccessPointsAroundYouCommand&#45;&gt;HasAccessPointsAroundYou -->
<g id="edge136" class="edge"><title>HasAccessPointsAroundYouCommand&#45;&gt;HasAccessPointsAroundYou</title>
<path fill="none" stroke="gray" d="M724.849,-2013.96C675.755,-1997.36 609.57,-1974.97 565.424,-1960.04"/>
<polygon fill="gray" stroke="gray" points="566.397,-1956.67 555.803,-1956.79 564.154,-1963.31 566.397,-1956.67"/>
</g>
<!-- ImproveYourWifiAntennaCommand -->
<g id="node120" class="node"><title>ImproveYourWifiAntennaCommand</title>
<polygon fill="none" stroke="black" points="774,-1966 660,-1966 660,-1922 774,-1922 774,-1966"/>
<text text-anchor="middle" x="717" y="-1953" font-family="Times Roman,serif" font-size="10.00">iw reg set BO;</text>
<text text-anchor="middle" x="717" y="-1941" font-family="Times Roman,serif" font-size="10.00">iwconfig wlan0 tx 30;</text>
<text text-anchor="middle" x="717" y="-1929" font-family="Times Roman,serif" font-size="10.00">#Add DIY Parabora.</text>
</g>
<!-- ImproveYourWifiAntennaCommand&#45;&gt;ImproveYourWifiAntenna -->
<g id="edge138" class="edge"><title>ImproveYourWifiAntennaCommand&#45;&gt;ImproveYourWifiAntenna</title>
<path fill="none" stroke="gray" d="M682.177,-1921.79C661.916,-1908.87 636.395,-1892.6 615.804,-1879.47"/>
<polygon fill="gray" stroke="gray" points="617.625,-1876.48 607.312,-1874.05 613.861,-1882.38 617.625,-1876.48"/>
</g>
<!-- IsStealthESSIDCommand -->
<g id="node121" class="node"><title>IsStealthESSIDCommand</title>
<polygon fill="none" stroke="black" points="910,-1874 660,-1874 660,-1838 910,-1838 910,-1874"/>
<text text-anchor="middle" x="785" y="-1853" font-family="Times Roman,serif" font-size="10.00">airodump&#45;ng &#45;c [channel] &#45;&#45;bssid [AP MAC] wlan0</text>
</g>
<!-- IsStealthESSIDCommand&#45;&gt;IsStealthESSID -->
<g id="edge140" class="edge"><title>IsStealthESSIDCommand&#45;&gt;IsStealthESSID</title>
<path fill="none" stroke="gray" d="M738.663,-1837.98C699.404,-1822.71 643.798,-1801.09 607.089,-1786.81"/>
<polygon fill="gray" stroke="gray" points="608.314,-1783.53 597.726,-1783.17 605.777,-1790.06 608.314,-1783.53"/>
</g>
<!-- DeauthAllClientCommand -->
<g id="node122" class="node"><title>DeauthAllClientCommand</title>
<polygon fill="none" stroke="black" points="910,-1706 660,-1706 660,-1670 910,-1670 910,-1706"/>
<text text-anchor="middle" x="785" y="-1691" font-family="Times Roman,serif" font-size="10.00">aireplay&#45;ng &#45;0 0 &#45;a [AP MAC] wlan0;</text>
<text text-anchor="middle" x="785" y="-1679" font-family="Times Roman,serif" font-size="10.00">aireplay&#45;ng &#45;0 0 &#45;a [AP MAC] &#45;c [STA MAC] wlan0;</text>
</g>
<!-- DeauthAllClientCommand&#45;&gt;DeauthAllClient -->
<g id="edge142" class="edge"><title>DeauthAllClientCommand&#45;&gt;DeauthAllClient</title>
<path fill="none" stroke="gray" d="M726.22,-1669.98C678.656,-1655.4 612.173,-1635.02 565.728,-1620.78"/>
<polygon fill="gray" stroke="gray" points="566.722,-1617.42 556.135,-1617.84 564.67,-1624.11 566.722,-1617.42"/>
</g>
<!-- SpoofHardwareAddressCommand -->
<g id="node123" class="node"><title>SpoofHardwareAddressCommand</title>
<polygon fill="none" stroke="black" points="1004,-1538 660,-1538 660,-1502 1004,-1502 1004,-1538"/>
<text text-anchor="middle" x="832" y="-1523" font-family="Times Roman,serif" font-size="10.00">ifconfig wlan0 down &amp;&amp; ifconfig hw ether [MAC] &amp;&amp; ifconfig wlan0 up;</text>
<text text-anchor="middle" x="832" y="-1511" font-family="Times Roman,serif" font-size="10.00">macchanger &#45;m [MAC] wlan0;</text>
</g>
<!-- SpoofHardwareAddressCommand&#45;&gt;SpoofHardwareAddress -->
<g id="edge144" class="edge"><title>SpoofHardwareAddressCommand&#45;&gt;SpoofHardwareAddress</title>
<path fill="none" stroke="gray" d="M765.497,-1501.98C715.607,-1488.46 647.322,-1469.96 595.759,-1455.99"/>
<polygon fill="gray" stroke="gray" points="596.574,-1452.58 586.007,-1453.34 594.743,-1459.34 596.574,-1452.58"/>
</g>
</g>
</svg>
